%TF.GenerationSoftware,KiCad,Pcbnew,8.0.7*%
%TF.CreationDate,2025-03-27T18:08:51-05:00*%
%TF.ProjectId,Chess_board2,43686573-735f-4626-9f61-7264322e6b69,rev?*%
%TF.SameCoordinates,Original*%
%TF.FileFunction,Drillmap*%
%TF.FilePolarity,Positive*%
%FSLAX45Y45*%
G04 Gerber Fmt 4.5, Leading zero omitted, Abs format (unit mm)*
G04 Created by KiCad (PCBNEW 8.0.7) date 2025-03-27 18:08:51*
%MOMM*%
%LPD*%
G01*
G04 APERTURE LIST*
%ADD10C,0.200000*%
%ADD11C,0.160000*%
G04 APERTURE END LIST*
D10*
X31300000Y-6200000D02*
X53100000Y-6200000D01*
X53100000Y-28000000D01*
X31300000Y-28000000D01*
X31300000Y-6200000D01*
D11*
X50800000Y-11768000D02*
X50960000Y-11928000D01*
X50960000Y-11768000D02*
X50800000Y-11928000D01*
D10*
X31550777Y-28321484D02*
X31550777Y-28121484D01*
X31550777Y-28121484D02*
X31598396Y-28121484D01*
X31598396Y-28121484D02*
X31626967Y-28131008D01*
X31626967Y-28131008D02*
X31646015Y-28150055D01*
X31646015Y-28150055D02*
X31655539Y-28169103D01*
X31655539Y-28169103D02*
X31665062Y-28207198D01*
X31665062Y-28207198D02*
X31665062Y-28235769D01*
X31665062Y-28235769D02*
X31655539Y-28273865D01*
X31655539Y-28273865D02*
X31646015Y-28292912D01*
X31646015Y-28292912D02*
X31626967Y-28311960D01*
X31626967Y-28311960D02*
X31598396Y-28321484D01*
X31598396Y-28321484D02*
X31550777Y-28321484D01*
X31750777Y-28321484D02*
X31750777Y-28188150D01*
X31750777Y-28226246D02*
X31760301Y-28207198D01*
X31760301Y-28207198D02*
X31769824Y-28197674D01*
X31769824Y-28197674D02*
X31788872Y-28188150D01*
X31788872Y-28188150D02*
X31807920Y-28188150D01*
X31874586Y-28321484D02*
X31874586Y-28188150D01*
X31874586Y-28121484D02*
X31865062Y-28131008D01*
X31865062Y-28131008D02*
X31874586Y-28140531D01*
X31874586Y-28140531D02*
X31884110Y-28131008D01*
X31884110Y-28131008D02*
X31874586Y-28121484D01*
X31874586Y-28121484D02*
X31874586Y-28140531D01*
X31998396Y-28321484D02*
X31979348Y-28311960D01*
X31979348Y-28311960D02*
X31969824Y-28292912D01*
X31969824Y-28292912D02*
X31969824Y-28121484D01*
X32103158Y-28321484D02*
X32084110Y-28311960D01*
X32084110Y-28311960D02*
X32074586Y-28292912D01*
X32074586Y-28292912D02*
X32074586Y-28121484D01*
X32331729Y-28321484D02*
X32331729Y-28121484D01*
X32331729Y-28121484D02*
X32398396Y-28264341D01*
X32398396Y-28264341D02*
X32465062Y-28121484D01*
X32465062Y-28121484D02*
X32465062Y-28321484D01*
X32646015Y-28321484D02*
X32646015Y-28216722D01*
X32646015Y-28216722D02*
X32636491Y-28197674D01*
X32636491Y-28197674D02*
X32617443Y-28188150D01*
X32617443Y-28188150D02*
X32579348Y-28188150D01*
X32579348Y-28188150D02*
X32560301Y-28197674D01*
X32646015Y-28311960D02*
X32626967Y-28321484D01*
X32626967Y-28321484D02*
X32579348Y-28321484D01*
X32579348Y-28321484D02*
X32560301Y-28311960D01*
X32560301Y-28311960D02*
X32550777Y-28292912D01*
X32550777Y-28292912D02*
X32550777Y-28273865D01*
X32550777Y-28273865D02*
X32560301Y-28254817D01*
X32560301Y-28254817D02*
X32579348Y-28245293D01*
X32579348Y-28245293D02*
X32626967Y-28245293D01*
X32626967Y-28245293D02*
X32646015Y-28235769D01*
X32741253Y-28188150D02*
X32741253Y-28388150D01*
X32741253Y-28197674D02*
X32760301Y-28188150D01*
X32760301Y-28188150D02*
X32798396Y-28188150D01*
X32798396Y-28188150D02*
X32817443Y-28197674D01*
X32817443Y-28197674D02*
X32826967Y-28207198D01*
X32826967Y-28207198D02*
X32836491Y-28226246D01*
X32836491Y-28226246D02*
X32836491Y-28283388D01*
X32836491Y-28283388D02*
X32826967Y-28302436D01*
X32826967Y-28302436D02*
X32817443Y-28311960D01*
X32817443Y-28311960D02*
X32798396Y-28321484D01*
X32798396Y-28321484D02*
X32760301Y-28321484D01*
X32760301Y-28321484D02*
X32741253Y-28311960D01*
X32922205Y-28302436D02*
X32931729Y-28311960D01*
X32931729Y-28311960D02*
X32922205Y-28321484D01*
X32922205Y-28321484D02*
X32912682Y-28311960D01*
X32912682Y-28311960D02*
X32922205Y-28302436D01*
X32922205Y-28302436D02*
X32922205Y-28321484D01*
X32922205Y-28197674D02*
X32931729Y-28207198D01*
X32931729Y-28207198D02*
X32922205Y-28216722D01*
X32922205Y-28216722D02*
X32912682Y-28207198D01*
X32912682Y-28207198D02*
X32922205Y-28197674D01*
X32922205Y-28197674D02*
X32922205Y-28216722D01*
D11*
X31130000Y-28570000D02*
X31290000Y-28730000D01*
X31290000Y-28570000D02*
X31130000Y-28730000D01*
D10*
X31655539Y-28741484D02*
X31541253Y-28741484D01*
X31598396Y-28741484D02*
X31598396Y-28541484D01*
X31598396Y-28541484D02*
X31579348Y-28570055D01*
X31579348Y-28570055D02*
X31560301Y-28589103D01*
X31560301Y-28589103D02*
X31541253Y-28598627D01*
X31741253Y-28722436D02*
X31750777Y-28731960D01*
X31750777Y-28731960D02*
X31741253Y-28741484D01*
X31741253Y-28741484D02*
X31731729Y-28731960D01*
X31731729Y-28731960D02*
X31741253Y-28722436D01*
X31741253Y-28722436D02*
X31741253Y-28741484D01*
X31922205Y-28541484D02*
X31884110Y-28541484D01*
X31884110Y-28541484D02*
X31865062Y-28551008D01*
X31865062Y-28551008D02*
X31855539Y-28560531D01*
X31855539Y-28560531D02*
X31836491Y-28589103D01*
X31836491Y-28589103D02*
X31826967Y-28627198D01*
X31826967Y-28627198D02*
X31826967Y-28703388D01*
X31826967Y-28703388D02*
X31836491Y-28722436D01*
X31836491Y-28722436D02*
X31846015Y-28731960D01*
X31846015Y-28731960D02*
X31865062Y-28741484D01*
X31865062Y-28741484D02*
X31903158Y-28741484D01*
X31903158Y-28741484D02*
X31922205Y-28731960D01*
X31922205Y-28731960D02*
X31931729Y-28722436D01*
X31931729Y-28722436D02*
X31941253Y-28703388D01*
X31941253Y-28703388D02*
X31941253Y-28655769D01*
X31941253Y-28655769D02*
X31931729Y-28636722D01*
X31931729Y-28636722D02*
X31922205Y-28627198D01*
X31922205Y-28627198D02*
X31903158Y-28617674D01*
X31903158Y-28617674D02*
X31865062Y-28617674D01*
X31865062Y-28617674D02*
X31846015Y-28627198D01*
X31846015Y-28627198D02*
X31836491Y-28636722D01*
X31836491Y-28636722D02*
X31826967Y-28655769D01*
X32065062Y-28541484D02*
X32084110Y-28541484D01*
X32084110Y-28541484D02*
X32103158Y-28551008D01*
X32103158Y-28551008D02*
X32112682Y-28560531D01*
X32112682Y-28560531D02*
X32122205Y-28579579D01*
X32122205Y-28579579D02*
X32131729Y-28617674D01*
X32131729Y-28617674D02*
X32131729Y-28665293D01*
X32131729Y-28665293D02*
X32122205Y-28703388D01*
X32122205Y-28703388D02*
X32112682Y-28722436D01*
X32112682Y-28722436D02*
X32103158Y-28731960D01*
X32103158Y-28731960D02*
X32084110Y-28741484D01*
X32084110Y-28741484D02*
X32065062Y-28741484D01*
X32065062Y-28741484D02*
X32046015Y-28731960D01*
X32046015Y-28731960D02*
X32036491Y-28722436D01*
X32036491Y-28722436D02*
X32026967Y-28703388D01*
X32026967Y-28703388D02*
X32017443Y-28665293D01*
X32017443Y-28665293D02*
X32017443Y-28617674D01*
X32017443Y-28617674D02*
X32026967Y-28579579D01*
X32026967Y-28579579D02*
X32036491Y-28560531D01*
X32036491Y-28560531D02*
X32046015Y-28551008D01*
X32046015Y-28551008D02*
X32065062Y-28541484D01*
X32255539Y-28541484D02*
X32274586Y-28541484D01*
X32274586Y-28541484D02*
X32293634Y-28551008D01*
X32293634Y-28551008D02*
X32303158Y-28560531D01*
X32303158Y-28560531D02*
X32312682Y-28579579D01*
X32312682Y-28579579D02*
X32322205Y-28617674D01*
X32322205Y-28617674D02*
X32322205Y-28665293D01*
X32322205Y-28665293D02*
X32312682Y-28703388D01*
X32312682Y-28703388D02*
X32303158Y-28722436D01*
X32303158Y-28722436D02*
X32293634Y-28731960D01*
X32293634Y-28731960D02*
X32274586Y-28741484D01*
X32274586Y-28741484D02*
X32255539Y-28741484D01*
X32255539Y-28741484D02*
X32236491Y-28731960D01*
X32236491Y-28731960D02*
X32226967Y-28722436D01*
X32226967Y-28722436D02*
X32217443Y-28703388D01*
X32217443Y-28703388D02*
X32207920Y-28665293D01*
X32207920Y-28665293D02*
X32207920Y-28617674D01*
X32207920Y-28617674D02*
X32217443Y-28579579D01*
X32217443Y-28579579D02*
X32226967Y-28560531D01*
X32226967Y-28560531D02*
X32236491Y-28551008D01*
X32236491Y-28551008D02*
X32255539Y-28541484D01*
X32407920Y-28741484D02*
X32407920Y-28608150D01*
X32407920Y-28627198D02*
X32417443Y-28617674D01*
X32417443Y-28617674D02*
X32436491Y-28608150D01*
X32436491Y-28608150D02*
X32465063Y-28608150D01*
X32465063Y-28608150D02*
X32484110Y-28617674D01*
X32484110Y-28617674D02*
X32493634Y-28636722D01*
X32493634Y-28636722D02*
X32493634Y-28741484D01*
X32493634Y-28636722D02*
X32503158Y-28617674D01*
X32503158Y-28617674D02*
X32522205Y-28608150D01*
X32522205Y-28608150D02*
X32550777Y-28608150D01*
X32550777Y-28608150D02*
X32569824Y-28617674D01*
X32569824Y-28617674D02*
X32579348Y-28636722D01*
X32579348Y-28636722D02*
X32579348Y-28741484D01*
X32674586Y-28741484D02*
X32674586Y-28608150D01*
X32674586Y-28627198D02*
X32684110Y-28617674D01*
X32684110Y-28617674D02*
X32703158Y-28608150D01*
X32703158Y-28608150D02*
X32731729Y-28608150D01*
X32731729Y-28608150D02*
X32750777Y-28617674D01*
X32750777Y-28617674D02*
X32760301Y-28636722D01*
X32760301Y-28636722D02*
X32760301Y-28741484D01*
X32760301Y-28636722D02*
X32769824Y-28617674D01*
X32769824Y-28617674D02*
X32788872Y-28608150D01*
X32788872Y-28608150D02*
X32817443Y-28608150D01*
X32817443Y-28608150D02*
X32836491Y-28617674D01*
X32836491Y-28617674D02*
X32846015Y-28636722D01*
X32846015Y-28636722D02*
X32846015Y-28741484D01*
X33236491Y-28531960D02*
X33065063Y-28789103D01*
X33493634Y-28541484D02*
X33512682Y-28541484D01*
X33512682Y-28541484D02*
X33531729Y-28551008D01*
X33531729Y-28551008D02*
X33541253Y-28560531D01*
X33541253Y-28560531D02*
X33550777Y-28579579D01*
X33550777Y-28579579D02*
X33560301Y-28617674D01*
X33560301Y-28617674D02*
X33560301Y-28665293D01*
X33560301Y-28665293D02*
X33550777Y-28703388D01*
X33550777Y-28703388D02*
X33541253Y-28722436D01*
X33541253Y-28722436D02*
X33531729Y-28731960D01*
X33531729Y-28731960D02*
X33512682Y-28741484D01*
X33512682Y-28741484D02*
X33493634Y-28741484D01*
X33493634Y-28741484D02*
X33474586Y-28731960D01*
X33474586Y-28731960D02*
X33465063Y-28722436D01*
X33465063Y-28722436D02*
X33455539Y-28703388D01*
X33455539Y-28703388D02*
X33446015Y-28665293D01*
X33446015Y-28665293D02*
X33446015Y-28617674D01*
X33446015Y-28617674D02*
X33455539Y-28579579D01*
X33455539Y-28579579D02*
X33465063Y-28560531D01*
X33465063Y-28560531D02*
X33474586Y-28551008D01*
X33474586Y-28551008D02*
X33493634Y-28541484D01*
X33646015Y-28722436D02*
X33655539Y-28731960D01*
X33655539Y-28731960D02*
X33646015Y-28741484D01*
X33646015Y-28741484D02*
X33636491Y-28731960D01*
X33636491Y-28731960D02*
X33646015Y-28722436D01*
X33646015Y-28722436D02*
X33646015Y-28741484D01*
X33779348Y-28541484D02*
X33798396Y-28541484D01*
X33798396Y-28541484D02*
X33817444Y-28551008D01*
X33817444Y-28551008D02*
X33826968Y-28560531D01*
X33826968Y-28560531D02*
X33836491Y-28579579D01*
X33836491Y-28579579D02*
X33846015Y-28617674D01*
X33846015Y-28617674D02*
X33846015Y-28665293D01*
X33846015Y-28665293D02*
X33836491Y-28703388D01*
X33836491Y-28703388D02*
X33826968Y-28722436D01*
X33826968Y-28722436D02*
X33817444Y-28731960D01*
X33817444Y-28731960D02*
X33798396Y-28741484D01*
X33798396Y-28741484D02*
X33779348Y-28741484D01*
X33779348Y-28741484D02*
X33760301Y-28731960D01*
X33760301Y-28731960D02*
X33750777Y-28722436D01*
X33750777Y-28722436D02*
X33741253Y-28703388D01*
X33741253Y-28703388D02*
X33731729Y-28665293D01*
X33731729Y-28665293D02*
X33731729Y-28617674D01*
X33731729Y-28617674D02*
X33741253Y-28579579D01*
X33741253Y-28579579D02*
X33750777Y-28560531D01*
X33750777Y-28560531D02*
X33760301Y-28551008D01*
X33760301Y-28551008D02*
X33779348Y-28541484D01*
X34017444Y-28541484D02*
X33979348Y-28541484D01*
X33979348Y-28541484D02*
X33960301Y-28551008D01*
X33960301Y-28551008D02*
X33950777Y-28560531D01*
X33950777Y-28560531D02*
X33931729Y-28589103D01*
X33931729Y-28589103D02*
X33922206Y-28627198D01*
X33922206Y-28627198D02*
X33922206Y-28703388D01*
X33922206Y-28703388D02*
X33931729Y-28722436D01*
X33931729Y-28722436D02*
X33941253Y-28731960D01*
X33941253Y-28731960D02*
X33960301Y-28741484D01*
X33960301Y-28741484D02*
X33998396Y-28741484D01*
X33998396Y-28741484D02*
X34017444Y-28731960D01*
X34017444Y-28731960D02*
X34026968Y-28722436D01*
X34026968Y-28722436D02*
X34036491Y-28703388D01*
X34036491Y-28703388D02*
X34036491Y-28655769D01*
X34036491Y-28655769D02*
X34026968Y-28636722D01*
X34026968Y-28636722D02*
X34017444Y-28627198D01*
X34017444Y-28627198D02*
X33998396Y-28617674D01*
X33998396Y-28617674D02*
X33960301Y-28617674D01*
X33960301Y-28617674D02*
X33941253Y-28627198D01*
X33941253Y-28627198D02*
X33931729Y-28636722D01*
X33931729Y-28636722D02*
X33922206Y-28655769D01*
X34103158Y-28541484D02*
X34226968Y-28541484D01*
X34226968Y-28541484D02*
X34160301Y-28617674D01*
X34160301Y-28617674D02*
X34188872Y-28617674D01*
X34188872Y-28617674D02*
X34207920Y-28627198D01*
X34207920Y-28627198D02*
X34217444Y-28636722D01*
X34217444Y-28636722D02*
X34226968Y-28655769D01*
X34226968Y-28655769D02*
X34226968Y-28703388D01*
X34226968Y-28703388D02*
X34217444Y-28722436D01*
X34217444Y-28722436D02*
X34207920Y-28731960D01*
X34207920Y-28731960D02*
X34188872Y-28741484D01*
X34188872Y-28741484D02*
X34131729Y-28741484D01*
X34131729Y-28741484D02*
X34112682Y-28731960D01*
X34112682Y-28731960D02*
X34103158Y-28722436D01*
X34350777Y-28541484D02*
X34369825Y-28541484D01*
X34369825Y-28541484D02*
X34388872Y-28551008D01*
X34388872Y-28551008D02*
X34398396Y-28560531D01*
X34398396Y-28560531D02*
X34407920Y-28579579D01*
X34407920Y-28579579D02*
X34417444Y-28617674D01*
X34417444Y-28617674D02*
X34417444Y-28665293D01*
X34417444Y-28665293D02*
X34407920Y-28703388D01*
X34407920Y-28703388D02*
X34398396Y-28722436D01*
X34398396Y-28722436D02*
X34388872Y-28731960D01*
X34388872Y-28731960D02*
X34369825Y-28741484D01*
X34369825Y-28741484D02*
X34350777Y-28741484D01*
X34350777Y-28741484D02*
X34331729Y-28731960D01*
X34331729Y-28731960D02*
X34322206Y-28722436D01*
X34322206Y-28722436D02*
X34312682Y-28703388D01*
X34312682Y-28703388D02*
X34303158Y-28665293D01*
X34303158Y-28665293D02*
X34303158Y-28617674D01*
X34303158Y-28617674D02*
X34312682Y-28579579D01*
X34312682Y-28579579D02*
X34322206Y-28560531D01*
X34322206Y-28560531D02*
X34331729Y-28551008D01*
X34331729Y-28551008D02*
X34350777Y-28541484D01*
X34493634Y-28541484D02*
X34493634Y-28579579D01*
X34569825Y-28541484D02*
X34569825Y-28579579D01*
X34865063Y-28817674D02*
X34855539Y-28808150D01*
X34855539Y-28808150D02*
X34836491Y-28779579D01*
X34836491Y-28779579D02*
X34826968Y-28760531D01*
X34826968Y-28760531D02*
X34817444Y-28731960D01*
X34817444Y-28731960D02*
X34807920Y-28684341D01*
X34807920Y-28684341D02*
X34807920Y-28646246D01*
X34807920Y-28646246D02*
X34817444Y-28598627D01*
X34817444Y-28598627D02*
X34826968Y-28570055D01*
X34826968Y-28570055D02*
X34836491Y-28551008D01*
X34836491Y-28551008D02*
X34855539Y-28522436D01*
X34855539Y-28522436D02*
X34865063Y-28512912D01*
X35046015Y-28741484D02*
X34931730Y-28741484D01*
X34988872Y-28741484D02*
X34988872Y-28541484D01*
X34988872Y-28541484D02*
X34969825Y-28570055D01*
X34969825Y-28570055D02*
X34950777Y-28589103D01*
X34950777Y-28589103D02*
X34931730Y-28598627D01*
X35284111Y-28741484D02*
X35284111Y-28541484D01*
X35369825Y-28741484D02*
X35369825Y-28636722D01*
X35369825Y-28636722D02*
X35360301Y-28617674D01*
X35360301Y-28617674D02*
X35341253Y-28608150D01*
X35341253Y-28608150D02*
X35312682Y-28608150D01*
X35312682Y-28608150D02*
X35293634Y-28617674D01*
X35293634Y-28617674D02*
X35284111Y-28627198D01*
X35493634Y-28741484D02*
X35474587Y-28731960D01*
X35474587Y-28731960D02*
X35465063Y-28722436D01*
X35465063Y-28722436D02*
X35455539Y-28703388D01*
X35455539Y-28703388D02*
X35455539Y-28646246D01*
X35455539Y-28646246D02*
X35465063Y-28627198D01*
X35465063Y-28627198D02*
X35474587Y-28617674D01*
X35474587Y-28617674D02*
X35493634Y-28608150D01*
X35493634Y-28608150D02*
X35522206Y-28608150D01*
X35522206Y-28608150D02*
X35541253Y-28617674D01*
X35541253Y-28617674D02*
X35550777Y-28627198D01*
X35550777Y-28627198D02*
X35560301Y-28646246D01*
X35560301Y-28646246D02*
X35560301Y-28703388D01*
X35560301Y-28703388D02*
X35550777Y-28722436D01*
X35550777Y-28722436D02*
X35541253Y-28731960D01*
X35541253Y-28731960D02*
X35522206Y-28741484D01*
X35522206Y-28741484D02*
X35493634Y-28741484D01*
X35674587Y-28741484D02*
X35655539Y-28731960D01*
X35655539Y-28731960D02*
X35646015Y-28712912D01*
X35646015Y-28712912D02*
X35646015Y-28541484D01*
X35826968Y-28731960D02*
X35807920Y-28741484D01*
X35807920Y-28741484D02*
X35769825Y-28741484D01*
X35769825Y-28741484D02*
X35750777Y-28731960D01*
X35750777Y-28731960D02*
X35741253Y-28712912D01*
X35741253Y-28712912D02*
X35741253Y-28636722D01*
X35741253Y-28636722D02*
X35750777Y-28617674D01*
X35750777Y-28617674D02*
X35769825Y-28608150D01*
X35769825Y-28608150D02*
X35807920Y-28608150D01*
X35807920Y-28608150D02*
X35826968Y-28617674D01*
X35826968Y-28617674D02*
X35836492Y-28636722D01*
X35836492Y-28636722D02*
X35836492Y-28655769D01*
X35836492Y-28655769D02*
X35741253Y-28674817D01*
X35903158Y-28817674D02*
X35912682Y-28808150D01*
X35912682Y-28808150D02*
X35931730Y-28779579D01*
X35931730Y-28779579D02*
X35941253Y-28760531D01*
X35941253Y-28760531D02*
X35950777Y-28731960D01*
X35950777Y-28731960D02*
X35960301Y-28684341D01*
X35960301Y-28684341D02*
X35960301Y-28646246D01*
X35960301Y-28646246D02*
X35950777Y-28598627D01*
X35950777Y-28598627D02*
X35941253Y-28570055D01*
X35941253Y-28570055D02*
X35931730Y-28551008D01*
X35931730Y-28551008D02*
X35912682Y-28522436D01*
X35912682Y-28522436D02*
X35903158Y-28512912D01*
X36265063Y-28817674D02*
X36255539Y-28808150D01*
X36255539Y-28808150D02*
X36236492Y-28779579D01*
X36236492Y-28779579D02*
X36226968Y-28760531D01*
X36226968Y-28760531D02*
X36217444Y-28731960D01*
X36217444Y-28731960D02*
X36207920Y-28684341D01*
X36207920Y-28684341D02*
X36207920Y-28646246D01*
X36207920Y-28646246D02*
X36217444Y-28598627D01*
X36217444Y-28598627D02*
X36226968Y-28570055D01*
X36226968Y-28570055D02*
X36236492Y-28551008D01*
X36236492Y-28551008D02*
X36255539Y-28522436D01*
X36255539Y-28522436D02*
X36265063Y-28512912D01*
X36341253Y-28608150D02*
X36341253Y-28741484D01*
X36341253Y-28627198D02*
X36350777Y-28617674D01*
X36350777Y-28617674D02*
X36369825Y-28608150D01*
X36369825Y-28608150D02*
X36398396Y-28608150D01*
X36398396Y-28608150D02*
X36417444Y-28617674D01*
X36417444Y-28617674D02*
X36426968Y-28636722D01*
X36426968Y-28636722D02*
X36426968Y-28741484D01*
X36550777Y-28741484D02*
X36531730Y-28731960D01*
X36531730Y-28731960D02*
X36522206Y-28722436D01*
X36522206Y-28722436D02*
X36512682Y-28703388D01*
X36512682Y-28703388D02*
X36512682Y-28646246D01*
X36512682Y-28646246D02*
X36522206Y-28627198D01*
X36522206Y-28627198D02*
X36531730Y-28617674D01*
X36531730Y-28617674D02*
X36550777Y-28608150D01*
X36550777Y-28608150D02*
X36579349Y-28608150D01*
X36579349Y-28608150D02*
X36598396Y-28617674D01*
X36598396Y-28617674D02*
X36607920Y-28627198D01*
X36607920Y-28627198D02*
X36617444Y-28646246D01*
X36617444Y-28646246D02*
X36617444Y-28703388D01*
X36617444Y-28703388D02*
X36607920Y-28722436D01*
X36607920Y-28722436D02*
X36598396Y-28731960D01*
X36598396Y-28731960D02*
X36579349Y-28741484D01*
X36579349Y-28741484D02*
X36550777Y-28741484D01*
X36674587Y-28608150D02*
X36750777Y-28608150D01*
X36703158Y-28541484D02*
X36703158Y-28712912D01*
X36703158Y-28712912D02*
X36712682Y-28731960D01*
X36712682Y-28731960D02*
X36731730Y-28741484D01*
X36731730Y-28741484D02*
X36750777Y-28741484D01*
X36969825Y-28608150D02*
X36969825Y-28808150D01*
X36969825Y-28617674D02*
X36988873Y-28608150D01*
X36988873Y-28608150D02*
X37026968Y-28608150D01*
X37026968Y-28608150D02*
X37046015Y-28617674D01*
X37046015Y-28617674D02*
X37055539Y-28627198D01*
X37055539Y-28627198D02*
X37065063Y-28646246D01*
X37065063Y-28646246D02*
X37065063Y-28703388D01*
X37065063Y-28703388D02*
X37055539Y-28722436D01*
X37055539Y-28722436D02*
X37046015Y-28731960D01*
X37046015Y-28731960D02*
X37026968Y-28741484D01*
X37026968Y-28741484D02*
X36988873Y-28741484D01*
X36988873Y-28741484D02*
X36969825Y-28731960D01*
X37179349Y-28741484D02*
X37160301Y-28731960D01*
X37160301Y-28731960D02*
X37150777Y-28712912D01*
X37150777Y-28712912D02*
X37150777Y-28541484D01*
X37341254Y-28741484D02*
X37341254Y-28636722D01*
X37341254Y-28636722D02*
X37331730Y-28617674D01*
X37331730Y-28617674D02*
X37312682Y-28608150D01*
X37312682Y-28608150D02*
X37274587Y-28608150D01*
X37274587Y-28608150D02*
X37255539Y-28617674D01*
X37341254Y-28731960D02*
X37322206Y-28741484D01*
X37322206Y-28741484D02*
X37274587Y-28741484D01*
X37274587Y-28741484D02*
X37255539Y-28731960D01*
X37255539Y-28731960D02*
X37246015Y-28712912D01*
X37246015Y-28712912D02*
X37246015Y-28693865D01*
X37246015Y-28693865D02*
X37255539Y-28674817D01*
X37255539Y-28674817D02*
X37274587Y-28665293D01*
X37274587Y-28665293D02*
X37322206Y-28665293D01*
X37322206Y-28665293D02*
X37341254Y-28655769D01*
X37407920Y-28608150D02*
X37484111Y-28608150D01*
X37436492Y-28541484D02*
X37436492Y-28712912D01*
X37436492Y-28712912D02*
X37446015Y-28731960D01*
X37446015Y-28731960D02*
X37465063Y-28741484D01*
X37465063Y-28741484D02*
X37484111Y-28741484D01*
X37626968Y-28731960D02*
X37607920Y-28741484D01*
X37607920Y-28741484D02*
X37569825Y-28741484D01*
X37569825Y-28741484D02*
X37550777Y-28731960D01*
X37550777Y-28731960D02*
X37541254Y-28712912D01*
X37541254Y-28712912D02*
X37541254Y-28636722D01*
X37541254Y-28636722D02*
X37550777Y-28617674D01*
X37550777Y-28617674D02*
X37569825Y-28608150D01*
X37569825Y-28608150D02*
X37607920Y-28608150D01*
X37607920Y-28608150D02*
X37626968Y-28617674D01*
X37626968Y-28617674D02*
X37636492Y-28636722D01*
X37636492Y-28636722D02*
X37636492Y-28655769D01*
X37636492Y-28655769D02*
X37541254Y-28674817D01*
X37807920Y-28741484D02*
X37807920Y-28541484D01*
X37807920Y-28731960D02*
X37788873Y-28741484D01*
X37788873Y-28741484D02*
X37750777Y-28741484D01*
X37750777Y-28741484D02*
X37731730Y-28731960D01*
X37731730Y-28731960D02*
X37722206Y-28722436D01*
X37722206Y-28722436D02*
X37712682Y-28703388D01*
X37712682Y-28703388D02*
X37712682Y-28646246D01*
X37712682Y-28646246D02*
X37722206Y-28627198D01*
X37722206Y-28627198D02*
X37731730Y-28617674D01*
X37731730Y-28617674D02*
X37750777Y-28608150D01*
X37750777Y-28608150D02*
X37788873Y-28608150D01*
X37788873Y-28608150D02*
X37807920Y-28617674D01*
X37884111Y-28817674D02*
X37893635Y-28808150D01*
X37893635Y-28808150D02*
X37912682Y-28779579D01*
X37912682Y-28779579D02*
X37922206Y-28760531D01*
X37922206Y-28760531D02*
X37931730Y-28731960D01*
X37931730Y-28731960D02*
X37941254Y-28684341D01*
X37941254Y-28684341D02*
X37941254Y-28646246D01*
X37941254Y-28646246D02*
X37931730Y-28598627D01*
X37931730Y-28598627D02*
X37922206Y-28570055D01*
X37922206Y-28570055D02*
X37912682Y-28551008D01*
X37912682Y-28551008D02*
X37893635Y-28522436D01*
X37893635Y-28522436D02*
X37884111Y-28512912D01*
M02*
