G04 #@! TF.GenerationSoftware,KiCad,Pcbnew,8.0.7*
G04 #@! TF.CreationDate,2025-03-27T18:08:51-05:00*
G04 #@! TF.ProjectId,Chess_board2,43686573-735f-4626-9f61-7264322e6b69,rev?*
G04 #@! TF.SameCoordinates,Original*
G04 #@! TF.FileFunction,Copper,L1,Top*
G04 #@! TF.FilePolarity,Positive*
%FSLAX46Y46*%
G04 Gerber Fmt 4.6, Leading zero omitted, Abs format (unit mm)*
G04 Created by KiCad (PCBNEW 8.0.7) date 2025-03-27 18:08:51*
%MOMM*%
%LPD*%
G01*
G04 APERTURE LIST*
G04 Aperture macros list*
%AMRoundRect*
0 Rectangle with rounded corners*
0 $1 Rounding radius*
0 $2 $3 $4 $5 $6 $7 $8 $9 X,Y pos of 4 corners*
0 Add a 4 corners polygon primitive as box body*
4,1,4,$2,$3,$4,$5,$6,$7,$8,$9,$2,$3,0*
0 Add four circle primitives for the rounded corners*
1,1,$1+$1,$2,$3*
1,1,$1+$1,$4,$5*
1,1,$1+$1,$6,$7*
1,1,$1+$1,$8,$9*
0 Add four rect primitives between the rounded corners*
20,1,$1+$1,$2,$3,$4,$5,0*
20,1,$1+$1,$4,$5,$6,$7,0*
20,1,$1+$1,$6,$7,$8,$9,0*
20,1,$1+$1,$8,$9,$2,$3,0*%
G04 Aperture macros list end*
G04 #@! TA.AperFunction,SMDPad,CuDef*
%ADD10R,1.500000X1.000000*%
G04 #@! TD*
G04 #@! TA.AperFunction,ComponentPad*
%ADD11RoundRect,0.250000X-1.150000X0.980000X-1.150000X-0.980000X1.150000X-0.980000X1.150000X0.980000X0*%
G04 #@! TD*
G04 #@! TA.AperFunction,ComponentPad*
%ADD12O,2.800000X2.460000*%
G04 #@! TD*
G04 #@! TA.AperFunction,SMDPad,CuDef*
%ADD13RoundRect,0.150000X-0.587500X-0.150000X0.587500X-0.150000X0.587500X0.150000X-0.587500X0.150000X0*%
G04 #@! TD*
G04 #@! TA.AperFunction,SMDPad,CuDef*
%ADD14RoundRect,0.250000X-0.262500X-0.450000X0.262500X-0.450000X0.262500X0.450000X-0.262500X0.450000X0*%
G04 #@! TD*
G04 #@! TA.AperFunction,ComponentPad*
%ADD15R,1.600000X1.600000*%
G04 #@! TD*
G04 #@! TA.AperFunction,ComponentPad*
%ADD16O,1.600000X1.600000*%
G04 #@! TD*
G04 #@! TA.AperFunction,ViaPad*
%ADD17C,1.000000*%
G04 #@! TD*
G04 #@! TA.AperFunction,ViaPad*
%ADD18C,0.600000*%
G04 #@! TD*
G04 #@! TA.AperFunction,ViaPad*
%ADD19C,0.500000*%
G04 #@! TD*
G04 #@! TA.AperFunction,Conductor*
%ADD20C,2.000000*%
G04 #@! TD*
G04 #@! TA.AperFunction,Conductor*
%ADD21C,1.000000*%
G04 #@! TD*
G04 #@! TA.AperFunction,Conductor*
%ADD22C,0.200000*%
G04 #@! TD*
G04 APERTURE END LIST*
D10*
G04 #@! TO.P,D21,1,VSS*
G04 #@! TO.N,GND*
X433550000Y-127400000D03*
G04 #@! TO.P,D21,2,DIN*
G04 #@! TO.N,Net-(D20-DO)*
X433550000Y-130600000D03*
G04 #@! TO.P,D21,3,VDD*
G04 #@! TO.N,+5V*
X438450000Y-130600000D03*
G04 #@! TO.P,D21,4,DO*
G04 #@! TO.N,Net-(D21-DO)*
X438450000Y-127400000D03*
G04 #@! TD*
G04 #@! TO.P,D42,1,VSS*
G04 #@! TO.N,GND*
X349550000Y-211400000D03*
G04 #@! TO.P,D42,2,DIN*
G04 #@! TO.N,Net-(D41-DO)*
X349550000Y-214600000D03*
G04 #@! TO.P,D42,3,VDD*
G04 #@! TO.N,+5V*
X354450000Y-214600000D03*
G04 #@! TO.P,D42,4,DO*
G04 #@! TO.N,Net-(D42-DO)*
X354450000Y-211400000D03*
G04 #@! TD*
G04 #@! TO.P,D56,1,VSS*
G04 #@! TO.N,GND*
X517550000Y-239400000D03*
G04 #@! TO.P,D56,2,DIN*
G04 #@! TO.N,Net-(D55-DO)*
X517550000Y-242600000D03*
G04 #@! TO.P,D56,3,VDD*
G04 #@! TO.N,+5V*
X522450000Y-242600000D03*
G04 #@! TO.P,D56,4,DO*
G04 #@! TO.N,Net-(D56-DO)*
X522450000Y-239400000D03*
G04 #@! TD*
G04 #@! TO.P,D43,1,VSS*
G04 #@! TO.N,GND*
X377550000Y-211400000D03*
G04 #@! TO.P,D43,2,DIN*
G04 #@! TO.N,Net-(D42-DO)*
X377550000Y-214600000D03*
G04 #@! TO.P,D43,3,VDD*
G04 #@! TO.N,+5V*
X382450000Y-214600000D03*
G04 #@! TO.P,D43,4,DO*
G04 #@! TO.N,Net-(D43-DO)*
X382450000Y-211400000D03*
G04 #@! TD*
D11*
G04 #@! TO.P,J1,1,Pin_1*
G04 #@! TO.N,+5V*
X512050000Y-113020000D03*
D12*
G04 #@! TO.P,J1,2,Pin_2*
G04 #@! TO.N,GND*
X512050000Y-116980000D03*
G04 #@! TD*
D13*
G04 #@! TO.P,U12,1,VCC*
G04 #@! TO.N,Net-(U12-VCC)*
X407125000Y-95550000D03*
G04 #@! TO.P,U12,2,OUTPUT*
G04 #@! TO.N,Net-(A1-D7)*
X407125000Y-97450000D03*
G04 #@! TO.P,U12,3,GND*
G04 #@! TO.N,GND*
X409000000Y-96500000D03*
G04 #@! TD*
D10*
G04 #@! TO.P,D34,1,VSS*
G04 #@! TO.N,GND*
X349550000Y-183400000D03*
G04 #@! TO.P,D34,2,DIN*
G04 #@! TO.N,Net-(D33-DO)*
X349550000Y-186600000D03*
G04 #@! TO.P,D34,3,VDD*
G04 #@! TO.N,+5V*
X354450000Y-186600000D03*
G04 #@! TO.P,D34,4,DO*
G04 #@! TO.N,Net-(D34-DO)*
X354450000Y-183400000D03*
G04 #@! TD*
G04 #@! TO.P,D9,1,VSS*
G04 #@! TO.N,GND*
X321550000Y-99400000D03*
G04 #@! TO.P,D9,2,DIN*
G04 #@! TO.N,Net-(D8-DO)*
X321550000Y-102600000D03*
G04 #@! TO.P,D9,3,VDD*
G04 #@! TO.N,+5V*
X326450000Y-102600000D03*
G04 #@! TO.P,D9,4,DO*
G04 #@! TO.N,Net-(D10-DIN)*
X326450000Y-99400000D03*
G04 #@! TD*
D14*
G04 #@! TO.P,R7,1*
G04 #@! TO.N,Net-(A1-D12{slash}CIPO)*
X409587500Y-246000000D03*
G04 #@! TO.P,R7,2*
G04 #@! TO.N,+5V*
X411412500Y-246000000D03*
G04 #@! TD*
D10*
G04 #@! TO.P,D45,1,VSS*
G04 #@! TO.N,GND*
X433550000Y-211400000D03*
G04 #@! TO.P,D45,2,DIN*
G04 #@! TO.N,Net-(D44-DO)*
X433550000Y-214600000D03*
G04 #@! TO.P,D45,3,VDD*
G04 #@! TO.N,+5V*
X438450000Y-214600000D03*
G04 #@! TO.P,D45,4,DO*
G04 #@! TO.N,Net-(D45-DO)*
X438450000Y-211400000D03*
G04 #@! TD*
D13*
G04 #@! TO.P,U11,1,VCC*
G04 #@! TO.N,Net-(U11-VCC)*
X379125000Y-95550000D03*
G04 #@! TO.P,U11,2,OUTPUT*
G04 #@! TO.N,Net-(A1-D7)*
X379125000Y-97450000D03*
G04 #@! TO.P,U11,3,GND*
G04 #@! TO.N,GND*
X381000000Y-96500000D03*
G04 #@! TD*
D10*
G04 #@! TO.P,D1,1,VSS*
G04 #@! TO.N,GND*
X321550000Y-71400000D03*
G04 #@! TO.P,D1,2,DIN*
G04 #@! TO.N,Net-(A1-D5)*
X321550000Y-74600000D03*
G04 #@! TO.P,D1,3,VDD*
G04 #@! TO.N,+5V*
X326450000Y-74600000D03*
G04 #@! TO.P,D1,4,DO*
G04 #@! TO.N,Net-(D1-DO)*
X326450000Y-71400000D03*
G04 #@! TD*
D13*
G04 #@! TO.P,U64,1,VCC*
G04 #@! TO.N,Net-(U16-VCC)*
X519125000Y-263550000D03*
G04 #@! TO.P,U64,2,OUTPUT*
G04 #@! TO.N,Net-(A1-D13{slash}SCK)*
X519125000Y-265450000D03*
G04 #@! TO.P,U64,3,GND*
G04 #@! TO.N,GND*
X521000000Y-264500000D03*
G04 #@! TD*
D10*
G04 #@! TO.P,D32,1,VSS*
G04 #@! TO.N,GND*
X517550000Y-155400000D03*
G04 #@! TO.P,D32,2,DIN*
G04 #@! TO.N,Net-(D31-DO)*
X517550000Y-158600000D03*
G04 #@! TO.P,D32,3,VDD*
G04 #@! TO.N,+5V*
X522450000Y-158600000D03*
G04 #@! TO.P,D32,4,DO*
G04 #@! TO.N,Net-(D32-DO)*
X522450000Y-155400000D03*
G04 #@! TD*
D13*
G04 #@! TO.P,U26,1,VCC*
G04 #@! TO.N,Net-(U10-VCC)*
X351125000Y-151550000D03*
G04 #@! TO.P,U26,2,OUTPUT*
G04 #@! TO.N,Net-(A1-D9)*
X351125000Y-153450000D03*
G04 #@! TO.P,U26,3,GND*
G04 #@! TO.N,GND*
X353000000Y-152500000D03*
G04 #@! TD*
G04 #@! TO.P,U51,1,VCC*
G04 #@! TO.N,Net-(U11-VCC)*
X379125000Y-235550000D03*
G04 #@! TO.P,U51,2,OUTPUT*
G04 #@! TO.N,Net-(A1-D12{slash}CIPO)*
X379125000Y-237450000D03*
G04 #@! TO.P,U51,3,GND*
G04 #@! TO.N,GND*
X381000000Y-236500000D03*
G04 #@! TD*
D10*
G04 #@! TO.P,D3,1,VSS*
G04 #@! TO.N,GND*
X377550000Y-71400000D03*
G04 #@! TO.P,D3,2,DIN*
G04 #@! TO.N,Net-(D2-DO)*
X377550000Y-74600000D03*
G04 #@! TO.P,D3,3,VDD*
G04 #@! TO.N,+5V*
X382450000Y-74600000D03*
G04 #@! TO.P,D3,4,DO*
G04 #@! TO.N,Net-(D3-DO)*
X382450000Y-71400000D03*
G04 #@! TD*
G04 #@! TO.P,D24,1,VSS*
G04 #@! TO.N,GND*
X517550000Y-127400000D03*
G04 #@! TO.P,D24,2,DIN*
G04 #@! TO.N,Net-(D23-DO)*
X517550000Y-130600000D03*
G04 #@! TO.P,D24,3,VDD*
G04 #@! TO.N,+5V*
X522450000Y-130600000D03*
G04 #@! TO.P,D24,4,DO*
G04 #@! TO.N,Net-(D24-DO)*
X522450000Y-127400000D03*
G04 #@! TD*
G04 #@! TO.P,D46,1,VSS*
G04 #@! TO.N,GND*
X461550000Y-211400000D03*
G04 #@! TO.P,D46,2,DIN*
G04 #@! TO.N,Net-(D45-DO)*
X461550000Y-214600000D03*
G04 #@! TO.P,D46,3,VDD*
G04 #@! TO.N,+5V*
X466450000Y-214600000D03*
G04 #@! TO.P,D46,4,DO*
G04 #@! TO.N,Net-(D46-DO)*
X466450000Y-211400000D03*
G04 #@! TD*
G04 #@! TO.P,D61,1,VSS*
G04 #@! TO.N,GND*
X433550000Y-267400000D03*
G04 #@! TO.P,D61,2,DIN*
G04 #@! TO.N,Net-(D60-DO)*
X433550000Y-270600000D03*
G04 #@! TO.P,D61,3,VDD*
G04 #@! TO.N,+5V*
X438450000Y-270600000D03*
G04 #@! TO.P,D61,4,DO*
G04 #@! TO.N,Net-(D61-DO)*
X438450000Y-267400000D03*
G04 #@! TD*
D13*
G04 #@! TO.P,U48,1,VCC*
G04 #@! TO.N,Net-(U16-VCC)*
X519125000Y-207550000D03*
G04 #@! TO.P,U48,2,OUTPUT*
G04 #@! TO.N,Net-(A1-D11{slash}COPI)*
X519125000Y-209450000D03*
G04 #@! TO.P,U48,3,GND*
G04 #@! TO.N,GND*
X521000000Y-208500000D03*
G04 #@! TD*
G04 #@! TO.P,U45,1,VCC*
G04 #@! TO.N,Net-(U13-VCC)*
X435125000Y-207550000D03*
G04 #@! TO.P,U45,2,OUTPUT*
G04 #@! TO.N,Net-(A1-D11{slash}COPI)*
X435125000Y-209450000D03*
G04 #@! TO.P,U45,3,GND*
G04 #@! TO.N,GND*
X437000000Y-208500000D03*
G04 #@! TD*
D10*
G04 #@! TO.P,D55,1,VSS*
G04 #@! TO.N,GND*
X489550000Y-239400000D03*
G04 #@! TO.P,D55,2,DIN*
G04 #@! TO.N,Net-(D54-DO)*
X489550000Y-242600000D03*
G04 #@! TO.P,D55,3,VDD*
G04 #@! TO.N,+5V*
X494450000Y-242600000D03*
G04 #@! TO.P,D55,4,DO*
G04 #@! TO.N,Net-(D55-DO)*
X494450000Y-239400000D03*
G04 #@! TD*
D13*
G04 #@! TO.P,U62,1,VCC*
G04 #@! TO.N,Net-(U14-VCC)*
X463125000Y-263550000D03*
G04 #@! TO.P,U62,2,OUTPUT*
G04 #@! TO.N,Net-(A1-D13{slash}SCK)*
X463125000Y-265450000D03*
G04 #@! TO.P,U62,3,GND*
G04 #@! TO.N,GND*
X465000000Y-264500000D03*
G04 #@! TD*
G04 #@! TO.P,U16,1,VCC*
G04 #@! TO.N,Net-(U16-VCC)*
X519125000Y-95550000D03*
G04 #@! TO.P,U16,2,OUTPUT*
G04 #@! TO.N,Net-(A1-D7)*
X519125000Y-97450000D03*
G04 #@! TO.P,U16,3,GND*
G04 #@! TO.N,GND*
X521000000Y-96500000D03*
G04 #@! TD*
D14*
G04 #@! TO.P,R6,1*
G04 #@! TO.N,Net-(A1-D11{slash}COPI)*
X412587500Y-208500000D03*
G04 #@! TO.P,R6,2*
G04 #@! TO.N,+5V*
X414412500Y-208500000D03*
G04 #@! TD*
D10*
G04 #@! TO.P,D30,1,VSS*
G04 #@! TO.N,GND*
X461550000Y-155400000D03*
G04 #@! TO.P,D30,2,DIN*
G04 #@! TO.N,Net-(D29-DO)*
X461550000Y-158600000D03*
G04 #@! TO.P,D30,3,VDD*
G04 #@! TO.N,+5V*
X466450000Y-158600000D03*
G04 #@! TO.P,D30,4,DO*
G04 #@! TO.N,Net-(D30-DO)*
X466450000Y-155400000D03*
G04 #@! TD*
G04 #@! TO.P,D26,1,VSS*
G04 #@! TO.N,GND*
X349550000Y-155400000D03*
G04 #@! TO.P,D26,2,DIN*
G04 #@! TO.N,Net-(D25-DO)*
X349550000Y-158600000D03*
G04 #@! TO.P,D26,3,VDD*
G04 #@! TO.N,+5V*
X354450000Y-158600000D03*
G04 #@! TO.P,D26,4,DO*
G04 #@! TO.N,Net-(D26-DO)*
X354450000Y-155400000D03*
G04 #@! TD*
G04 #@! TO.P,D50,1,VSS*
G04 #@! TO.N,GND*
X349550000Y-239400000D03*
G04 #@! TO.P,D50,2,DIN*
G04 #@! TO.N,Net-(D49-DO)*
X349550000Y-242600000D03*
G04 #@! TO.P,D50,3,VDD*
G04 #@! TO.N,+5V*
X354450000Y-242600000D03*
G04 #@! TO.P,D50,4,DO*
G04 #@! TO.N,Net-(D50-DO)*
X354450000Y-239400000D03*
G04 #@! TD*
D14*
G04 #@! TO.P,R8,1*
G04 #@! TO.N,Net-(A1-D13{slash}SCK)*
X412587500Y-263500000D03*
G04 #@! TO.P,R8,2*
G04 #@! TO.N,+5V*
X414412500Y-263500000D03*
G04 #@! TD*
D10*
G04 #@! TO.P,D16,1,VSS*
G04 #@! TO.N,GND*
X517550000Y-99400000D03*
G04 #@! TO.P,D16,2,DIN*
G04 #@! TO.N,Net-(D15-DO)*
X517550000Y-102600000D03*
G04 #@! TO.P,D16,3,VDD*
G04 #@! TO.N,+5V*
X522450000Y-102600000D03*
G04 #@! TO.P,D16,4,DO*
G04 #@! TO.N,Net-(D16-DO)*
X522450000Y-99400000D03*
G04 #@! TD*
D13*
G04 #@! TO.P,U29,1,VCC*
G04 #@! TO.N,Net-(U13-VCC)*
X435125000Y-151550000D03*
G04 #@! TO.P,U29,2,OUTPUT*
G04 #@! TO.N,Net-(A1-D9)*
X435125000Y-153450000D03*
G04 #@! TO.P,U29,3,GND*
G04 #@! TO.N,GND*
X437000000Y-152500000D03*
G04 #@! TD*
G04 #@! TO.P,U22,1,VCC*
G04 #@! TO.N,Net-(U14-VCC)*
X463125000Y-123550000D03*
G04 #@! TO.P,U22,2,OUTPUT*
G04 #@! TO.N,Net-(A1-D8)*
X463125000Y-125450000D03*
G04 #@! TO.P,U22,3,GND*
G04 #@! TO.N,GND*
X465000000Y-124500000D03*
G04 #@! TD*
G04 #@! TO.P,U42,1,VCC*
G04 #@! TO.N,Net-(U10-VCC)*
X351125000Y-207550000D03*
G04 #@! TO.P,U42,2,OUTPUT*
G04 #@! TO.N,Net-(A1-D11{slash}COPI)*
X351125000Y-209450000D03*
G04 #@! TO.P,U42,3,GND*
G04 #@! TO.N,GND*
X353000000Y-208500000D03*
G04 #@! TD*
D10*
G04 #@! TO.P,D17,1,VSS*
G04 #@! TO.N,GND*
X321550000Y-127400000D03*
G04 #@! TO.P,D17,2,DIN*
G04 #@! TO.N,Net-(D16-DO)*
X321550000Y-130600000D03*
G04 #@! TO.P,D17,3,VDD*
G04 #@! TO.N,+5V*
X326450000Y-130600000D03*
G04 #@! TO.P,D17,4,DO*
G04 #@! TO.N,Net-(D17-DO)*
X326450000Y-127400000D03*
G04 #@! TD*
D13*
G04 #@! TO.P,U50,1,VCC*
G04 #@! TO.N,Net-(U10-VCC)*
X351125000Y-235550000D03*
G04 #@! TO.P,U50,2,OUTPUT*
G04 #@! TO.N,Net-(A1-D12{slash}CIPO)*
X351125000Y-237450000D03*
G04 #@! TO.P,U50,3,GND*
G04 #@! TO.N,GND*
X353000000Y-236500000D03*
G04 #@! TD*
D10*
G04 #@! TO.P,D14,1,VSS*
G04 #@! TO.N,GND*
X461550000Y-99400000D03*
G04 #@! TO.P,D14,2,DIN*
G04 #@! TO.N,Net-(D13-DO)*
X461550000Y-102600000D03*
G04 #@! TO.P,D14,3,VDD*
G04 #@! TO.N,+5V*
X466450000Y-102600000D03*
G04 #@! TO.P,D14,4,DO*
G04 #@! TO.N,Net-(D14-DO)*
X466450000Y-99400000D03*
G04 #@! TD*
G04 #@! TO.P,D5,1,VSS*
G04 #@! TO.N,GND*
X433550000Y-71400000D03*
G04 #@! TO.P,D5,2,DIN*
G04 #@! TO.N,Net-(D4-DO)*
X433550000Y-74600000D03*
G04 #@! TO.P,D5,3,VDD*
G04 #@! TO.N,+5V*
X438450000Y-74600000D03*
G04 #@! TO.P,D5,4,DO*
G04 #@! TO.N,Net-(D5-DO)*
X438450000Y-71400000D03*
G04 #@! TD*
G04 #@! TO.P,D27,1,VSS*
G04 #@! TO.N,GND*
X377550000Y-155400000D03*
G04 #@! TO.P,D27,2,DIN*
G04 #@! TO.N,Net-(D26-DO)*
X377550000Y-158600000D03*
G04 #@! TO.P,D27,3,VDD*
G04 #@! TO.N,+5V*
X382450000Y-158600000D03*
G04 #@! TO.P,D27,4,DO*
G04 #@! TO.N,Net-(D27-DO)*
X382450000Y-155400000D03*
G04 #@! TD*
D13*
G04 #@! TO.P,U24,1,VCC*
G04 #@! TO.N,Net-(U16-VCC)*
X519125000Y-123550000D03*
G04 #@! TO.P,U24,2,OUTPUT*
G04 #@! TO.N,Net-(A1-D8)*
X519125000Y-125450000D03*
G04 #@! TO.P,U24,3,GND*
G04 #@! TO.N,GND*
X521000000Y-124500000D03*
G04 #@! TD*
G04 #@! TO.P,U28,1,VCC*
G04 #@! TO.N,Net-(U12-VCC)*
X407125000Y-151550000D03*
G04 #@! TO.P,U28,2,OUTPUT*
G04 #@! TO.N,Net-(A1-D9)*
X407125000Y-153450000D03*
G04 #@! TO.P,U28,3,GND*
G04 #@! TO.N,GND*
X409000000Y-152500000D03*
G04 #@! TD*
D10*
G04 #@! TO.P,D18,1,VSS*
G04 #@! TO.N,GND*
X349550000Y-127400000D03*
G04 #@! TO.P,D18,2,DIN*
G04 #@! TO.N,Net-(D17-DO)*
X349550000Y-130600000D03*
G04 #@! TO.P,D18,3,VDD*
G04 #@! TO.N,+5V*
X354450000Y-130600000D03*
G04 #@! TO.P,D18,4,DO*
G04 #@! TO.N,Net-(D18-DO)*
X354450000Y-127400000D03*
G04 #@! TD*
G04 #@! TO.P,D49,1,VSS*
G04 #@! TO.N,GND*
X321550000Y-239400000D03*
G04 #@! TO.P,D49,2,DIN*
G04 #@! TO.N,Net-(D48-DO)*
X321550000Y-242600000D03*
G04 #@! TO.P,D49,3,VDD*
G04 #@! TO.N,+5V*
X326450000Y-242600000D03*
G04 #@! TO.P,D49,4,DO*
G04 #@! TO.N,Net-(D49-DO)*
X326450000Y-239400000D03*
G04 #@! TD*
G04 #@! TO.P,D31,1,VSS*
G04 #@! TO.N,GND*
X489550000Y-155400000D03*
G04 #@! TO.P,D31,2,DIN*
G04 #@! TO.N,Net-(D30-DO)*
X489550000Y-158600000D03*
G04 #@! TO.P,D31,3,VDD*
G04 #@! TO.N,+5V*
X494450000Y-158600000D03*
G04 #@! TO.P,D31,4,DO*
G04 #@! TO.N,Net-(D31-DO)*
X494450000Y-155400000D03*
G04 #@! TD*
D13*
G04 #@! TO.P,U21,1,VCC*
G04 #@! TO.N,Net-(U13-VCC)*
X435125000Y-123550000D03*
G04 #@! TO.P,U21,2,OUTPUT*
G04 #@! TO.N,Net-(A1-D8)*
X435125000Y-125450000D03*
G04 #@! TO.P,U21,3,GND*
G04 #@! TO.N,GND*
X437000000Y-124500000D03*
G04 #@! TD*
G04 #@! TO.P,U23,1,VCC*
G04 #@! TO.N,Net-(U15-VCC)*
X491125000Y-123550000D03*
G04 #@! TO.P,U23,2,OUTPUT*
G04 #@! TO.N,Net-(A1-D8)*
X491125000Y-125450000D03*
G04 #@! TO.P,U23,3,GND*
G04 #@! TO.N,GND*
X493000000Y-124500000D03*
G04 #@! TD*
G04 #@! TO.P,U31,1,VCC*
G04 #@! TO.N,Net-(U15-VCC)*
X491125000Y-151550000D03*
G04 #@! TO.P,U31,2,OUTPUT*
G04 #@! TO.N,Net-(A1-D9)*
X491125000Y-153450000D03*
G04 #@! TO.P,U31,3,GND*
G04 #@! TO.N,GND*
X493000000Y-152500000D03*
G04 #@! TD*
G04 #@! TO.P,U10,1,VCC*
G04 #@! TO.N,Net-(U10-VCC)*
X351125000Y-95550000D03*
G04 #@! TO.P,U10,2,OUTPUT*
G04 #@! TO.N,Net-(A1-D7)*
X351125000Y-97450000D03*
G04 #@! TO.P,U10,3,GND*
G04 #@! TO.N,GND*
X353000000Y-96500000D03*
G04 #@! TD*
D14*
G04 #@! TO.P,R1,1*
G04 #@! TO.N,Net-(A1-D6)*
X409587500Y-77500000D03*
G04 #@! TO.P,R1,2*
G04 #@! TO.N,+5V*
X411412500Y-77500000D03*
G04 #@! TD*
D10*
G04 #@! TO.P,D15,1,VSS*
G04 #@! TO.N,GND*
X489550000Y-99400000D03*
G04 #@! TO.P,D15,2,DIN*
G04 #@! TO.N,Net-(D14-DO)*
X489550000Y-102600000D03*
G04 #@! TO.P,D15,3,VDD*
G04 #@! TO.N,+5V*
X494450000Y-102600000D03*
G04 #@! TO.P,D15,4,DO*
G04 #@! TO.N,Net-(D15-DO)*
X494450000Y-99400000D03*
G04 #@! TD*
D13*
G04 #@! TO.P,U20,1,VCC*
G04 #@! TO.N,Net-(U12-VCC)*
X407125000Y-123550000D03*
G04 #@! TO.P,U20,2,OUTPUT*
G04 #@! TO.N,Net-(A1-D8)*
X407125000Y-125450000D03*
G04 #@! TO.P,U20,3,GND*
G04 #@! TO.N,GND*
X409000000Y-124500000D03*
G04 #@! TD*
D10*
G04 #@! TO.P,D54,1,VSS*
G04 #@! TO.N,GND*
X461550000Y-239400000D03*
G04 #@! TO.P,D54,2,DIN*
G04 #@! TO.N,Net-(D53-DO)*
X461550000Y-242600000D03*
G04 #@! TO.P,D54,3,VDD*
G04 #@! TO.N,+5V*
X466450000Y-242600000D03*
G04 #@! TO.P,D54,4,DO*
G04 #@! TO.N,Net-(D54-DO)*
X466450000Y-239400000D03*
G04 #@! TD*
D13*
G04 #@! TO.P,U34,1,VCC*
G04 #@! TO.N,Net-(U10-VCC)*
X351125000Y-179550000D03*
G04 #@! TO.P,U34,2,OUTPUT*
G04 #@! TO.N,Net-(A1-D10{slash}CS)*
X351125000Y-181450000D03*
G04 #@! TO.P,U34,3,GND*
G04 #@! TO.N,GND*
X353000000Y-180500000D03*
G04 #@! TD*
G04 #@! TO.P,U38,1,VCC*
G04 #@! TO.N,Net-(U14-VCC)*
X463125000Y-179550000D03*
G04 #@! TO.P,U38,2,OUTPUT*
G04 #@! TO.N,Net-(A1-D10{slash}CS)*
X463125000Y-181450000D03*
G04 #@! TO.P,U38,3,GND*
G04 #@! TO.N,GND*
X465000000Y-180500000D03*
G04 #@! TD*
G04 #@! TO.P,U55,1,VCC*
G04 #@! TO.N,Net-(U15-VCC)*
X491125000Y-235550000D03*
G04 #@! TO.P,U55,2,OUTPUT*
G04 #@! TO.N,Net-(A1-D12{slash}CIPO)*
X491125000Y-237450000D03*
G04 #@! TO.P,U55,3,GND*
G04 #@! TO.N,GND*
X493000000Y-236500000D03*
G04 #@! TD*
D10*
G04 #@! TO.P,D37,1,VSS*
G04 #@! TO.N,GND*
X433550000Y-183400000D03*
G04 #@! TO.P,D37,2,DIN*
G04 #@! TO.N,Net-(D36-DO)*
X433550000Y-186600000D03*
G04 #@! TO.P,D37,3,VDD*
G04 #@! TO.N,+5V*
X438450000Y-186600000D03*
G04 #@! TO.P,D37,4,DO*
G04 #@! TO.N,Net-(D37-DO)*
X438450000Y-183400000D03*
G04 #@! TD*
D13*
G04 #@! TO.P,U4,1,VCC*
G04 #@! TO.N,Net-(U12-VCC)*
X407125000Y-67550000D03*
G04 #@! TO.P,U4,2,OUTPUT*
G04 #@! TO.N,Net-(A1-D6)*
X407125000Y-69450000D03*
G04 #@! TO.P,U4,3,GND*
G04 #@! TO.N,GND*
X409000000Y-68500000D03*
G04 #@! TD*
D10*
G04 #@! TO.P,D48,1,VSS*
G04 #@! TO.N,GND*
X517550000Y-211400000D03*
G04 #@! TO.P,D48,2,DIN*
G04 #@! TO.N,Net-(D47-DO)*
X517550000Y-214600000D03*
G04 #@! TO.P,D48,3,VDD*
G04 #@! TO.N,+5V*
X522450000Y-214600000D03*
G04 #@! TO.P,D48,4,DO*
G04 #@! TO.N,Net-(D48-DO)*
X522450000Y-211400000D03*
G04 #@! TD*
D13*
G04 #@! TO.P,U36,1,VCC*
G04 #@! TO.N,Net-(U12-VCC)*
X407125000Y-179550000D03*
G04 #@! TO.P,U36,2,OUTPUT*
G04 #@! TO.N,Net-(A1-D10{slash}CS)*
X407125000Y-181450000D03*
G04 #@! TO.P,U36,3,GND*
G04 #@! TO.N,GND*
X409000000Y-180500000D03*
G04 #@! TD*
G04 #@! TO.P,U49,1,VCC*
G04 #@! TO.N,Net-(U1-VCC)*
X323125000Y-235550000D03*
G04 #@! TO.P,U49,2,OUTPUT*
G04 #@! TO.N,Net-(A1-D12{slash}CIPO)*
X323125000Y-237450000D03*
G04 #@! TO.P,U49,3,GND*
G04 #@! TO.N,GND*
X325000000Y-236500000D03*
G04 #@! TD*
G04 #@! TO.P,U14,1,VCC*
G04 #@! TO.N,Net-(U14-VCC)*
X463125000Y-95550000D03*
G04 #@! TO.P,U14,2,OUTPUT*
G04 #@! TO.N,Net-(A1-D7)*
X463125000Y-97450000D03*
G04 #@! TO.P,U14,3,GND*
G04 #@! TO.N,GND*
X465000000Y-96500000D03*
G04 #@! TD*
G04 #@! TO.P,U35,1,VCC*
G04 #@! TO.N,Net-(U11-VCC)*
X379125000Y-179550000D03*
G04 #@! TO.P,U35,2,OUTPUT*
G04 #@! TO.N,Net-(A1-D10{slash}CS)*
X379125000Y-181450000D03*
G04 #@! TO.P,U35,3,GND*
G04 #@! TO.N,GND*
X381000000Y-180500000D03*
G04 #@! TD*
G04 #@! TO.P,U39,1,VCC*
G04 #@! TO.N,Net-(U15-VCC)*
X491125000Y-179550000D03*
G04 #@! TO.P,U39,2,OUTPUT*
G04 #@! TO.N,Net-(A1-D10{slash}CS)*
X491125000Y-181450000D03*
G04 #@! TO.P,U39,3,GND*
G04 #@! TO.N,GND*
X493000000Y-180500000D03*
G04 #@! TD*
G04 #@! TO.P,U60,1,VCC*
G04 #@! TO.N,Net-(U12-VCC)*
X407125000Y-263550000D03*
G04 #@! TO.P,U60,2,OUTPUT*
G04 #@! TO.N,Net-(A1-D13{slash}SCK)*
X407125000Y-265450000D03*
G04 #@! TO.P,U60,3,GND*
G04 #@! TO.N,GND*
X409000000Y-264500000D03*
G04 #@! TD*
G04 #@! TO.P,U57,1,VCC*
G04 #@! TO.N,Net-(U1-VCC)*
X323125000Y-263550000D03*
G04 #@! TO.P,U57,2,OUTPUT*
G04 #@! TO.N,Net-(A1-D13{slash}SCK)*
X323125000Y-265450000D03*
G04 #@! TO.P,U57,3,GND*
G04 #@! TO.N,GND*
X325000000Y-264500000D03*
G04 #@! TD*
D10*
G04 #@! TO.P,D8,1,VSS*
G04 #@! TO.N,GND*
X517550000Y-71400000D03*
G04 #@! TO.P,D8,2,DIN*
G04 #@! TO.N,Net-(D7-DO)*
X517550000Y-74600000D03*
G04 #@! TO.P,D8,3,VDD*
G04 #@! TO.N,+5V*
X522450000Y-74600000D03*
G04 #@! TO.P,D8,4,DO*
G04 #@! TO.N,Net-(D8-DO)*
X522450000Y-71400000D03*
G04 #@! TD*
G04 #@! TO.P,D12,1,VSS*
G04 #@! TO.N,GND*
X405550000Y-99400000D03*
G04 #@! TO.P,D12,2,DIN*
G04 #@! TO.N,Net-(D11-DO)*
X405550000Y-102600000D03*
G04 #@! TO.P,D12,3,VDD*
G04 #@! TO.N,+5V*
X410450000Y-102600000D03*
G04 #@! TO.P,D12,4,DO*
G04 #@! TO.N,Net-(D12-DO)*
X410450000Y-99400000D03*
G04 #@! TD*
D14*
G04 #@! TO.P,R2,1*
G04 #@! TO.N,Net-(A1-D7)*
X412675000Y-96000000D03*
G04 #@! TO.P,R2,2*
G04 #@! TO.N,+5V*
X414500000Y-96000000D03*
G04 #@! TD*
D13*
G04 #@! TO.P,U56,1,VCC*
G04 #@! TO.N,Net-(U16-VCC)*
X519125000Y-235550000D03*
G04 #@! TO.P,U56,2,OUTPUT*
G04 #@! TO.N,Net-(A1-D12{slash}CIPO)*
X519125000Y-237450000D03*
G04 #@! TO.P,U56,3,GND*
G04 #@! TO.N,GND*
X521000000Y-236500000D03*
G04 #@! TD*
D10*
G04 #@! TO.P,D60,1,VSS*
G04 #@! TO.N,GND*
X405550000Y-267400000D03*
G04 #@! TO.P,D60,2,DIN*
G04 #@! TO.N,Net-(D59-DO)*
X405550000Y-270600000D03*
G04 #@! TO.P,D60,3,VDD*
G04 #@! TO.N,+5V*
X410450000Y-270600000D03*
G04 #@! TO.P,D60,4,DO*
G04 #@! TO.N,Net-(D60-DO)*
X410450000Y-267400000D03*
G04 #@! TD*
D14*
G04 #@! TO.P,R4,1*
G04 #@! TO.N,Net-(A1-D9)*
X412175000Y-152000000D03*
G04 #@! TO.P,R4,2*
G04 #@! TO.N,+5V*
X414000000Y-152000000D03*
G04 #@! TD*
D13*
G04 #@! TO.P,U44,1,VCC*
G04 #@! TO.N,Net-(U12-VCC)*
X407125000Y-207550000D03*
G04 #@! TO.P,U44,2,OUTPUT*
G04 #@! TO.N,Net-(A1-D11{slash}COPI)*
X407125000Y-209450000D03*
G04 #@! TO.P,U44,3,GND*
G04 #@! TO.N,GND*
X409000000Y-208500000D03*
G04 #@! TD*
G04 #@! TO.P,U30,1,VCC*
G04 #@! TO.N,Net-(U14-VCC)*
X463125000Y-151550000D03*
G04 #@! TO.P,U30,2,OUTPUT*
G04 #@! TO.N,Net-(A1-D9)*
X463125000Y-153450000D03*
G04 #@! TO.P,U30,3,GND*
G04 #@! TO.N,GND*
X465000000Y-152500000D03*
G04 #@! TD*
G04 #@! TO.P,U27,1,VCC*
G04 #@! TO.N,Net-(U11-VCC)*
X379125000Y-151550000D03*
G04 #@! TO.P,U27,2,OUTPUT*
G04 #@! TO.N,Net-(A1-D9)*
X379125000Y-153450000D03*
G04 #@! TO.P,U27,3,GND*
G04 #@! TO.N,GND*
X381000000Y-152500000D03*
G04 #@! TD*
G04 #@! TO.P,U8,1,VCC*
G04 #@! TO.N,Net-(U16-VCC)*
X519125000Y-67550000D03*
G04 #@! TO.P,U8,2,OUTPUT*
G04 #@! TO.N,Net-(A1-D6)*
X519125000Y-69450000D03*
G04 #@! TO.P,U8,3,GND*
G04 #@! TO.N,GND*
X521000000Y-68500000D03*
G04 #@! TD*
D10*
G04 #@! TO.P,D6,1,VSS*
G04 #@! TO.N,GND*
X461550000Y-71400000D03*
G04 #@! TO.P,D6,2,DIN*
G04 #@! TO.N,Net-(D5-DO)*
X461550000Y-74600000D03*
G04 #@! TO.P,D6,3,VDD*
G04 #@! TO.N,+5V*
X466450000Y-74600000D03*
G04 #@! TO.P,D6,4,DO*
G04 #@! TO.N,Net-(D6-DO)*
X466450000Y-71400000D03*
G04 #@! TD*
D13*
G04 #@! TO.P,U25,1,VCC*
G04 #@! TO.N,Net-(U1-VCC)*
X323125000Y-151550000D03*
G04 #@! TO.P,U25,2,OUTPUT*
G04 #@! TO.N,Net-(A1-D9)*
X323125000Y-153450000D03*
G04 #@! TO.P,U25,3,GND*
G04 #@! TO.N,GND*
X325000000Y-152500000D03*
G04 #@! TD*
D10*
G04 #@! TO.P,D40,1,VSS*
G04 #@! TO.N,GND*
X517550000Y-183400000D03*
G04 #@! TO.P,D40,2,DIN*
G04 #@! TO.N,Net-(D39-DO)*
X517550000Y-186600000D03*
G04 #@! TO.P,D40,3,VDD*
G04 #@! TO.N,+5V*
X522450000Y-186600000D03*
G04 #@! TO.P,D40,4,DO*
G04 #@! TO.N,Net-(D40-DO)*
X522450000Y-183400000D03*
G04 #@! TD*
G04 #@! TO.P,D35,1,VSS*
G04 #@! TO.N,GND*
X377550000Y-183400000D03*
G04 #@! TO.P,D35,2,DIN*
G04 #@! TO.N,Net-(D34-DO)*
X377550000Y-186600000D03*
G04 #@! TO.P,D35,3,VDD*
G04 #@! TO.N,+5V*
X382450000Y-186600000D03*
G04 #@! TO.P,D35,4,DO*
G04 #@! TO.N,Net-(D35-DO)*
X382450000Y-183400000D03*
G04 #@! TD*
G04 #@! TO.P,D52,1,VSS*
G04 #@! TO.N,GND*
X405550000Y-239400000D03*
G04 #@! TO.P,D52,2,DIN*
G04 #@! TO.N,Net-(D51-DO)*
X405550000Y-242600000D03*
G04 #@! TO.P,D52,3,VDD*
G04 #@! TO.N,+5V*
X410450000Y-242600000D03*
G04 #@! TO.P,D52,4,DO*
G04 #@! TO.N,Net-(D52-DO)*
X410450000Y-239400000D03*
G04 #@! TD*
G04 #@! TO.P,D20,1,VSS*
G04 #@! TO.N,GND*
X405550000Y-127400000D03*
G04 #@! TO.P,D20,2,DIN*
G04 #@! TO.N,Net-(D19-DO)*
X405550000Y-130600000D03*
G04 #@! TO.P,D20,3,VDD*
G04 #@! TO.N,+5V*
X410450000Y-130600000D03*
G04 #@! TO.P,D20,4,DO*
G04 #@! TO.N,Net-(D20-DO)*
X410450000Y-127400000D03*
G04 #@! TD*
G04 #@! TO.P,D23,1,VSS*
G04 #@! TO.N,GND*
X489550000Y-127400000D03*
G04 #@! TO.P,D23,2,DIN*
G04 #@! TO.N,Net-(D22-DO)*
X489550000Y-130600000D03*
G04 #@! TO.P,D23,3,VDD*
G04 #@! TO.N,+5V*
X494450000Y-130600000D03*
G04 #@! TO.P,D23,4,DO*
G04 #@! TO.N,Net-(D23-DO)*
X494450000Y-127400000D03*
G04 #@! TD*
G04 #@! TO.P,D25,1,VSS*
G04 #@! TO.N,GND*
X321550000Y-155400000D03*
G04 #@! TO.P,D25,2,DIN*
G04 #@! TO.N,Net-(D24-DO)*
X321550000Y-158600000D03*
G04 #@! TO.P,D25,3,VDD*
G04 #@! TO.N,+5V*
X326450000Y-158600000D03*
G04 #@! TO.P,D25,4,DO*
G04 #@! TO.N,Net-(D25-DO)*
X326450000Y-155400000D03*
G04 #@! TD*
D13*
G04 #@! TO.P,U19,1,VCC*
G04 #@! TO.N,Net-(U11-VCC)*
X379125000Y-123550000D03*
G04 #@! TO.P,U19,2,OUTPUT*
G04 #@! TO.N,Net-(A1-D8)*
X379125000Y-125450000D03*
G04 #@! TO.P,U19,3,GND*
G04 #@! TO.N,GND*
X381000000Y-124500000D03*
G04 #@! TD*
D10*
G04 #@! TO.P,D36,1,VSS*
G04 #@! TO.N,GND*
X405550000Y-183400000D03*
G04 #@! TO.P,D36,2,DIN*
G04 #@! TO.N,Net-(D35-DO)*
X405550000Y-186600000D03*
G04 #@! TO.P,D36,3,VDD*
G04 #@! TO.N,+5V*
X410450000Y-186600000D03*
G04 #@! TO.P,D36,4,DO*
G04 #@! TO.N,Net-(D36-DO)*
X410450000Y-183400000D03*
G04 #@! TD*
G04 #@! TO.P,D2,1,VSS*
G04 #@! TO.N,GND*
X349550000Y-71400000D03*
G04 #@! TO.P,D2,2,DIN*
G04 #@! TO.N,Net-(D1-DO)*
X349550000Y-74600000D03*
G04 #@! TO.P,D2,3,VDD*
G04 #@! TO.N,+5V*
X354450000Y-74600000D03*
G04 #@! TO.P,D2,4,DO*
G04 #@! TO.N,Net-(D2-DO)*
X354450000Y-71400000D03*
G04 #@! TD*
G04 #@! TO.P,D64,1,VSS*
G04 #@! TO.N,GND*
X517550000Y-267400000D03*
G04 #@! TO.P,D64,2,DIN*
G04 #@! TO.N,Net-(D63-DO)*
X517550000Y-270600000D03*
G04 #@! TO.P,D64,3,VDD*
G04 #@! TO.N,+5V*
X522450000Y-270600000D03*
G04 #@! TO.P,D64,4,DO*
G04 #@! TO.N,unconnected-(D64-DO-Pad4)*
X522450000Y-267400000D03*
G04 #@! TD*
D13*
G04 #@! TO.P,U32,1,VCC*
G04 #@! TO.N,Net-(U16-VCC)*
X519125000Y-151550000D03*
G04 #@! TO.P,U32,2,OUTPUT*
G04 #@! TO.N,Net-(A1-D9)*
X519125000Y-153450000D03*
G04 #@! TO.P,U32,3,GND*
G04 #@! TO.N,GND*
X521000000Y-152500000D03*
G04 #@! TD*
G04 #@! TO.P,U46,1,VCC*
G04 #@! TO.N,Net-(U14-VCC)*
X463125000Y-207550000D03*
G04 #@! TO.P,U46,2,OUTPUT*
G04 #@! TO.N,Net-(A1-D11{slash}COPI)*
X463125000Y-209450000D03*
G04 #@! TO.P,U46,3,GND*
G04 #@! TO.N,GND*
X465000000Y-208500000D03*
G04 #@! TD*
D10*
G04 #@! TO.P,D63,1,VSS*
G04 #@! TO.N,GND*
X489550000Y-267400000D03*
G04 #@! TO.P,D63,2,DIN*
G04 #@! TO.N,Net-(D62-DO)*
X489550000Y-270600000D03*
G04 #@! TO.P,D63,3,VDD*
G04 #@! TO.N,+5V*
X494450000Y-270600000D03*
G04 #@! TO.P,D63,4,DO*
G04 #@! TO.N,Net-(D63-DO)*
X494450000Y-267400000D03*
G04 #@! TD*
D14*
G04 #@! TO.P,R3,1*
G04 #@! TO.N,Net-(A1-D8)*
X408500000Y-133500000D03*
G04 #@! TO.P,R3,2*
G04 #@! TO.N,+5V*
X410325000Y-133500000D03*
G04 #@! TD*
D13*
G04 #@! TO.P,U2,1,VCC*
G04 #@! TO.N,Net-(U10-VCC)*
X351125000Y-67550000D03*
G04 #@! TO.P,U2,2,OUTPUT*
G04 #@! TO.N,Net-(A1-D6)*
X351125000Y-69450000D03*
G04 #@! TO.P,U2,3,GND*
G04 #@! TO.N,GND*
X353000000Y-68500000D03*
G04 #@! TD*
D14*
G04 #@! TO.P,R5,1*
G04 #@! TO.N,Net-(A1-D10{slash}CS)*
X409087500Y-189500000D03*
G04 #@! TO.P,R5,2*
G04 #@! TO.N,+5V*
X410912500Y-189500000D03*
G04 #@! TD*
D10*
G04 #@! TO.P,D47,1,VSS*
G04 #@! TO.N,GND*
X489550000Y-211400000D03*
G04 #@! TO.P,D47,2,DIN*
G04 #@! TO.N,Net-(D46-DO)*
X489550000Y-214600000D03*
G04 #@! TO.P,D47,3,VDD*
G04 #@! TO.N,+5V*
X494450000Y-214600000D03*
G04 #@! TO.P,D47,4,DO*
G04 #@! TO.N,Net-(D47-DO)*
X494450000Y-211400000D03*
G04 #@! TD*
G04 #@! TO.P,D28,1,VSS*
G04 #@! TO.N,GND*
X405550000Y-155400000D03*
G04 #@! TO.P,D28,2,DIN*
G04 #@! TO.N,Net-(D27-DO)*
X405550000Y-158600000D03*
G04 #@! TO.P,D28,3,VDD*
G04 #@! TO.N,+5V*
X410450000Y-158600000D03*
G04 #@! TO.P,D28,4,DO*
G04 #@! TO.N,Net-(D28-DO)*
X410450000Y-155400000D03*
G04 #@! TD*
D13*
G04 #@! TO.P,U9,1,VCC*
G04 #@! TO.N,Net-(U1-VCC)*
X323125000Y-95550000D03*
G04 #@! TO.P,U9,2,OUTPUT*
G04 #@! TO.N,Net-(A1-D7)*
X323125000Y-97450000D03*
G04 #@! TO.P,U9,3,GND*
G04 #@! TO.N,GND*
X325000000Y-96500000D03*
G04 #@! TD*
D10*
G04 #@! TO.P,D41,1,VSS*
G04 #@! TO.N,GND*
X321550000Y-211400000D03*
G04 #@! TO.P,D41,2,DIN*
G04 #@! TO.N,Net-(D40-DO)*
X321550000Y-214600000D03*
G04 #@! TO.P,D41,3,VDD*
G04 #@! TO.N,+5V*
X326450000Y-214600000D03*
G04 #@! TO.P,D41,4,DO*
G04 #@! TO.N,Net-(D41-DO)*
X326450000Y-211400000D03*
G04 #@! TD*
G04 #@! TO.P,D44,1,VSS*
G04 #@! TO.N,GND*
X405550000Y-211400000D03*
G04 #@! TO.P,D44,2,DIN*
G04 #@! TO.N,Net-(D43-DO)*
X405550000Y-214600000D03*
G04 #@! TO.P,D44,3,VDD*
G04 #@! TO.N,+5V*
X410450000Y-214600000D03*
G04 #@! TO.P,D44,4,DO*
G04 #@! TO.N,Net-(D44-DO)*
X410450000Y-211400000D03*
G04 #@! TD*
D13*
G04 #@! TO.P,U17,1,VCC*
G04 #@! TO.N,Net-(U1-VCC)*
X323125000Y-123550000D03*
G04 #@! TO.P,U17,2,OUTPUT*
G04 #@! TO.N,Net-(A1-D8)*
X323125000Y-125450000D03*
G04 #@! TO.P,U17,3,GND*
G04 #@! TO.N,GND*
X325000000Y-124500000D03*
G04 #@! TD*
D10*
G04 #@! TO.P,D19,1,VSS*
G04 #@! TO.N,GND*
X377550000Y-127400000D03*
G04 #@! TO.P,D19,2,DIN*
G04 #@! TO.N,Net-(D18-DO)*
X377550000Y-130600000D03*
G04 #@! TO.P,D19,3,VDD*
G04 #@! TO.N,+5V*
X382450000Y-130600000D03*
G04 #@! TO.P,D19,4,DO*
G04 #@! TO.N,Net-(D19-DO)*
X382450000Y-127400000D03*
G04 #@! TD*
G04 #@! TO.P,D38,1,VSS*
G04 #@! TO.N,GND*
X461550000Y-183400000D03*
G04 #@! TO.P,D38,2,DIN*
G04 #@! TO.N,Net-(D37-DO)*
X461550000Y-186600000D03*
G04 #@! TO.P,D38,3,VDD*
G04 #@! TO.N,+5V*
X466450000Y-186600000D03*
G04 #@! TO.P,D38,4,DO*
G04 #@! TO.N,Net-(D38-DO)*
X466450000Y-183400000D03*
G04 #@! TD*
G04 #@! TO.P,D62,1,VSS*
G04 #@! TO.N,GND*
X461550000Y-267400000D03*
G04 #@! TO.P,D62,2,DIN*
G04 #@! TO.N,Net-(D61-DO)*
X461550000Y-270600000D03*
G04 #@! TO.P,D62,3,VDD*
G04 #@! TO.N,+5V*
X466450000Y-270600000D03*
G04 #@! TO.P,D62,4,DO*
G04 #@! TO.N,Net-(D62-DO)*
X466450000Y-267400000D03*
G04 #@! TD*
D13*
G04 #@! TO.P,U40,1,VCC*
G04 #@! TO.N,Net-(U16-VCC)*
X519125000Y-179550000D03*
G04 #@! TO.P,U40,2,OUTPUT*
G04 #@! TO.N,Net-(A1-D10{slash}CS)*
X519125000Y-181450000D03*
G04 #@! TO.P,U40,3,GND*
G04 #@! TO.N,GND*
X521000000Y-180500000D03*
G04 #@! TD*
D10*
G04 #@! TO.P,D10,1,VSS*
G04 #@! TO.N,GND*
X349550000Y-99400000D03*
G04 #@! TO.P,D10,2,DIN*
G04 #@! TO.N,Net-(D10-DIN)*
X349550000Y-102600000D03*
G04 #@! TO.P,D10,3,VDD*
G04 #@! TO.N,+5V*
X354450000Y-102600000D03*
G04 #@! TO.P,D10,4,DO*
G04 #@! TO.N,Net-(D10-DO)*
X354450000Y-99400000D03*
G04 #@! TD*
G04 #@! TO.P,D58,1,VSS*
G04 #@! TO.N,GND*
X349550000Y-267400000D03*
G04 #@! TO.P,D58,2,DIN*
G04 #@! TO.N,Net-(D57-DO)*
X349550000Y-270600000D03*
G04 #@! TO.P,D58,3,VDD*
G04 #@! TO.N,+5V*
X354450000Y-270600000D03*
G04 #@! TO.P,D58,4,DO*
G04 #@! TO.N,Net-(D58-DO)*
X354450000Y-267400000D03*
G04 #@! TD*
G04 #@! TO.P,D57,1,VSS*
G04 #@! TO.N,GND*
X321550000Y-267400000D03*
G04 #@! TO.P,D57,2,DIN*
G04 #@! TO.N,Net-(D56-DO)*
X321550000Y-270600000D03*
G04 #@! TO.P,D57,3,VDD*
G04 #@! TO.N,+5V*
X326450000Y-270600000D03*
G04 #@! TO.P,D57,4,DO*
G04 #@! TO.N,Net-(D57-DO)*
X326450000Y-267400000D03*
G04 #@! TD*
D13*
G04 #@! TO.P,U3,1,VCC*
G04 #@! TO.N,Net-(U11-VCC)*
X379125000Y-67550000D03*
G04 #@! TO.P,U3,2,OUTPUT*
G04 #@! TO.N,Net-(A1-D6)*
X379125000Y-69450000D03*
G04 #@! TO.P,U3,3,GND*
G04 #@! TO.N,GND*
X381000000Y-68500000D03*
G04 #@! TD*
G04 #@! TO.P,U58,1,VCC*
G04 #@! TO.N,Net-(U10-VCC)*
X351125000Y-263550000D03*
G04 #@! TO.P,U58,2,OUTPUT*
G04 #@! TO.N,Net-(A1-D13{slash}SCK)*
X351125000Y-265450000D03*
G04 #@! TO.P,U58,3,GND*
G04 #@! TO.N,GND*
X353000000Y-264500000D03*
G04 #@! TD*
D10*
G04 #@! TO.P,D53,1,VSS*
G04 #@! TO.N,GND*
X433550000Y-239400000D03*
G04 #@! TO.P,D53,2,DIN*
G04 #@! TO.N,Net-(D52-DO)*
X433550000Y-242600000D03*
G04 #@! TO.P,D53,3,VDD*
G04 #@! TO.N,+5V*
X438450000Y-242600000D03*
G04 #@! TO.P,D53,4,DO*
G04 #@! TO.N,Net-(D53-DO)*
X438450000Y-239400000D03*
G04 #@! TD*
G04 #@! TO.P,D22,1,VSS*
G04 #@! TO.N,GND*
X461550000Y-127400000D03*
G04 #@! TO.P,D22,2,DIN*
G04 #@! TO.N,Net-(D21-DO)*
X461550000Y-130600000D03*
G04 #@! TO.P,D22,3,VDD*
G04 #@! TO.N,+5V*
X466450000Y-130600000D03*
G04 #@! TO.P,D22,4,DO*
G04 #@! TO.N,Net-(D22-DO)*
X466450000Y-127400000D03*
G04 #@! TD*
D13*
G04 #@! TO.P,U61,1,VCC*
G04 #@! TO.N,Net-(U13-VCC)*
X435125000Y-263550000D03*
G04 #@! TO.P,U61,2,OUTPUT*
G04 #@! TO.N,Net-(A1-D13{slash}SCK)*
X435125000Y-265450000D03*
G04 #@! TO.P,U61,3,GND*
G04 #@! TO.N,GND*
X437000000Y-264500000D03*
G04 #@! TD*
G04 #@! TO.P,U47,1,VCC*
G04 #@! TO.N,Net-(U15-VCC)*
X491125000Y-207550000D03*
G04 #@! TO.P,U47,2,OUTPUT*
G04 #@! TO.N,Net-(A1-D11{slash}COPI)*
X491125000Y-209450000D03*
G04 #@! TO.P,U47,3,GND*
G04 #@! TO.N,GND*
X493000000Y-208500000D03*
G04 #@! TD*
D10*
G04 #@! TO.P,D33,1,VSS*
G04 #@! TO.N,GND*
X321550000Y-183400000D03*
G04 #@! TO.P,D33,2,DIN*
G04 #@! TO.N,Net-(D32-DO)*
X321550000Y-186600000D03*
G04 #@! TO.P,D33,3,VDD*
G04 #@! TO.N,+5V*
X326450000Y-186600000D03*
G04 #@! TO.P,D33,4,DO*
G04 #@! TO.N,Net-(D33-DO)*
X326450000Y-183400000D03*
G04 #@! TD*
D13*
G04 #@! TO.P,U43,1,VCC*
G04 #@! TO.N,Net-(U11-VCC)*
X379125000Y-207550000D03*
G04 #@! TO.P,U43,2,OUTPUT*
G04 #@! TO.N,Net-(A1-D11{slash}COPI)*
X379125000Y-209450000D03*
G04 #@! TO.P,U43,3,GND*
G04 #@! TO.N,GND*
X381000000Y-208500000D03*
G04 #@! TD*
G04 #@! TO.P,U5,1,VCC*
G04 #@! TO.N,Net-(U13-VCC)*
X435125000Y-67550000D03*
G04 #@! TO.P,U5,2,OUTPUT*
G04 #@! TO.N,Net-(A1-D6)*
X435125000Y-69450000D03*
G04 #@! TO.P,U5,3,GND*
G04 #@! TO.N,GND*
X437000000Y-68500000D03*
G04 #@! TD*
G04 #@! TO.P,U1,1,VCC*
G04 #@! TO.N,Net-(U1-VCC)*
X323125000Y-67550000D03*
G04 #@! TO.P,U1,2,OUTPUT*
G04 #@! TO.N,Net-(A1-D6)*
X323125000Y-69450000D03*
G04 #@! TO.P,U1,3,GND*
G04 #@! TO.N,GND*
X325000000Y-68500000D03*
G04 #@! TD*
G04 #@! TO.P,U18,1,VCC*
G04 #@! TO.N,Net-(U10-VCC)*
X351125000Y-123550000D03*
G04 #@! TO.P,U18,2,OUTPUT*
G04 #@! TO.N,Net-(A1-D8)*
X351125000Y-125450000D03*
G04 #@! TO.P,U18,3,GND*
G04 #@! TO.N,GND*
X353000000Y-124500000D03*
G04 #@! TD*
G04 #@! TO.P,U63,1,VCC*
G04 #@! TO.N,Net-(U15-VCC)*
X491125000Y-263550000D03*
G04 #@! TO.P,U63,2,OUTPUT*
G04 #@! TO.N,Net-(A1-D13{slash}SCK)*
X491125000Y-265450000D03*
G04 #@! TO.P,U63,3,GND*
G04 #@! TO.N,GND*
X493000000Y-264500000D03*
G04 #@! TD*
D10*
G04 #@! TO.P,D7,1,VSS*
G04 #@! TO.N,GND*
X489550000Y-71400000D03*
G04 #@! TO.P,D7,2,DIN*
G04 #@! TO.N,Net-(D6-DO)*
X489550000Y-74600000D03*
G04 #@! TO.P,D7,3,VDD*
G04 #@! TO.N,+5V*
X494450000Y-74600000D03*
G04 #@! TO.P,D7,4,DO*
G04 #@! TO.N,Net-(D7-DO)*
X494450000Y-71400000D03*
G04 #@! TD*
D13*
G04 #@! TO.P,U52,1,VCC*
G04 #@! TO.N,Net-(U12-VCC)*
X407125000Y-235550000D03*
G04 #@! TO.P,U52,2,OUTPUT*
G04 #@! TO.N,Net-(A1-D12{slash}CIPO)*
X407125000Y-237450000D03*
G04 #@! TO.P,U52,3,GND*
G04 #@! TO.N,GND*
X409000000Y-236500000D03*
G04 #@! TD*
G04 #@! TO.P,U15,1,VCC*
G04 #@! TO.N,Net-(U15-VCC)*
X491125000Y-95550000D03*
G04 #@! TO.P,U15,2,OUTPUT*
G04 #@! TO.N,Net-(A1-D7)*
X491125000Y-97450000D03*
G04 #@! TO.P,U15,3,GND*
G04 #@! TO.N,GND*
X493000000Y-96500000D03*
G04 #@! TD*
G04 #@! TO.P,U37,1,VCC*
G04 #@! TO.N,Net-(U13-VCC)*
X435125000Y-179550000D03*
G04 #@! TO.P,U37,2,OUTPUT*
G04 #@! TO.N,Net-(A1-D10{slash}CS)*
X435125000Y-181450000D03*
G04 #@! TO.P,U37,3,GND*
G04 #@! TO.N,GND*
X437000000Y-180500000D03*
G04 #@! TD*
G04 #@! TO.P,U33,1,VCC*
G04 #@! TO.N,Net-(U1-VCC)*
X323125000Y-179550000D03*
G04 #@! TO.P,U33,2,OUTPUT*
G04 #@! TO.N,Net-(A1-D10{slash}CS)*
X323125000Y-181450000D03*
G04 #@! TO.P,U33,3,GND*
G04 #@! TO.N,GND*
X325000000Y-180500000D03*
G04 #@! TD*
D10*
G04 #@! TO.P,D13,1,VSS*
G04 #@! TO.N,GND*
X433550000Y-99400000D03*
G04 #@! TO.P,D13,2,DIN*
G04 #@! TO.N,Net-(D12-DO)*
X433550000Y-102600000D03*
G04 #@! TO.P,D13,3,VDD*
G04 #@! TO.N,+5V*
X438450000Y-102600000D03*
G04 #@! TO.P,D13,4,DO*
G04 #@! TO.N,Net-(D13-DO)*
X438450000Y-99400000D03*
G04 #@! TD*
G04 #@! TO.P,D11,1,VSS*
G04 #@! TO.N,GND*
X377550000Y-99400000D03*
G04 #@! TO.P,D11,2,DIN*
G04 #@! TO.N,Net-(D10-DO)*
X377550000Y-102600000D03*
G04 #@! TO.P,D11,3,VDD*
G04 #@! TO.N,+5V*
X382450000Y-102600000D03*
G04 #@! TO.P,D11,4,DO*
G04 #@! TO.N,Net-(D11-DO)*
X382450000Y-99400000D03*
G04 #@! TD*
G04 #@! TO.P,D59,1,VSS*
G04 #@! TO.N,GND*
X377550000Y-267400000D03*
G04 #@! TO.P,D59,2,DIN*
G04 #@! TO.N,Net-(D58-DO)*
X377550000Y-270600000D03*
G04 #@! TO.P,D59,3,VDD*
G04 #@! TO.N,+5V*
X382450000Y-270600000D03*
G04 #@! TO.P,D59,4,DO*
G04 #@! TO.N,Net-(D59-DO)*
X382450000Y-267400000D03*
G04 #@! TD*
G04 #@! TO.P,D4,1,VSS*
G04 #@! TO.N,GND*
X405550000Y-71400000D03*
G04 #@! TO.P,D4,2,DIN*
G04 #@! TO.N,Net-(D3-DO)*
X405550000Y-74600000D03*
G04 #@! TO.P,D4,3,VDD*
G04 #@! TO.N,+5V*
X410450000Y-74600000D03*
G04 #@! TO.P,D4,4,DO*
G04 #@! TO.N,Net-(D4-DO)*
X410450000Y-71400000D03*
G04 #@! TD*
D13*
G04 #@! TO.P,U7,1,VCC*
G04 #@! TO.N,Net-(U15-VCC)*
X491125000Y-67550000D03*
G04 #@! TO.P,U7,2,OUTPUT*
G04 #@! TO.N,Net-(A1-D6)*
X491125000Y-69450000D03*
G04 #@! TO.P,U7,3,GND*
G04 #@! TO.N,GND*
X493000000Y-68500000D03*
G04 #@! TD*
G04 #@! TO.P,U53,1,VCC*
G04 #@! TO.N,Net-(U13-VCC)*
X435125000Y-235550000D03*
G04 #@! TO.P,U53,2,OUTPUT*
G04 #@! TO.N,Net-(A1-D12{slash}CIPO)*
X435125000Y-237450000D03*
G04 #@! TO.P,U53,3,GND*
G04 #@! TO.N,GND*
X437000000Y-236500000D03*
G04 #@! TD*
G04 #@! TO.P,U6,1,VCC*
G04 #@! TO.N,Net-(U14-VCC)*
X463125000Y-67550000D03*
G04 #@! TO.P,U6,2,OUTPUT*
G04 #@! TO.N,Net-(A1-D6)*
X463125000Y-69450000D03*
G04 #@! TO.P,U6,3,GND*
G04 #@! TO.N,GND*
X465000000Y-68500000D03*
G04 #@! TD*
G04 #@! TO.P,U41,1,VCC*
G04 #@! TO.N,Net-(U1-VCC)*
X323125000Y-207550000D03*
G04 #@! TO.P,U41,2,OUTPUT*
G04 #@! TO.N,Net-(A1-D11{slash}COPI)*
X323125000Y-209450000D03*
G04 #@! TO.P,U41,3,GND*
G04 #@! TO.N,GND*
X325000000Y-208500000D03*
G04 #@! TD*
G04 #@! TO.P,U13,1,VCC*
G04 #@! TO.N,Net-(U13-VCC)*
X435125000Y-95550000D03*
G04 #@! TO.P,U13,2,OUTPUT*
G04 #@! TO.N,Net-(A1-D7)*
X435125000Y-97450000D03*
G04 #@! TO.P,U13,3,GND*
G04 #@! TO.N,GND*
X437000000Y-96500000D03*
G04 #@! TD*
G04 #@! TO.P,U54,1,VCC*
G04 #@! TO.N,Net-(U14-VCC)*
X463125000Y-235550000D03*
G04 #@! TO.P,U54,2,OUTPUT*
G04 #@! TO.N,Net-(A1-D12{slash}CIPO)*
X463125000Y-237450000D03*
G04 #@! TO.P,U54,3,GND*
G04 #@! TO.N,GND*
X465000000Y-236500000D03*
G04 #@! TD*
G04 #@! TO.P,U59,1,VCC*
G04 #@! TO.N,Net-(U11-VCC)*
X379125000Y-263550000D03*
G04 #@! TO.P,U59,2,OUTPUT*
G04 #@! TO.N,Net-(A1-D13{slash}SCK)*
X379125000Y-265450000D03*
G04 #@! TO.P,U59,3,GND*
G04 #@! TO.N,GND*
X381000000Y-264500000D03*
G04 #@! TD*
D10*
G04 #@! TO.P,D51,1,VSS*
G04 #@! TO.N,GND*
X377550000Y-239400000D03*
G04 #@! TO.P,D51,2,DIN*
G04 #@! TO.N,Net-(D50-DO)*
X377550000Y-242600000D03*
G04 #@! TO.P,D51,3,VDD*
G04 #@! TO.N,+5V*
X382450000Y-242600000D03*
G04 #@! TO.P,D51,4,DO*
G04 #@! TO.N,Net-(D51-DO)*
X382450000Y-239400000D03*
G04 #@! TD*
G04 #@! TO.P,D29,1,VSS*
G04 #@! TO.N,GND*
X433550000Y-155400000D03*
G04 #@! TO.P,D29,2,DIN*
G04 #@! TO.N,Net-(D28-DO)*
X433550000Y-158600000D03*
G04 #@! TO.P,D29,3,VDD*
G04 #@! TO.N,+5V*
X438450000Y-158600000D03*
G04 #@! TO.P,D29,4,DO*
G04 #@! TO.N,Net-(D29-DO)*
X438450000Y-155400000D03*
G04 #@! TD*
G04 #@! TO.P,D39,1,VSS*
G04 #@! TO.N,GND*
X489550000Y-183400000D03*
G04 #@! TO.P,D39,2,DIN*
G04 #@! TO.N,Net-(D38-DO)*
X489550000Y-186600000D03*
G04 #@! TO.P,D39,3,VDD*
G04 #@! TO.N,+5V*
X494450000Y-186600000D03*
G04 #@! TO.P,D39,4,DO*
G04 #@! TO.N,Net-(D39-DO)*
X494450000Y-183400000D03*
G04 #@! TD*
D15*
G04 #@! TO.P,U65,1,QB*
G04 #@! TO.N,Net-(U10-VCC)*
X426125000Y-83200000D03*
D16*
G04 #@! TO.P,U65,2,QC*
G04 #@! TO.N,Net-(U11-VCC)*
X428665000Y-83200000D03*
G04 #@! TO.P,U65,3,QD*
G04 #@! TO.N,Net-(U12-VCC)*
X431205000Y-83200000D03*
G04 #@! TO.P,U65,4,QE*
G04 #@! TO.N,Net-(U13-VCC)*
X433745000Y-83200000D03*
G04 #@! TO.P,U65,5,QF*
G04 #@! TO.N,Net-(U14-VCC)*
X436285000Y-83200000D03*
G04 #@! TO.P,U65,6,QG*
G04 #@! TO.N,Net-(U15-VCC)*
X438825000Y-83200000D03*
G04 #@! TO.P,U65,7,QH*
G04 #@! TO.N,Net-(U16-VCC)*
X441365000Y-83200000D03*
G04 #@! TO.P,U65,8,GND*
G04 #@! TO.N,GND*
X443905000Y-83200000D03*
G04 #@! TO.P,U65,9,QH'*
G04 #@! TO.N,unconnected-(U65-QH'-Pad9)*
X443905000Y-90820000D03*
G04 #@! TO.P,U65,10,~{SRCLR}*
G04 #@! TO.N,+5V*
X441365000Y-90820000D03*
G04 #@! TO.P,U65,11,SRCLK*
G04 #@! TO.N,Net-(A1-D3)*
X438825000Y-90820000D03*
G04 #@! TO.P,U65,12,RCLK*
G04 #@! TO.N,Net-(A1-D4)*
X436285000Y-90820000D03*
G04 #@! TO.P,U65,13,~{OE}*
G04 #@! TO.N,+5V*
X433745000Y-90820000D03*
G04 #@! TO.P,U65,14,SER*
G04 #@! TO.N,Net-(A1-D2)*
X431205000Y-90820000D03*
G04 #@! TO.P,U65,15,QA*
G04 #@! TO.N,Net-(U1-VCC)*
X428665000Y-90820000D03*
G04 #@! TO.P,U65,16,VCC*
G04 #@! TO.N,+5V*
X426125000Y-90820000D03*
G04 #@! TD*
D17*
G04 #@! TO.N,+5V*
X384500000Y-75000000D03*
X412500000Y-271000000D03*
X384500000Y-271000000D03*
X440500000Y-187000000D03*
X440500000Y-131000000D03*
X496500000Y-243000000D03*
X524500000Y-75000000D03*
X524500000Y-215000000D03*
X440500000Y-103000000D03*
X468500000Y-243000000D03*
X496500000Y-131000000D03*
X468500000Y-75000000D03*
X328500000Y-187000000D03*
X328500000Y-75000000D03*
X524500000Y-187000000D03*
X496500000Y-187000000D03*
D18*
X492000000Y-92500000D03*
D17*
X440500000Y-243000000D03*
X412500000Y-159000000D03*
X328500000Y-131000000D03*
X496500000Y-215000000D03*
X496500000Y-159000000D03*
X468500000Y-187000000D03*
X328500000Y-159000000D03*
X412500000Y-243000000D03*
X524500000Y-271000000D03*
X384500000Y-131000000D03*
X496500000Y-103000000D03*
X384500000Y-243000000D03*
X468500000Y-159000000D03*
X356500000Y-159000000D03*
D18*
X492000000Y-80500000D03*
D17*
X440500000Y-271000000D03*
X328500000Y-271000000D03*
X356500000Y-131000000D03*
X524500000Y-243000000D03*
X384500000Y-103000000D03*
X468500000Y-215000000D03*
X384500000Y-159000000D03*
X440500000Y-159000000D03*
X328500000Y-243000000D03*
X328500000Y-215000000D03*
X468500000Y-103000000D03*
X384500000Y-187000000D03*
X524500000Y-159000000D03*
X356500000Y-271000000D03*
X412500000Y-103000000D03*
X356500000Y-187000000D03*
X356500000Y-103000000D03*
X412500000Y-187000000D03*
X412500000Y-75000000D03*
X496500000Y-271000000D03*
X328500000Y-103000000D03*
X384500000Y-215000000D03*
X412500000Y-215000000D03*
X524500000Y-103000000D03*
X440500000Y-75000000D03*
X356500000Y-75000000D03*
X524500000Y-131000000D03*
X440500000Y-215000000D03*
X356500000Y-243000000D03*
X468500000Y-131000000D03*
X496500000Y-75000000D03*
X356500000Y-215000000D03*
X468500000Y-271000000D03*
X412500000Y-131000000D03*
G04 #@! TO.N,GND*
X319000000Y-128000000D03*
X487000000Y-268000000D03*
X375000000Y-156000000D03*
X403000000Y-128000000D03*
X319000000Y-268000000D03*
X375000000Y-240000000D03*
X319000000Y-184000000D03*
X487000000Y-156000000D03*
X449000000Y-72000000D03*
X431000000Y-212000000D03*
X487000000Y-184000000D03*
X375000000Y-212000000D03*
X431000000Y-72000000D03*
X375000000Y-72000000D03*
X459000000Y-184000000D03*
X459000000Y-240000000D03*
X515000000Y-240000000D03*
X515000000Y-268000000D03*
X459000000Y-100000000D03*
D19*
X495000000Y-68500000D03*
D17*
X403000000Y-212000000D03*
X449000000Y-78105000D03*
X515000000Y-128000000D03*
X459000000Y-156000000D03*
X347000000Y-268000000D03*
X515000000Y-156000000D03*
X316500000Y-184000000D03*
X487000000Y-212000000D03*
X319000000Y-212000000D03*
X431000000Y-268000000D03*
X431000000Y-128000000D03*
X480500000Y-72000000D03*
X347000000Y-128000000D03*
X431000000Y-100000000D03*
X316400000Y-268000000D03*
X316500000Y-212000000D03*
X487000000Y-240000000D03*
X375000000Y-184000000D03*
X515000000Y-100000000D03*
X459000000Y-212000000D03*
X319000000Y-240000000D03*
X459000000Y-128000000D03*
X515000000Y-212000000D03*
X347000000Y-72000000D03*
X316500000Y-240000000D03*
X431000000Y-156000000D03*
X403000000Y-240000000D03*
X347000000Y-212000000D03*
X515000000Y-184000000D03*
X487000000Y-72000000D03*
X316500000Y-128000000D03*
X375000000Y-100000000D03*
X515000000Y-72000000D03*
X319000000Y-156000000D03*
X403000000Y-268000000D03*
X347000000Y-240000000D03*
X480500000Y-77500000D03*
X431000000Y-184000000D03*
X459000000Y-72000000D03*
X319000000Y-72000000D03*
X459000000Y-268000000D03*
X431000000Y-240000000D03*
X487000000Y-100000000D03*
X487000000Y-128000000D03*
X403000000Y-72000000D03*
X403000000Y-184000000D03*
X403000000Y-100000000D03*
X375000000Y-128000000D03*
X403000000Y-156000000D03*
X319000000Y-100000000D03*
X316500000Y-100000000D03*
X347000000Y-100000000D03*
X375000000Y-268000000D03*
X347000000Y-156000000D03*
X316500000Y-156000000D03*
X347000000Y-184000000D03*
D19*
G04 #@! TO.N,Net-(D8-DO)*
X319000000Y-102500000D03*
X526000000Y-87000000D03*
G04 #@! TO.N,Net-(D16-DO)*
X526000000Y-115000000D03*
X319000000Y-130500000D03*
G04 #@! TO.N,Net-(D24-DO)*
X526000000Y-143000000D03*
X319000000Y-158500000D03*
G04 #@! TO.N,Net-(D32-DO)*
X319000000Y-186500000D03*
X526000000Y-171000000D03*
G04 #@! TO.N,Net-(D40-DO)*
X319000000Y-214500000D03*
X526000000Y-199000000D03*
G04 #@! TO.N,Net-(D48-DO)*
X526000000Y-227000000D03*
X319000000Y-242500000D03*
G04 #@! TO.N,Net-(D56-DO)*
X319000000Y-270500000D03*
X526000000Y-255000000D03*
G04 #@! TO.N,Net-(A1-D5)*
X511000000Y-67000000D03*
G04 #@! TO.N,Net-(A1-D3)*
X460500000Y-88000000D03*
X483000000Y-88000000D03*
X507000000Y-68000000D03*
G04 #@! TO.N,Net-(A1-D8)*
X353000000Y-125500000D03*
X524000000Y-125500000D03*
X517500000Y-125500000D03*
X325000000Y-125500000D03*
X437000000Y-125500000D03*
X405500000Y-125500000D03*
X377500000Y-125500000D03*
X493000000Y-125500000D03*
X489500000Y-125500000D03*
X433500000Y-125500000D03*
D18*
X411500000Y-124500000D03*
D19*
X465000000Y-125500000D03*
X381000000Y-125500000D03*
X349500000Y-125500000D03*
X461500000Y-125500000D03*
X409000000Y-125500000D03*
X519500000Y-77500000D03*
G04 #@! TO.N,Net-(A1-D13{slash}SCK)*
X493000000Y-265500000D03*
X524000000Y-265500000D03*
X381000000Y-265500000D03*
X489500000Y-265500000D03*
X517500000Y-265500000D03*
X465000000Y-265500000D03*
X409000000Y-265500000D03*
D18*
X411000000Y-263500000D03*
D19*
X405500000Y-265500000D03*
X461500000Y-265500000D03*
X353000000Y-265500000D03*
X437000000Y-265500000D03*
X433500000Y-265500000D03*
X325000000Y-265500000D03*
X377500000Y-265500000D03*
X529540000Y-83960000D03*
X349500000Y-265500000D03*
G04 #@! TO.N,Net-(A1-D6)*
X433500000Y-69500000D03*
X517500000Y-69500000D03*
X409000000Y-69500000D03*
X437000000Y-69500000D03*
X461500000Y-69500000D03*
D18*
X411500000Y-68000000D03*
D19*
X493000000Y-69500000D03*
X353000000Y-69500000D03*
X349500000Y-69500000D03*
X405500000Y-69500000D03*
X381000000Y-69500000D03*
X377500000Y-69500000D03*
X325000000Y-69500000D03*
X465000000Y-69500000D03*
X489500000Y-69500000D03*
G04 #@! TO.N,Net-(A1-D7)*
X517500000Y-97500000D03*
X465000000Y-97500000D03*
X489500000Y-97500000D03*
X493000000Y-97500000D03*
X353000000Y-97500000D03*
X437000000Y-97500000D03*
X517000000Y-77500000D03*
X524000000Y-97500000D03*
X433500000Y-97500000D03*
X325000000Y-97500000D03*
X377500000Y-97500000D03*
X409000000Y-97500000D03*
X461500000Y-97500000D03*
X405500000Y-97500000D03*
X349500000Y-97500000D03*
X381000000Y-97500000D03*
D18*
X411000000Y-96000000D03*
D19*
G04 #@! TO.N,Net-(A1-D10{slash}CS)*
X353000000Y-181500000D03*
X409000000Y-181500000D03*
X493000000Y-181500000D03*
X349500000Y-181500000D03*
D18*
X411000000Y-179500000D03*
D19*
X524000000Y-181500000D03*
X405500000Y-181500000D03*
X325000000Y-181500000D03*
X461500000Y-181500000D03*
X489500000Y-181500000D03*
X465000000Y-181500000D03*
X523500000Y-78500000D03*
X377500000Y-181500000D03*
X433500000Y-181500000D03*
X517500000Y-181500000D03*
X437000000Y-181500000D03*
X381000000Y-181500000D03*
G04 #@! TO.N,Net-(A1-D4)*
X509000000Y-67000000D03*
G04 #@! TO.N,Net-(A1-D2)*
X504140000Y-66000000D03*
G04 #@! TO.N,Net-(A1-D11{slash}COPI)*
X377500000Y-209500000D03*
X353000000Y-209500000D03*
X437000000Y-209500000D03*
X409000000Y-209500000D03*
X493000000Y-209500000D03*
X461500000Y-209500000D03*
X325000000Y-209500000D03*
X524000000Y-209500000D03*
D18*
X411000000Y-208500000D03*
D19*
X517500000Y-209500000D03*
X527000000Y-77500000D03*
X405500000Y-209500000D03*
X349500000Y-209500000D03*
X381000000Y-209500000D03*
X489500000Y-209500000D03*
X433500000Y-209500000D03*
X465000000Y-209500000D03*
G04 #@! TO.N,Net-(A1-D12{slash}CIPO)*
X409000000Y-237500000D03*
X529500000Y-77500000D03*
X353000000Y-237500000D03*
X489500000Y-237500000D03*
X433500000Y-237500000D03*
X461500000Y-237500000D03*
X325000000Y-237500000D03*
X381000000Y-237500000D03*
X493000000Y-237500000D03*
X405500000Y-237500000D03*
X465000000Y-237500000D03*
X349500000Y-237500000D03*
X377500000Y-237500000D03*
X517500000Y-237500000D03*
X437000000Y-237500000D03*
X524000000Y-237500000D03*
D18*
X411000000Y-236000000D03*
D19*
G04 #@! TO.N,Net-(A1-D9)*
X437000000Y-153500000D03*
X409000000Y-153500000D03*
X349500000Y-153500000D03*
X461500000Y-153500000D03*
D18*
X411000000Y-152000000D03*
D19*
X524000000Y-153500000D03*
X521500000Y-78000000D03*
X377500000Y-153500000D03*
X465000000Y-153500000D03*
X489500000Y-153500000D03*
X405500000Y-153500000D03*
X517500000Y-153500000D03*
X381000000Y-153500000D03*
X493000000Y-153500000D03*
X433500000Y-153500000D03*
X325000000Y-153500000D03*
X353000000Y-153500000D03*
G04 #@! TO.N,Net-(U1-VCC)*
X326500000Y-93500000D03*
G04 #@! TO.N,Net-(U10-VCC)*
X354000000Y-83200000D03*
G04 #@! TO.N,Net-(U11-VCC)*
X380500000Y-85500000D03*
G04 #@! TO.N,Net-(U12-VCC)*
X409000000Y-86000000D03*
G04 #@! TO.N,Net-(U13-VCC)*
X433500000Y-85500000D03*
G04 #@! TO.N,Net-(U14-VCC)*
X461500000Y-86000000D03*
G04 #@! TO.N,Net-(U15-VCC)*
X489500000Y-85500000D03*
G04 #@! TO.N,Net-(U16-VCC)*
X514500000Y-84500000D03*
G04 #@! TD*
D20*
G04 #@! TO.N,+5V*
X414412500Y-249000000D02*
X414412500Y-263500000D01*
X468100000Y-214600000D02*
X468500000Y-215000000D01*
X410325000Y-133500000D02*
X414000000Y-137175000D01*
X412100000Y-130600000D02*
X412500000Y-131000000D01*
X356100000Y-242600000D02*
X356500000Y-243000000D01*
X356100000Y-74600000D02*
X356500000Y-75000000D01*
X466450000Y-130600000D02*
X468100000Y-130600000D01*
X466450000Y-270600000D02*
X468100000Y-270600000D01*
X468100000Y-242600000D02*
X468500000Y-243000000D01*
X412500000Y-243000000D02*
X412500000Y-244912500D01*
X384100000Y-214600000D02*
X384500000Y-215000000D01*
D21*
X492000000Y-92500000D02*
X492000000Y-80500000D01*
D20*
X354450000Y-130600000D02*
X356100000Y-130600000D01*
X440100000Y-102600000D02*
X440500000Y-103000000D01*
X440100000Y-74600000D02*
X440500000Y-75000000D01*
X328100000Y-158600000D02*
X328500000Y-159000000D01*
X468100000Y-102600000D02*
X468500000Y-103000000D01*
X354450000Y-158600000D02*
X356100000Y-158600000D01*
X412100000Y-214600000D02*
X412500000Y-215000000D01*
X522450000Y-158600000D02*
X524100000Y-158600000D01*
X522450000Y-214600000D02*
X524100000Y-214600000D01*
X524100000Y-186600000D02*
X524500000Y-187000000D01*
X412100000Y-102600000D02*
X412500000Y-103000000D01*
X438450000Y-130600000D02*
X440100000Y-130600000D01*
X412500000Y-244912500D02*
X411412500Y-246000000D01*
X440100000Y-214600000D02*
X440500000Y-215000000D01*
X524100000Y-242600000D02*
X524500000Y-243000000D01*
X522450000Y-74600000D02*
X524100000Y-74600000D01*
X438450000Y-214600000D02*
X440100000Y-214600000D01*
X438450000Y-270600000D02*
X440100000Y-270600000D01*
X524100000Y-158600000D02*
X524500000Y-159000000D01*
X524100000Y-74600000D02*
X524500000Y-75000000D01*
X468100000Y-270600000D02*
X468500000Y-271000000D01*
X384100000Y-102600000D02*
X384500000Y-103000000D01*
X412500000Y-76412500D02*
X411412500Y-77500000D01*
X496100000Y-214600000D02*
X496500000Y-215000000D01*
X496100000Y-130600000D02*
X496500000Y-131000000D01*
X382450000Y-242600000D02*
X384100000Y-242600000D01*
X384100000Y-270600000D02*
X384500000Y-271000000D01*
X496100000Y-102600000D02*
X496500000Y-103000000D01*
X410450000Y-186600000D02*
X412100000Y-186600000D01*
X496100000Y-242600000D02*
X496500000Y-243000000D01*
X354450000Y-242600000D02*
X356100000Y-242600000D01*
X524100000Y-130600000D02*
X524500000Y-131000000D01*
X412500000Y-75000000D02*
X412500000Y-76412500D01*
X438450000Y-74600000D02*
X440100000Y-74600000D01*
X356100000Y-186600000D02*
X356500000Y-187000000D01*
X382450000Y-74600000D02*
X384100000Y-74600000D01*
X410450000Y-214600000D02*
X412100000Y-214600000D01*
X466450000Y-242600000D02*
X468100000Y-242600000D01*
X412100000Y-158600000D02*
X412500000Y-159000000D01*
X524100000Y-214600000D02*
X524500000Y-215000000D01*
X328100000Y-102600000D02*
X328500000Y-103000000D01*
X440100000Y-186600000D02*
X440500000Y-187000000D01*
X412100000Y-186600000D02*
X412500000Y-187000000D01*
X412100000Y-270600000D02*
X412500000Y-271000000D01*
X326450000Y-102600000D02*
X328100000Y-102600000D01*
X412500000Y-187912500D02*
X410912500Y-189500000D01*
X326450000Y-158600000D02*
X328100000Y-158600000D01*
X412100000Y-74600000D02*
X412500000Y-75000000D01*
X354450000Y-102600000D02*
X356100000Y-102600000D01*
X410450000Y-158600000D02*
X412100000Y-158600000D01*
X384100000Y-74600000D02*
X384500000Y-75000000D01*
X384100000Y-130600000D02*
X384500000Y-131000000D01*
X496100000Y-158600000D02*
X496500000Y-159000000D01*
X414000000Y-137175000D02*
X414000000Y-152000000D01*
X440100000Y-270600000D02*
X440500000Y-271000000D01*
X382450000Y-130600000D02*
X384100000Y-130600000D01*
X328100000Y-214600000D02*
X328500000Y-215000000D01*
X410450000Y-130600000D02*
X412100000Y-130600000D01*
X410912500Y-189500000D02*
X414412500Y-193000000D01*
X356100000Y-214600000D02*
X356500000Y-215000000D01*
X438450000Y-102600000D02*
X440100000Y-102600000D01*
X466450000Y-214600000D02*
X468100000Y-214600000D01*
X414412500Y-193000000D02*
X414412500Y-208500000D01*
X494450000Y-186600000D02*
X496100000Y-186600000D01*
X410450000Y-102600000D02*
X412100000Y-102600000D01*
X328100000Y-74600000D02*
X328500000Y-75000000D01*
X494450000Y-242600000D02*
X496100000Y-242600000D01*
X354450000Y-186600000D02*
X356100000Y-186600000D01*
X494450000Y-158600000D02*
X496100000Y-158600000D01*
X384100000Y-242600000D02*
X384500000Y-243000000D01*
X440100000Y-242600000D02*
X440500000Y-243000000D01*
X326450000Y-186600000D02*
X328100000Y-186600000D01*
X438450000Y-186600000D02*
X440100000Y-186600000D01*
X411412500Y-246000000D02*
X414412500Y-249000000D01*
X440100000Y-130600000D02*
X440500000Y-131000000D01*
X440100000Y-158600000D02*
X440500000Y-159000000D01*
X522450000Y-242600000D02*
X524100000Y-242600000D01*
X496100000Y-186600000D02*
X496500000Y-187000000D01*
X524100000Y-270600000D02*
X524500000Y-271000000D01*
X410450000Y-242600000D02*
X412100000Y-242600000D01*
X412500000Y-187000000D02*
X412500000Y-187912500D01*
X382450000Y-214600000D02*
X384100000Y-214600000D01*
X468100000Y-74600000D02*
X468500000Y-75000000D01*
X326450000Y-242600000D02*
X328100000Y-242600000D01*
X466450000Y-102600000D02*
X468100000Y-102600000D01*
X466450000Y-158600000D02*
X468100000Y-158600000D01*
X356100000Y-130600000D02*
X356500000Y-131000000D01*
X328100000Y-270600000D02*
X328500000Y-271000000D01*
X326450000Y-214600000D02*
X328100000Y-214600000D01*
X384100000Y-186600000D02*
X384500000Y-187000000D01*
X522450000Y-270600000D02*
X524100000Y-270600000D01*
X326450000Y-270600000D02*
X328100000Y-270600000D01*
X496100000Y-270600000D02*
X496500000Y-271000000D01*
X382450000Y-186600000D02*
X384100000Y-186600000D01*
X328100000Y-186600000D02*
X328500000Y-187000000D01*
X494450000Y-270600000D02*
X496100000Y-270600000D01*
X522450000Y-186600000D02*
X524100000Y-186600000D01*
X328100000Y-242600000D02*
X328500000Y-243000000D01*
X468100000Y-186600000D02*
X468500000Y-187000000D01*
X494450000Y-74600000D02*
X496100000Y-74600000D01*
X412100000Y-242600000D02*
X412500000Y-243000000D01*
X412500000Y-131325000D02*
X410325000Y-133500000D01*
X412500000Y-131000000D02*
X412500000Y-131325000D01*
X410450000Y-74600000D02*
X412100000Y-74600000D01*
X522450000Y-102600000D02*
X524100000Y-102600000D01*
X354450000Y-74600000D02*
X356100000Y-74600000D01*
X524100000Y-102600000D02*
X524500000Y-103000000D01*
X438450000Y-158600000D02*
X440100000Y-158600000D01*
X326450000Y-130600000D02*
X328100000Y-130600000D01*
X468100000Y-130600000D02*
X468500000Y-131000000D01*
X354450000Y-270600000D02*
X356100000Y-270600000D01*
X384100000Y-158600000D02*
X384500000Y-159000000D01*
X411412500Y-77500000D02*
X414500000Y-80587500D01*
X466450000Y-186600000D02*
X468100000Y-186600000D01*
X468100000Y-158600000D02*
X468500000Y-159000000D01*
X466450000Y-74600000D02*
X468100000Y-74600000D01*
X494450000Y-214600000D02*
X496100000Y-214600000D01*
X382450000Y-102600000D02*
X384100000Y-102600000D01*
X356100000Y-158600000D02*
X356500000Y-159000000D01*
X410450000Y-270600000D02*
X412100000Y-270600000D01*
X354450000Y-214600000D02*
X356100000Y-214600000D01*
X494450000Y-102600000D02*
X496100000Y-102600000D01*
X356100000Y-102600000D02*
X356500000Y-103000000D01*
X382450000Y-270600000D02*
X384100000Y-270600000D01*
X356100000Y-270600000D02*
X356500000Y-271000000D01*
X326450000Y-74600000D02*
X328100000Y-74600000D01*
X494450000Y-130600000D02*
X496100000Y-130600000D01*
X438450000Y-242600000D02*
X440100000Y-242600000D01*
X328100000Y-130600000D02*
X328500000Y-131000000D01*
X382450000Y-158600000D02*
X384100000Y-158600000D01*
X496100000Y-74600000D02*
X496500000Y-75000000D01*
X414500000Y-80587500D02*
X414500000Y-96000000D01*
X522450000Y-130600000D02*
X524100000Y-130600000D01*
G04 #@! TO.N,GND*
X515600000Y-183400000D02*
X515000000Y-184000000D01*
D22*
X353000000Y-264500000D02*
X348000000Y-264500000D01*
D20*
X431600000Y-183400000D02*
X431000000Y-184000000D01*
D22*
X404000000Y-236500000D02*
X403000000Y-237500000D01*
X404000000Y-96500000D02*
X403000000Y-97500000D01*
X348900000Y-267400000D02*
X349550000Y-267400000D01*
X460900000Y-127400000D02*
X461550000Y-127400000D01*
D20*
X319600000Y-155400000D02*
X319000000Y-156000000D01*
D22*
X404900000Y-99400000D02*
X405550000Y-99400000D01*
X353000000Y-124500000D02*
X348000000Y-124500000D01*
D21*
X449000000Y-78105000D02*
X449000000Y-72000000D01*
D20*
X347600000Y-183400000D02*
X347000000Y-184000000D01*
X489550000Y-211400000D02*
X487600000Y-211400000D01*
X433550000Y-99400000D02*
X431600000Y-99400000D01*
D22*
X432000000Y-96500000D02*
X431000000Y-97500000D01*
X375000000Y-265500000D02*
X376900000Y-267400000D01*
D20*
X319600000Y-239400000D02*
X319000000Y-240000000D01*
D22*
X488900000Y-211400000D02*
X489550000Y-211400000D01*
D20*
X459600000Y-183400000D02*
X459000000Y-184000000D01*
D22*
X375000000Y-69500000D02*
X376900000Y-71400000D01*
D20*
X375600000Y-211400000D02*
X375000000Y-212000000D01*
X461550000Y-211400000D02*
X459600000Y-211400000D01*
D22*
X348900000Y-155400000D02*
X349550000Y-155400000D01*
D20*
X433550000Y-155400000D02*
X431600000Y-155400000D01*
X377550000Y-71400000D02*
X375600000Y-71400000D01*
D22*
X347000000Y-153500000D02*
X348900000Y-155400000D01*
X431000000Y-237500000D02*
X432900000Y-239400000D01*
D20*
X489550000Y-155400000D02*
X487600000Y-155400000D01*
X433550000Y-239400000D02*
X431600000Y-239400000D01*
X431600000Y-71400000D02*
X431000000Y-72000000D01*
X349550000Y-155400000D02*
X347600000Y-155400000D01*
D22*
X516000000Y-124500000D02*
X515000000Y-125500000D01*
X320900000Y-239400000D02*
X321550000Y-239400000D01*
D20*
X319000000Y-240000000D02*
X316500000Y-240000000D01*
X461550000Y-71400000D02*
X459600000Y-71400000D01*
D22*
X347000000Y-209500000D02*
X348900000Y-211400000D01*
X515000000Y-97500000D02*
X516900000Y-99400000D01*
D20*
X377550000Y-127400000D02*
X375600000Y-127400000D01*
X321550000Y-211400000D02*
X319600000Y-211400000D01*
X375600000Y-267400000D02*
X375000000Y-268000000D01*
D22*
X460000000Y-96500000D02*
X459000000Y-97500000D01*
X409000000Y-208500000D02*
X404000000Y-208500000D01*
D20*
X515600000Y-267400000D02*
X515000000Y-268000000D01*
D22*
X403000000Y-181500000D02*
X404900000Y-183400000D01*
X348000000Y-208500000D02*
X347000000Y-209500000D01*
X432000000Y-124500000D02*
X431000000Y-125500000D01*
D20*
X431600000Y-127400000D02*
X431000000Y-128000000D01*
D22*
X460900000Y-155400000D02*
X461550000Y-155400000D01*
X431000000Y-209500000D02*
X432900000Y-211400000D01*
X353000000Y-208500000D02*
X348000000Y-208500000D01*
D20*
X489550000Y-99400000D02*
X487600000Y-99400000D01*
D22*
X409000000Y-96500000D02*
X404000000Y-96500000D01*
X348900000Y-183400000D02*
X349550000Y-183400000D01*
D20*
X405550000Y-71400000D02*
X403600000Y-71400000D01*
X459600000Y-239400000D02*
X459000000Y-240000000D01*
D22*
X376000000Y-180500000D02*
X375000000Y-181500000D01*
X376900000Y-239400000D02*
X377550000Y-239400000D01*
D20*
X431600000Y-99400000D02*
X431000000Y-100000000D01*
X347600000Y-127400000D02*
X347000000Y-128000000D01*
X377550000Y-183400000D02*
X375600000Y-183400000D01*
D22*
X460900000Y-239400000D02*
X461550000Y-239400000D01*
X319000000Y-97500000D02*
X320900000Y-99400000D01*
X376000000Y-208500000D02*
X375000000Y-209500000D01*
D20*
X321550000Y-155400000D02*
X319600000Y-155400000D01*
X347600000Y-99400000D02*
X347000000Y-100000000D01*
X349550000Y-183400000D02*
X347600000Y-183400000D01*
D22*
X521000000Y-208500000D02*
X516000000Y-208500000D01*
X353000000Y-152500000D02*
X348000000Y-152500000D01*
D20*
X487600000Y-211400000D02*
X487000000Y-212000000D01*
D22*
X460900000Y-267400000D02*
X461550000Y-267400000D01*
X487000000Y-153500000D02*
X488900000Y-155400000D01*
X516900000Y-211400000D02*
X517550000Y-211400000D01*
X404000000Y-152500000D02*
X403000000Y-153500000D01*
X348900000Y-71400000D02*
X349550000Y-71400000D01*
X381000000Y-180500000D02*
X376000000Y-180500000D01*
X460900000Y-99400000D02*
X461550000Y-99400000D01*
D20*
X517550000Y-127400000D02*
X515600000Y-127400000D01*
D22*
X521000000Y-236500000D02*
X516000000Y-236500000D01*
X432000000Y-208500000D02*
X431000000Y-209500000D01*
X488000000Y-180500000D02*
X487000000Y-181500000D01*
X319000000Y-181500000D02*
X320900000Y-183400000D01*
X347000000Y-125500000D02*
X348900000Y-127400000D01*
D20*
X459600000Y-99400000D02*
X459000000Y-100000000D01*
D22*
X521000000Y-180500000D02*
X516000000Y-180500000D01*
X409000000Y-264500000D02*
X404000000Y-264500000D01*
D20*
X517550000Y-239400000D02*
X515600000Y-239400000D01*
X347600000Y-239400000D02*
X347000000Y-240000000D01*
D22*
X516000000Y-96500000D02*
X515000000Y-97500000D01*
X465000000Y-124500000D02*
X460000000Y-124500000D01*
X459000000Y-153500000D02*
X460900000Y-155400000D01*
X488900000Y-183400000D02*
X489550000Y-183400000D01*
D20*
X347600000Y-155400000D02*
X347000000Y-156000000D01*
D22*
X488000000Y-96500000D02*
X487000000Y-97500000D01*
X353000000Y-68500000D02*
X348000000Y-68500000D01*
X493000000Y-208500000D02*
X488000000Y-208500000D01*
X487000000Y-237500000D02*
X488900000Y-239400000D01*
X409000000Y-152500000D02*
X404000000Y-152500000D01*
D20*
X349550000Y-71400000D02*
X347600000Y-71400000D01*
D22*
X432000000Y-236500000D02*
X431000000Y-237500000D01*
D20*
X377550000Y-155400000D02*
X375600000Y-155400000D01*
D22*
X376900000Y-127400000D02*
X377550000Y-127400000D01*
D20*
X349550000Y-127400000D02*
X347600000Y-127400000D01*
D22*
X432000000Y-68500000D02*
X431000000Y-69500000D01*
D20*
X431600000Y-155400000D02*
X431000000Y-156000000D01*
X321550000Y-239400000D02*
X319600000Y-239400000D01*
D22*
X516000000Y-180500000D02*
X515000000Y-181500000D01*
X325000000Y-68500000D02*
X320000000Y-68500000D01*
X319000000Y-153500000D02*
X320900000Y-155400000D01*
X431000000Y-97500000D02*
X432900000Y-99400000D01*
X348000000Y-68500000D02*
X347000000Y-69500000D01*
X465000000Y-180500000D02*
X460000000Y-180500000D01*
X516900000Y-127400000D02*
X517550000Y-127400000D01*
X488900000Y-99400000D02*
X489550000Y-99400000D01*
X320900000Y-183400000D02*
X321550000Y-183400000D01*
D20*
X403600000Y-211400000D02*
X403000000Y-212000000D01*
D22*
X325000000Y-96500000D02*
X320000000Y-96500000D01*
X459000000Y-181500000D02*
X460900000Y-183400000D01*
X493000000Y-236500000D02*
X488000000Y-236500000D01*
X325000000Y-180500000D02*
X320000000Y-180500000D01*
X375000000Y-209500000D02*
X376900000Y-211400000D01*
D20*
X459600000Y-155400000D02*
X459000000Y-156000000D01*
D22*
X403000000Y-153500000D02*
X404900000Y-155400000D01*
D20*
X319000000Y-100000000D02*
X316500000Y-100000000D01*
X487600000Y-71400000D02*
X487000000Y-72000000D01*
D22*
X319000000Y-265500000D02*
X320900000Y-267400000D01*
X493000000Y-180500000D02*
X488000000Y-180500000D01*
D20*
X517550000Y-71400000D02*
X515600000Y-71400000D01*
X517550000Y-99400000D02*
X515600000Y-99400000D01*
X377550000Y-239400000D02*
X375600000Y-239400000D01*
X515600000Y-99400000D02*
X515000000Y-100000000D01*
D22*
X432000000Y-180500000D02*
X431000000Y-181500000D01*
D20*
X321550000Y-127400000D02*
X319600000Y-127400000D01*
D22*
X432900000Y-155400000D02*
X433550000Y-155400000D01*
X515000000Y-69500000D02*
X516900000Y-71400000D01*
X493000000Y-264500000D02*
X488000000Y-264500000D01*
D20*
X433550000Y-267400000D02*
X431600000Y-267400000D01*
D22*
X460000000Y-180500000D02*
X459000000Y-181500000D01*
X516000000Y-208500000D02*
X515000000Y-209500000D01*
D20*
X459600000Y-211400000D02*
X459000000Y-212000000D01*
D22*
X493000000Y-68500000D02*
X488000000Y-68500000D01*
X521000000Y-124500000D02*
X516000000Y-124500000D01*
X516900000Y-71400000D02*
X517550000Y-71400000D01*
X437000000Y-208500000D02*
X432000000Y-208500000D01*
X347000000Y-97500000D02*
X348900000Y-99400000D01*
X320000000Y-236500000D02*
X319000000Y-237500000D01*
X381000000Y-68500000D02*
X376000000Y-68500000D01*
X348900000Y-127400000D02*
X349550000Y-127400000D01*
D20*
X319600000Y-99400000D02*
X319000000Y-100000000D01*
D22*
X348000000Y-152500000D02*
X347000000Y-153500000D01*
X320900000Y-155400000D02*
X321550000Y-155400000D01*
X460900000Y-211400000D02*
X461550000Y-211400000D01*
X432900000Y-127400000D02*
X433550000Y-127400000D01*
X515000000Y-265500000D02*
X516900000Y-267400000D01*
X487000000Y-125500000D02*
X488900000Y-127400000D01*
D20*
X375600000Y-127400000D02*
X375000000Y-128000000D01*
D22*
X488900000Y-71400000D02*
X489550000Y-71400000D01*
X459000000Y-69500000D02*
X460900000Y-71400000D01*
X375000000Y-237500000D02*
X376900000Y-239400000D01*
X320900000Y-99400000D02*
X321550000Y-99400000D01*
X375000000Y-97500000D02*
X376900000Y-99400000D01*
X319000000Y-125500000D02*
X320900000Y-127400000D01*
X348000000Y-96500000D02*
X347000000Y-97500000D01*
D20*
X405550000Y-211400000D02*
X403600000Y-211400000D01*
D22*
X465000000Y-236500000D02*
X460000000Y-236500000D01*
D20*
X515600000Y-239400000D02*
X515000000Y-240000000D01*
X461550000Y-127400000D02*
X459600000Y-127400000D01*
D22*
X516000000Y-264500000D02*
X515000000Y-265500000D01*
D20*
X405550000Y-183400000D02*
X403600000Y-183400000D01*
X461550000Y-155400000D02*
X459600000Y-155400000D01*
D22*
X404000000Y-124500000D02*
X403000000Y-125500000D01*
X518601700Y-99400000D02*
X521000000Y-97001700D01*
D20*
X403600000Y-71400000D02*
X403000000Y-72000000D01*
D22*
X437000000Y-236500000D02*
X432000000Y-236500000D01*
D20*
X319600000Y-267400000D02*
X319000000Y-268000000D01*
D22*
X353000000Y-96500000D02*
X348000000Y-96500000D01*
X381000000Y-208500000D02*
X376000000Y-208500000D01*
X432900000Y-71400000D02*
X433550000Y-71400000D01*
X320000000Y-152500000D02*
X319000000Y-153500000D01*
D20*
X347600000Y-267400000D02*
X347000000Y-268000000D01*
D22*
X409000000Y-68500000D02*
X404000000Y-68500000D01*
X516900000Y-239400000D02*
X517550000Y-239400000D01*
X516900000Y-267400000D02*
X517550000Y-267400000D01*
X521000000Y-96500000D02*
X516000000Y-96500000D01*
X320000000Y-96500000D02*
X319000000Y-97500000D01*
D20*
X461550000Y-267400000D02*
X459600000Y-267400000D01*
D22*
X376900000Y-155400000D02*
X377550000Y-155400000D01*
D20*
X321550000Y-267400000D02*
X319600000Y-267400000D01*
D22*
X409000000Y-180500000D02*
X404000000Y-180500000D01*
X488000000Y-124500000D02*
X487000000Y-125500000D01*
X431000000Y-69500000D02*
X432900000Y-71400000D01*
X381000000Y-152500000D02*
X376000000Y-152500000D01*
X348000000Y-236500000D02*
X347000000Y-237500000D01*
X465000000Y-264500000D02*
X460000000Y-264500000D01*
X465000000Y-208500000D02*
X460000000Y-208500000D01*
D20*
X515600000Y-155400000D02*
X515000000Y-156000000D01*
X431600000Y-211400000D02*
X431000000Y-212000000D01*
X375600000Y-71400000D02*
X375000000Y-72000000D01*
D22*
X404900000Y-211400000D02*
X405550000Y-211400000D01*
X348900000Y-239400000D02*
X349550000Y-239400000D01*
X516900000Y-183400000D02*
X517550000Y-183400000D01*
D20*
X403600000Y-183400000D02*
X403000000Y-184000000D01*
X321550000Y-99400000D02*
X319600000Y-99400000D01*
D22*
X376000000Y-124500000D02*
X375000000Y-125500000D01*
D20*
X489550000Y-267400000D02*
X487600000Y-267400000D01*
D22*
X488000000Y-68500000D02*
X487000000Y-69500000D01*
X493000000Y-152500000D02*
X488000000Y-152500000D01*
X381000000Y-264500000D02*
X376000000Y-264500000D01*
D20*
X375600000Y-155400000D02*
X375000000Y-156000000D01*
D22*
X404900000Y-267400000D02*
X405550000Y-267400000D01*
D20*
X489550000Y-71400000D02*
X487600000Y-71400000D01*
X431600000Y-239400000D02*
X431000000Y-240000000D01*
D22*
X376900000Y-211400000D02*
X377550000Y-211400000D01*
D20*
X319000000Y-184000000D02*
X316500000Y-184000000D01*
X349550000Y-99400000D02*
X347600000Y-99400000D01*
X459600000Y-267400000D02*
X459000000Y-268000000D01*
D22*
X404000000Y-180500000D02*
X403000000Y-181500000D01*
X431000000Y-153500000D02*
X432900000Y-155400000D01*
X381000000Y-96500000D02*
X376000000Y-96500000D01*
X521000000Y-68500000D02*
X516000000Y-68500000D01*
X348000000Y-180500000D02*
X347000000Y-181500000D01*
X432900000Y-183400000D02*
X433550000Y-183400000D01*
X320000000Y-68500000D02*
X319000000Y-69500000D01*
X488000000Y-236500000D02*
X487000000Y-237500000D01*
X460900000Y-183400000D02*
X461550000Y-183400000D01*
X320900000Y-267400000D02*
X321550000Y-267400000D01*
D20*
X461550000Y-99400000D02*
X459600000Y-99400000D01*
X405550000Y-127400000D02*
X403600000Y-127400000D01*
D22*
X403000000Y-125500000D02*
X404900000Y-127400000D01*
D20*
X487600000Y-239400000D02*
X487000000Y-240000000D01*
X405550000Y-239400000D02*
X403600000Y-239400000D01*
D22*
X376900000Y-99400000D02*
X377550000Y-99400000D01*
D20*
X487600000Y-267400000D02*
X487000000Y-268000000D01*
D22*
X403000000Y-209500000D02*
X404900000Y-211400000D01*
X493000000Y-96500000D02*
X488000000Y-96500000D01*
X487000000Y-97500000D02*
X488900000Y-99400000D01*
X347000000Y-69500000D02*
X348900000Y-71400000D01*
X459000000Y-265500000D02*
X460900000Y-267400000D01*
X320900000Y-71400000D02*
X321550000Y-71400000D01*
X437000000Y-264500000D02*
X432000000Y-264500000D01*
X320900000Y-127400000D02*
X321550000Y-127400000D01*
X459000000Y-209500000D02*
X460900000Y-211400000D01*
X460000000Y-208500000D02*
X459000000Y-209500000D01*
X488900000Y-155400000D02*
X489550000Y-155400000D01*
X487000000Y-209500000D02*
X488900000Y-211400000D01*
D20*
X515600000Y-211400000D02*
X515000000Y-212000000D01*
D22*
X375000000Y-153500000D02*
X376900000Y-155400000D01*
D20*
X403600000Y-155400000D02*
X403000000Y-156000000D01*
D22*
X460000000Y-236500000D02*
X459000000Y-237500000D01*
X488900000Y-239400000D02*
X489550000Y-239400000D01*
X432900000Y-239400000D02*
X433550000Y-239400000D01*
X403000000Y-265500000D02*
X404900000Y-267400000D01*
X465000000Y-68500000D02*
X460000000Y-68500000D01*
X319000000Y-237500000D02*
X320900000Y-239400000D01*
X348900000Y-211400000D02*
X349550000Y-211400000D01*
D20*
X347600000Y-211400000D02*
X347000000Y-212000000D01*
D22*
X376000000Y-264500000D02*
X375000000Y-265500000D01*
X325000000Y-124500000D02*
X320000000Y-124500000D01*
X381000000Y-236500000D02*
X376000000Y-236500000D01*
X347000000Y-181500000D02*
X348900000Y-183400000D01*
X459000000Y-97500000D02*
X460900000Y-99400000D01*
X319000000Y-69500000D02*
X320900000Y-71400000D01*
D20*
X487600000Y-127400000D02*
X487000000Y-128000000D01*
D22*
X460000000Y-124500000D02*
X459000000Y-125500000D01*
X515000000Y-209500000D02*
X516900000Y-211400000D01*
X404900000Y-183400000D02*
X405550000Y-183400000D01*
X320000000Y-124500000D02*
X319000000Y-125500000D01*
X460000000Y-68500000D02*
X459000000Y-69500000D01*
X375000000Y-181500000D02*
X376900000Y-183400000D01*
D20*
X461550000Y-183400000D02*
X459600000Y-183400000D01*
D22*
X376900000Y-267400000D02*
X377550000Y-267400000D01*
X376000000Y-68500000D02*
X375000000Y-69500000D01*
X319000000Y-209500000D02*
X320900000Y-211400000D01*
D20*
X375600000Y-183400000D02*
X375000000Y-184000000D01*
D22*
X488900000Y-127400000D02*
X489550000Y-127400000D01*
X347000000Y-237500000D02*
X348900000Y-239400000D01*
X437000000Y-152500000D02*
X432000000Y-152500000D01*
X404900000Y-71400000D02*
X405550000Y-71400000D01*
D20*
X349550000Y-267400000D02*
X347600000Y-267400000D01*
D22*
X521000000Y-152500000D02*
X516000000Y-152500000D01*
X348000000Y-264500000D02*
X347000000Y-265500000D01*
X465000000Y-96500000D02*
X460000000Y-96500000D01*
D20*
X433550000Y-71400000D02*
X431600000Y-71400000D01*
D22*
X409000000Y-124500000D02*
X404000000Y-124500000D01*
X376900000Y-71400000D02*
X377550000Y-71400000D01*
X325000000Y-208500000D02*
X320000000Y-208500000D01*
D20*
X405550000Y-99400000D02*
X403600000Y-99400000D01*
X517550000Y-183400000D02*
X515600000Y-183400000D01*
X319600000Y-183400000D02*
X319000000Y-184000000D01*
X319600000Y-211400000D02*
X319000000Y-212000000D01*
D22*
X404900000Y-239400000D02*
X405550000Y-239400000D01*
D20*
X489550000Y-183400000D02*
X487600000Y-183400000D01*
X487600000Y-99400000D02*
X487000000Y-100000000D01*
D22*
X432900000Y-267400000D02*
X433550000Y-267400000D01*
X517550000Y-99400000D02*
X518601700Y-99400000D01*
X431000000Y-265500000D02*
X432900000Y-267400000D01*
D20*
X319000000Y-212000000D02*
X316500000Y-212000000D01*
X433550000Y-211400000D02*
X431600000Y-211400000D01*
D22*
X488000000Y-208500000D02*
X487000000Y-209500000D01*
D20*
X431600000Y-267400000D02*
X431000000Y-268000000D01*
X375600000Y-239400000D02*
X375000000Y-240000000D01*
D22*
X320000000Y-208500000D02*
X319000000Y-209500000D01*
X403000000Y-97500000D02*
X404900000Y-99400000D01*
X376000000Y-152500000D02*
X375000000Y-153500000D01*
D20*
X489550000Y-127400000D02*
X487600000Y-127400000D01*
D22*
X460000000Y-152500000D02*
X459000000Y-153500000D01*
X516900000Y-155400000D02*
X517550000Y-155400000D01*
D20*
X319000000Y-156000000D02*
X316500000Y-156000000D01*
X377550000Y-99400000D02*
X375600000Y-99400000D01*
X403600000Y-99400000D02*
X403000000Y-100000000D01*
X321550000Y-183400000D02*
X319600000Y-183400000D01*
D22*
X437000000Y-68500000D02*
X432000000Y-68500000D01*
X431000000Y-125500000D02*
X432900000Y-127400000D01*
X404000000Y-68500000D02*
X403000000Y-69500000D01*
D20*
X515600000Y-71400000D02*
X515000000Y-72000000D01*
D22*
X404900000Y-155400000D02*
X405550000Y-155400000D01*
X515000000Y-237500000D02*
X516900000Y-239400000D01*
X376900000Y-183400000D02*
X377550000Y-183400000D01*
D20*
X489550000Y-239400000D02*
X487600000Y-239400000D01*
D22*
X403000000Y-69500000D02*
X404900000Y-71400000D01*
X521000000Y-264500000D02*
X516000000Y-264500000D01*
D20*
X517550000Y-211400000D02*
X515600000Y-211400000D01*
D22*
X320000000Y-180500000D02*
X319000000Y-181500000D01*
D20*
X487600000Y-155400000D02*
X487000000Y-156000000D01*
X405550000Y-267400000D02*
X403600000Y-267400000D01*
D22*
X516000000Y-152500000D02*
X515000000Y-153500000D01*
X465000000Y-152500000D02*
X460000000Y-152500000D01*
D20*
X433550000Y-127400000D02*
X431600000Y-127400000D01*
D22*
X325000000Y-236500000D02*
X320000000Y-236500000D01*
D20*
X403600000Y-127400000D02*
X403000000Y-128000000D01*
D22*
X353000000Y-180500000D02*
X348000000Y-180500000D01*
X437000000Y-180500000D02*
X432000000Y-180500000D01*
X347000000Y-265500000D02*
X348900000Y-267400000D01*
D20*
X321550000Y-71400000D02*
X319600000Y-71400000D01*
X517550000Y-267400000D02*
X515600000Y-267400000D01*
X319000000Y-128000000D02*
X316500000Y-128000000D01*
X375600000Y-99400000D02*
X375000000Y-100000000D01*
X349550000Y-239400000D02*
X347600000Y-239400000D01*
D22*
X521000000Y-97001700D02*
X521000000Y-96500000D01*
D20*
X405550000Y-155400000D02*
X403600000Y-155400000D01*
D22*
X409000000Y-236500000D02*
X404000000Y-236500000D01*
D20*
X459600000Y-127400000D02*
X459000000Y-128000000D01*
D22*
X348900000Y-99400000D02*
X349550000Y-99400000D01*
D20*
X403600000Y-267400000D02*
X403000000Y-268000000D01*
X487600000Y-183400000D02*
X487000000Y-184000000D01*
X319600000Y-71400000D02*
X319000000Y-72000000D01*
X377550000Y-267400000D02*
X375600000Y-267400000D01*
X347600000Y-71400000D02*
X347000000Y-72000000D01*
D22*
X459000000Y-237500000D02*
X460900000Y-239400000D01*
D20*
X459600000Y-71400000D02*
X459000000Y-72000000D01*
X377550000Y-211400000D02*
X375600000Y-211400000D01*
X403600000Y-239400000D02*
X403000000Y-240000000D01*
X517550000Y-155400000D02*
X515600000Y-155400000D01*
D22*
X404900000Y-127400000D02*
X405550000Y-127400000D01*
X487000000Y-265500000D02*
X488900000Y-267400000D01*
X348000000Y-124500000D02*
X347000000Y-125500000D01*
X437000000Y-124500000D02*
X432000000Y-124500000D01*
X488900000Y-267400000D02*
X489550000Y-267400000D01*
X488000000Y-152500000D02*
X487000000Y-153500000D01*
D20*
X461550000Y-239400000D02*
X459600000Y-239400000D01*
D22*
X493000000Y-124500000D02*
X488000000Y-124500000D01*
X432900000Y-211400000D02*
X433550000Y-211400000D01*
X516000000Y-68500000D02*
X515000000Y-69500000D01*
X353000000Y-236500000D02*
X348000000Y-236500000D01*
X376000000Y-236500000D02*
X375000000Y-237500000D01*
X515000000Y-153500000D02*
X516900000Y-155400000D01*
X404000000Y-264500000D02*
X403000000Y-265500000D01*
X375000000Y-125500000D02*
X376900000Y-127400000D01*
X515000000Y-125500000D02*
X516900000Y-127400000D01*
X432000000Y-152500000D02*
X431000000Y-153500000D01*
X325000000Y-264500000D02*
X320000000Y-264500000D01*
X403000000Y-237500000D02*
X404900000Y-239400000D01*
X431000000Y-181500000D02*
X432900000Y-183400000D01*
X516900000Y-99400000D02*
X517550000Y-99400000D01*
X488000000Y-264500000D02*
X487000000Y-265500000D01*
X460900000Y-71400000D02*
X461550000Y-71400000D01*
X459000000Y-125500000D02*
X460900000Y-127400000D01*
X381000000Y-124500000D02*
X376000000Y-124500000D01*
X320000000Y-264500000D02*
X319000000Y-265500000D01*
X432900000Y-99400000D02*
X433550000Y-99400000D01*
D20*
X349550000Y-211400000D02*
X347600000Y-211400000D01*
X433550000Y-183400000D02*
X431600000Y-183400000D01*
D22*
X460000000Y-264500000D02*
X459000000Y-265500000D01*
X515000000Y-181500000D02*
X516900000Y-183400000D01*
X404000000Y-208500000D02*
X403000000Y-209500000D01*
D20*
X480500000Y-72000000D02*
X480500000Y-77500000D01*
D22*
X376000000Y-96500000D02*
X375000000Y-97500000D01*
X493000000Y-68500000D02*
X495000000Y-68500000D01*
D20*
X319600000Y-127400000D02*
X319000000Y-128000000D01*
X316400000Y-268000000D02*
X319000000Y-268000000D01*
X515600000Y-127400000D02*
X515000000Y-128000000D01*
D22*
X320900000Y-211400000D02*
X321550000Y-211400000D01*
X487000000Y-181500000D02*
X488900000Y-183400000D01*
X487000000Y-69500000D02*
X488900000Y-71400000D01*
X432000000Y-264500000D02*
X431000000Y-265500000D01*
X437000000Y-96500000D02*
X432000000Y-96500000D01*
X516000000Y-236500000D02*
X515000000Y-237500000D01*
X325000000Y-152500000D02*
X320000000Y-152500000D01*
G04 #@! TO.N,Net-(D8-DO)*
X522450000Y-71400000D02*
X523400000Y-71400000D01*
X321550000Y-102600000D02*
X319100000Y-102600000D01*
X523400000Y-71400000D02*
X526000000Y-74000000D01*
X526000000Y-74000000D02*
X526000000Y-87000000D01*
X319100000Y-102600000D02*
X319000000Y-102500000D01*
G04 #@! TO.N,Net-(D10-DIN)*
X326450000Y-99400000D02*
X335400000Y-99400000D01*
X335400000Y-99400000D02*
X338600000Y-102600000D01*
X338600000Y-102600000D02*
X349550000Y-102600000D01*
G04 #@! TO.N,Net-(D10-DO)*
X366600000Y-102600000D02*
X377550000Y-102600000D01*
X363400000Y-99400000D02*
X366600000Y-102600000D01*
X354450000Y-99400000D02*
X363400000Y-99400000D01*
G04 #@! TO.N,Net-(D11-DO)*
X394600000Y-102600000D02*
X405550000Y-102600000D01*
X382450000Y-99400000D02*
X391400000Y-99400000D01*
X391400000Y-99400000D02*
X394600000Y-102600000D01*
G04 #@! TO.N,Net-(D12-DO)*
X419400000Y-99400000D02*
X422600000Y-102600000D01*
X410450000Y-99400000D02*
X419400000Y-99400000D01*
X422600000Y-102600000D02*
X433550000Y-102600000D01*
G04 #@! TO.N,Net-(D13-DO)*
X438450000Y-99400000D02*
X447400000Y-99400000D01*
X447400000Y-99400000D02*
X450600000Y-102600000D01*
X450600000Y-102600000D02*
X461550000Y-102600000D01*
G04 #@! TO.N,Net-(D14-DO)*
X478600000Y-102600000D02*
X489550000Y-102600000D01*
X466450000Y-99400000D02*
X475400000Y-99400000D01*
X475400000Y-99400000D02*
X478600000Y-102600000D01*
G04 #@! TO.N,Net-(D15-DO)*
X506600000Y-102600000D02*
X517550000Y-102600000D01*
X494450000Y-99400000D02*
X503400000Y-99400000D01*
X503400000Y-99400000D02*
X506600000Y-102600000D01*
G04 #@! TO.N,Net-(D16-DO)*
X522450000Y-99400000D02*
X523400000Y-99400000D01*
X319100000Y-130600000D02*
X319000000Y-130500000D01*
X321550000Y-130600000D02*
X319100000Y-130600000D01*
X526000000Y-102000000D02*
X526000000Y-115000000D01*
X523400000Y-99400000D02*
X526000000Y-102000000D01*
G04 #@! TO.N,Net-(D17-DO)*
X326450000Y-127400000D02*
X335400000Y-127400000D01*
X335400000Y-127400000D02*
X338600000Y-130600000D01*
X338600000Y-130600000D02*
X349550000Y-130600000D01*
G04 #@! TO.N,Net-(D18-DO)*
X366600000Y-130600000D02*
X377550000Y-130600000D01*
X363400000Y-127400000D02*
X366600000Y-130600000D01*
X354450000Y-127400000D02*
X363400000Y-127400000D01*
G04 #@! TO.N,Net-(D19-DO)*
X391400000Y-127400000D02*
X394600000Y-130600000D01*
X394600000Y-130600000D02*
X405550000Y-130600000D01*
X382450000Y-127400000D02*
X391400000Y-127400000D01*
G04 #@! TO.N,Net-(D20-DO)*
X410450000Y-127400000D02*
X419400000Y-127400000D01*
X419400000Y-127400000D02*
X422600000Y-130600000D01*
X422600000Y-130600000D02*
X433550000Y-130600000D01*
G04 #@! TO.N,Net-(D21-DO)*
X438450000Y-127400000D02*
X447400000Y-127400000D01*
X447400000Y-127400000D02*
X450600000Y-130600000D01*
X450600000Y-130600000D02*
X461550000Y-130600000D01*
G04 #@! TO.N,Net-(D22-DO)*
X475400000Y-127400000D02*
X478600000Y-130600000D01*
X466450000Y-127400000D02*
X475400000Y-127400000D01*
X478600000Y-130600000D02*
X489550000Y-130600000D01*
G04 #@! TO.N,Net-(D23-DO)*
X506600000Y-130600000D02*
X517550000Y-130600000D01*
X503400000Y-127400000D02*
X506600000Y-130600000D01*
X494450000Y-127400000D02*
X503400000Y-127400000D01*
G04 #@! TO.N,Net-(D24-DO)*
X523400000Y-127400000D02*
X526000000Y-130000000D01*
X522450000Y-127400000D02*
X523400000Y-127400000D01*
X319100000Y-158600000D02*
X319000000Y-158500000D01*
X526000000Y-130000000D02*
X526000000Y-143000000D01*
X321550000Y-158600000D02*
X319100000Y-158600000D01*
G04 #@! TO.N,Net-(D25-DO)*
X335400000Y-155400000D02*
X338600000Y-158600000D01*
X338600000Y-158600000D02*
X349550000Y-158600000D01*
X326450000Y-155400000D02*
X335400000Y-155400000D01*
G04 #@! TO.N,Net-(D26-DO)*
X366600000Y-158600000D02*
X377550000Y-158600000D01*
X354450000Y-155400000D02*
X363400000Y-155400000D01*
X363400000Y-155400000D02*
X366600000Y-158600000D01*
G04 #@! TO.N,Net-(D27-DO)*
X382450000Y-155400000D02*
X391400000Y-155400000D01*
X391400000Y-155400000D02*
X394600000Y-158600000D01*
X394600000Y-158600000D02*
X405550000Y-158600000D01*
G04 #@! TO.N,Net-(D28-DO)*
X422600000Y-158600000D02*
X433550000Y-158600000D01*
X419400000Y-155400000D02*
X422600000Y-158600000D01*
X410450000Y-155400000D02*
X419400000Y-155400000D01*
G04 #@! TO.N,Net-(D29-DO)*
X450600000Y-158600000D02*
X461550000Y-158600000D01*
X438450000Y-155400000D02*
X447400000Y-155400000D01*
X447400000Y-155400000D02*
X450600000Y-158600000D01*
G04 #@! TO.N,Net-(D30-DO)*
X478600000Y-158600000D02*
X489550000Y-158600000D01*
X475400000Y-155400000D02*
X478600000Y-158600000D01*
X466450000Y-155400000D02*
X475400000Y-155400000D01*
G04 #@! TO.N,Net-(D31-DO)*
X506600000Y-158600000D02*
X517550000Y-158600000D01*
X503400000Y-155400000D02*
X506600000Y-158600000D01*
X494450000Y-155400000D02*
X503400000Y-155400000D01*
G04 #@! TO.N,Net-(D32-DO)*
X319100000Y-186600000D02*
X319000000Y-186500000D01*
X522450000Y-155400000D02*
X523400000Y-155400000D01*
X523400000Y-155400000D02*
X526000000Y-158000000D01*
X526000000Y-158000000D02*
X526000000Y-171000000D01*
X321550000Y-186600000D02*
X319100000Y-186600000D01*
G04 #@! TO.N,Net-(D33-DO)*
X326450000Y-183400000D02*
X335400000Y-183400000D01*
X335400000Y-183400000D02*
X338600000Y-186600000D01*
X338600000Y-186600000D02*
X349550000Y-186600000D01*
G04 #@! TO.N,Net-(D34-DO)*
X366600000Y-186600000D02*
X377550000Y-186600000D01*
X354450000Y-183400000D02*
X363400000Y-183400000D01*
X363400000Y-183400000D02*
X366600000Y-186600000D01*
G04 #@! TO.N,Net-(D35-DO)*
X391400000Y-183400000D02*
X394600000Y-186600000D01*
X394600000Y-186600000D02*
X405550000Y-186600000D01*
X382450000Y-183400000D02*
X391400000Y-183400000D01*
G04 #@! TO.N,Net-(D36-DO)*
X422600000Y-186600000D02*
X433550000Y-186600000D01*
X419400000Y-183400000D02*
X422600000Y-186600000D01*
X410450000Y-183400000D02*
X419400000Y-183400000D01*
G04 #@! TO.N,Net-(D37-DO)*
X438450000Y-183400000D02*
X447400000Y-183400000D01*
X450600000Y-186600000D02*
X461550000Y-186600000D01*
X447400000Y-183400000D02*
X450600000Y-186600000D01*
G04 #@! TO.N,Net-(D38-DO)*
X466450000Y-183400000D02*
X475400000Y-183400000D01*
X475400000Y-183400000D02*
X478600000Y-186600000D01*
X478600000Y-186600000D02*
X489550000Y-186600000D01*
G04 #@! TO.N,Net-(D39-DO)*
X506600000Y-186600000D02*
X517550000Y-186600000D01*
X503400000Y-183400000D02*
X506600000Y-186600000D01*
X494450000Y-183400000D02*
X503400000Y-183400000D01*
G04 #@! TO.N,Net-(D40-DO)*
X321550000Y-214600000D02*
X319100000Y-214600000D01*
X319100000Y-214600000D02*
X319000000Y-214500000D01*
X522450000Y-183400000D02*
X523400000Y-183400000D01*
X523400000Y-183400000D02*
X526000000Y-186000000D01*
X526000000Y-186000000D02*
X526000000Y-199000000D01*
G04 #@! TO.N,Net-(D41-DO)*
X335400000Y-211400000D02*
X338600000Y-214600000D01*
X326450000Y-211400000D02*
X335400000Y-211400000D01*
X338600000Y-214600000D02*
X349550000Y-214600000D01*
G04 #@! TO.N,Net-(D42-DO)*
X363400000Y-211400000D02*
X366600000Y-214600000D01*
X354450000Y-211400000D02*
X363400000Y-211400000D01*
X366600000Y-214600000D02*
X377550000Y-214600000D01*
G04 #@! TO.N,Net-(D43-DO)*
X391400000Y-211400000D02*
X394600000Y-214600000D01*
X382450000Y-211400000D02*
X391400000Y-211400000D01*
X394600000Y-214600000D02*
X405550000Y-214600000D01*
G04 #@! TO.N,Net-(D44-DO)*
X410450000Y-211400000D02*
X419400000Y-211400000D01*
X422600000Y-214600000D02*
X433550000Y-214600000D01*
X419400000Y-211400000D02*
X422600000Y-214600000D01*
G04 #@! TO.N,Net-(D45-DO)*
X447400000Y-211400000D02*
X450600000Y-214600000D01*
X438450000Y-211400000D02*
X447400000Y-211400000D01*
X450600000Y-214600000D02*
X461550000Y-214600000D01*
G04 #@! TO.N,Net-(D46-DO)*
X478600000Y-214600000D02*
X489550000Y-214600000D01*
X475400000Y-211400000D02*
X478600000Y-214600000D01*
X466450000Y-211400000D02*
X475400000Y-211400000D01*
G04 #@! TO.N,Net-(D47-DO)*
X503400000Y-211400000D02*
X506600000Y-214600000D01*
X494450000Y-211400000D02*
X503400000Y-211400000D01*
X506600000Y-214600000D02*
X517550000Y-214600000D01*
G04 #@! TO.N,Net-(D48-DO)*
X321550000Y-242600000D02*
X319100000Y-242600000D01*
X319100000Y-242600000D02*
X319000000Y-242500000D01*
X522450000Y-211400000D02*
X523400000Y-211400000D01*
X523400000Y-211400000D02*
X526000000Y-214000000D01*
X526000000Y-214000000D02*
X526000000Y-227000000D01*
G04 #@! TO.N,Net-(D49-DO)*
X335400000Y-239400000D02*
X338600000Y-242600000D01*
X326450000Y-239400000D02*
X335400000Y-239400000D01*
X338600000Y-242600000D02*
X349550000Y-242600000D01*
G04 #@! TO.N,Net-(D50-DO)*
X354450000Y-239400000D02*
X363400000Y-239400000D01*
X366600000Y-242600000D02*
X377550000Y-242600000D01*
X363400000Y-239400000D02*
X366600000Y-242600000D01*
G04 #@! TO.N,Net-(D51-DO)*
X391400000Y-239400000D02*
X394600000Y-242600000D01*
X394600000Y-242600000D02*
X405550000Y-242600000D01*
X382450000Y-239400000D02*
X391400000Y-239400000D01*
G04 #@! TO.N,Net-(D52-DO)*
X422600000Y-242600000D02*
X433550000Y-242600000D01*
X419400000Y-239400000D02*
X422600000Y-242600000D01*
X410450000Y-239400000D02*
X419400000Y-239400000D01*
G04 #@! TO.N,Net-(D53-DO)*
X447400000Y-239400000D02*
X450600000Y-242600000D01*
X438450000Y-239400000D02*
X447400000Y-239400000D01*
X450600000Y-242600000D02*
X461550000Y-242600000D01*
G04 #@! TO.N,Net-(D54-DO)*
X478600000Y-242600000D02*
X489550000Y-242600000D01*
X466450000Y-239400000D02*
X475400000Y-239400000D01*
X475400000Y-239400000D02*
X478600000Y-242600000D01*
G04 #@! TO.N,Net-(D55-DO)*
X494450000Y-239400000D02*
X503400000Y-239400000D01*
X506600000Y-242600000D02*
X517550000Y-242600000D01*
X503400000Y-239400000D02*
X506600000Y-242600000D01*
G04 #@! TO.N,Net-(D56-DO)*
X319100000Y-270600000D02*
X319000000Y-270500000D01*
X321550000Y-270600000D02*
X319100000Y-270600000D01*
X522450000Y-239400000D02*
X523400000Y-239400000D01*
X526000000Y-242000000D02*
X526000000Y-255000000D01*
X523400000Y-239400000D02*
X526000000Y-242000000D01*
G04 #@! TO.N,Net-(D57-DO)*
X326450000Y-267400000D02*
X335400000Y-267400000D01*
X335400000Y-267400000D02*
X338600000Y-270600000D01*
X338600000Y-270600000D02*
X349550000Y-270600000D01*
G04 #@! TO.N,Net-(D58-DO)*
X366600000Y-270600000D02*
X377550000Y-270600000D01*
X354450000Y-267400000D02*
X363400000Y-267400000D01*
X363400000Y-267400000D02*
X366600000Y-270600000D01*
G04 #@! TO.N,Net-(D59-DO)*
X391400000Y-267400000D02*
X394600000Y-270600000D01*
X394600000Y-270600000D02*
X405550000Y-270600000D01*
X382450000Y-267400000D02*
X391400000Y-267400000D01*
G04 #@! TO.N,Net-(D60-DO)*
X419400000Y-267400000D02*
X422600000Y-270600000D01*
X410450000Y-267400000D02*
X419400000Y-267400000D01*
X422600000Y-270600000D02*
X433550000Y-270600000D01*
G04 #@! TO.N,Net-(D61-DO)*
X447400000Y-267400000D02*
X450600000Y-270600000D01*
X438450000Y-267400000D02*
X447400000Y-267400000D01*
X450600000Y-270600000D02*
X461550000Y-270600000D01*
G04 #@! TO.N,Net-(D62-DO)*
X466450000Y-267400000D02*
X475400000Y-267400000D01*
X478600000Y-270600000D02*
X489550000Y-270600000D01*
X475400000Y-267400000D02*
X478600000Y-270600000D01*
G04 #@! TO.N,Net-(D63-DO)*
X506600000Y-270600000D02*
X517550000Y-270600000D01*
X503400000Y-267400000D02*
X506600000Y-270600000D01*
X494450000Y-267400000D02*
X503400000Y-267400000D01*
G04 #@! TO.N,Net-(A1-D5)*
X317700000Y-72700000D02*
X319600000Y-74600000D01*
X509450000Y-65450000D02*
X321050000Y-65450000D01*
X319600000Y-74600000D02*
X321550000Y-74600000D01*
X317700000Y-68800000D02*
X317700000Y-72700000D01*
X321050000Y-65450000D02*
X317700000Y-68800000D01*
X511000000Y-67000000D02*
X509450000Y-65450000D01*
G04 #@! TO.N,Net-(A1-D3)*
X486200000Y-73800000D02*
X485700000Y-73300000D01*
X503450000Y-66950000D02*
X504500000Y-68000000D01*
X490600000Y-80400000D02*
X490600000Y-73800000D01*
X490600000Y-73800000D02*
X486200000Y-73800000D01*
X485700000Y-69800000D02*
X488550000Y-66950000D01*
X488550000Y-66950000D02*
X503450000Y-66950000D01*
X504500000Y-68000000D02*
X507000000Y-68000000D01*
X439925000Y-89575000D02*
X441500000Y-88000000D01*
X438825000Y-90820000D02*
X439925000Y-89720000D01*
X439925000Y-89720000D02*
X439925000Y-89575000D01*
X483000000Y-88000000D02*
X490600000Y-80400000D01*
X441500000Y-88000000D02*
X460500000Y-88000000D01*
X485700000Y-73300000D02*
X485700000Y-69800000D01*
G04 #@! TO.N,Net-(A1-D8)*
X377500000Y-125500000D02*
X379075000Y-125500000D01*
X527000000Y-102434314D02*
X527000000Y-122500000D01*
X405500000Y-125500000D02*
X407075000Y-125500000D01*
X519500000Y-77500000D02*
X524550000Y-82550000D01*
X407525000Y-131000000D02*
X408500000Y-131975000D01*
X323125000Y-125450000D02*
X324950000Y-125450000D01*
X436950000Y-125450000D02*
X437000000Y-125500000D01*
X352950000Y-125450000D02*
X353000000Y-125500000D01*
X379075000Y-125500000D02*
X379125000Y-125450000D01*
X411500000Y-124565685D02*
X407525000Y-128540685D01*
X463075000Y-125500000D02*
X463125000Y-125450000D01*
X407075000Y-125500000D02*
X407125000Y-125450000D01*
X464950000Y-125450000D02*
X465000000Y-125500000D01*
X407125000Y-125450000D02*
X408950000Y-125450000D01*
X407525000Y-128540685D02*
X407525000Y-131000000D01*
X527000000Y-122500000D02*
X524000000Y-125500000D01*
X524550000Y-82550000D02*
X524550000Y-99984314D01*
X411500000Y-124500000D02*
X411500000Y-124565685D01*
X491125000Y-125450000D02*
X492950000Y-125450000D01*
X408500000Y-131975000D02*
X408500000Y-133500000D01*
X351075000Y-125500000D02*
X351125000Y-125450000D01*
X433500000Y-125500000D02*
X435075000Y-125500000D01*
X380950000Y-125450000D02*
X381000000Y-125500000D01*
X349500000Y-125500000D02*
X351075000Y-125500000D01*
X408950000Y-125450000D02*
X409000000Y-125500000D01*
X519075000Y-125500000D02*
X519125000Y-125450000D01*
X463125000Y-125450000D02*
X464950000Y-125450000D01*
X524550000Y-99984314D02*
X527000000Y-102434314D01*
X492950000Y-125450000D02*
X493000000Y-125500000D01*
X435125000Y-125450000D02*
X436950000Y-125450000D01*
X517500000Y-125500000D02*
X519075000Y-125500000D01*
X461500000Y-125500000D02*
X463075000Y-125500000D01*
X379125000Y-125450000D02*
X380950000Y-125450000D01*
X435075000Y-125500000D02*
X435125000Y-125450000D01*
X324950000Y-125450000D02*
X325000000Y-125500000D01*
X489500000Y-125500000D02*
X491075000Y-125500000D01*
X491075000Y-125500000D02*
X491125000Y-125450000D01*
X351125000Y-125450000D02*
X352950000Y-125450000D01*
G04 #@! TO.N,Net-(A1-D13{slash}SCK)*
X408950000Y-265450000D02*
X409000000Y-265500000D01*
X407075000Y-265500000D02*
X407125000Y-265450000D01*
X349500000Y-265500000D02*
X351075000Y-265500000D01*
X461500000Y-265500000D02*
X463075000Y-265500000D01*
X464950000Y-265450000D02*
X465000000Y-265500000D01*
X380950000Y-265450000D02*
X381000000Y-265500000D01*
X324950000Y-265450000D02*
X325000000Y-265500000D01*
X529540000Y-83960000D02*
X529540000Y-259960000D01*
X436950000Y-265450000D02*
X437000000Y-265500000D01*
X435075000Y-265500000D02*
X435125000Y-265450000D01*
X491125000Y-265450000D02*
X492950000Y-265450000D01*
X379075000Y-265500000D02*
X379125000Y-265450000D01*
X352950000Y-265450000D02*
X353000000Y-265500000D01*
X407125000Y-265450000D02*
X408950000Y-265450000D01*
X351075000Y-265500000D02*
X351125000Y-265450000D01*
X463125000Y-265450000D02*
X464950000Y-265450000D01*
X435125000Y-265450000D02*
X436950000Y-265450000D01*
X377500000Y-265500000D02*
X379075000Y-265500000D01*
X323125000Y-265450000D02*
X324950000Y-265450000D01*
X519075000Y-265500000D02*
X519125000Y-265450000D01*
X412587500Y-263500000D02*
X411000000Y-263500000D01*
X491075000Y-265500000D02*
X491125000Y-265450000D01*
X463075000Y-265500000D02*
X463125000Y-265450000D01*
X529540000Y-259960000D02*
X524000000Y-265500000D01*
X379125000Y-265450000D02*
X380950000Y-265450000D01*
X433500000Y-265500000D02*
X435075000Y-265500000D01*
X492950000Y-265450000D02*
X493000000Y-265500000D01*
X351125000Y-265450000D02*
X352950000Y-265450000D01*
X489500000Y-265500000D02*
X491075000Y-265500000D01*
X405500000Y-265500000D02*
X407075000Y-265500000D01*
X517500000Y-265500000D02*
X519075000Y-265500000D01*
G04 #@! TO.N,Net-(A1-D6)*
X377500000Y-69500000D02*
X379075000Y-69500000D01*
X491125000Y-69450000D02*
X492950000Y-69450000D01*
X407075000Y-69500000D02*
X407125000Y-69450000D01*
X411500000Y-68565686D02*
X407525000Y-72540686D01*
X352950000Y-69450000D02*
X353000000Y-69500000D01*
X436950000Y-69450000D02*
X437000000Y-69500000D01*
X519075000Y-69500000D02*
X519125000Y-69450000D01*
X379125000Y-69450000D02*
X380950000Y-69450000D01*
X463125000Y-69450000D02*
X464950000Y-69450000D01*
X380950000Y-69450000D02*
X381000000Y-69500000D01*
X464950000Y-69450000D02*
X465000000Y-69500000D01*
X433500000Y-69500000D02*
X435075000Y-69500000D01*
X408950000Y-69450000D02*
X409000000Y-69500000D01*
X492950000Y-69450000D02*
X493000000Y-69500000D01*
X491075000Y-69500000D02*
X491125000Y-69450000D01*
X463075000Y-69500000D02*
X463125000Y-69450000D01*
X351075000Y-69500000D02*
X351125000Y-69450000D01*
X461500000Y-69500000D02*
X463075000Y-69500000D01*
X323125000Y-69450000D02*
X324950000Y-69450000D01*
X407125000Y-69450000D02*
X408950000Y-69450000D01*
X408525000Y-77500000D02*
X409587500Y-77500000D01*
X517500000Y-69500000D02*
X519075000Y-69500000D01*
X435125000Y-69450000D02*
X436950000Y-69450000D01*
X407525000Y-72540686D02*
X407525000Y-76500000D01*
X324950000Y-69450000D02*
X325000000Y-69500000D01*
X405500000Y-69500000D02*
X407075000Y-69500000D01*
X351125000Y-69450000D02*
X352950000Y-69450000D01*
X407525000Y-76500000D02*
X408525000Y-77500000D01*
X379075000Y-69500000D02*
X379125000Y-69450000D01*
X411500000Y-68000000D02*
X411500000Y-68565686D01*
X489500000Y-69500000D02*
X491075000Y-69500000D01*
X435075000Y-69500000D02*
X435125000Y-69450000D01*
X349500000Y-69500000D02*
X351075000Y-69500000D01*
G04 #@! TO.N,Net-(A1-D7)*
X407125000Y-97450000D02*
X408950000Y-97450000D01*
X464950000Y-97450000D02*
X465000000Y-97500000D01*
X324950000Y-97450000D02*
X325000000Y-97500000D01*
X412675000Y-96000000D02*
X411000000Y-96000000D01*
X517000000Y-90500000D02*
X524000000Y-97500000D01*
X463125000Y-97450000D02*
X464950000Y-97450000D01*
X433500000Y-97500000D02*
X435075000Y-97500000D01*
X349500000Y-97500000D02*
X351075000Y-97500000D01*
X351075000Y-97500000D02*
X351125000Y-97450000D01*
X491125000Y-97450000D02*
X492950000Y-97450000D01*
X489500000Y-97500000D02*
X491075000Y-97500000D01*
X461500000Y-97500000D02*
X463075000Y-97500000D01*
X436950000Y-97450000D02*
X437000000Y-97500000D01*
X351125000Y-97450000D02*
X352950000Y-97450000D01*
X380950000Y-97450000D02*
X381000000Y-97500000D01*
X435125000Y-97450000D02*
X436950000Y-97450000D01*
X517500000Y-97500000D02*
X519075000Y-97500000D01*
X519075000Y-97500000D02*
X519125000Y-97450000D01*
X379125000Y-97450000D02*
X380950000Y-97450000D01*
X491075000Y-97500000D02*
X491125000Y-97450000D01*
X517000000Y-77500000D02*
X517000000Y-90500000D01*
X323125000Y-97450000D02*
X324950000Y-97450000D01*
X405500000Y-97500000D02*
X407075000Y-97500000D01*
X352950000Y-97450000D02*
X353000000Y-97500000D01*
X463075000Y-97500000D02*
X463125000Y-97450000D01*
X408950000Y-97450000D02*
X409000000Y-97500000D01*
X379075000Y-97500000D02*
X379125000Y-97450000D01*
X407075000Y-97500000D02*
X407125000Y-97450000D01*
X435075000Y-97500000D02*
X435125000Y-97450000D01*
X377500000Y-97500000D02*
X379075000Y-97500000D01*
X492950000Y-97450000D02*
X493000000Y-97500000D01*
G04 #@! TO.N,Net-(A1-D10{slash}CS)*
X491075000Y-181500000D02*
X491125000Y-181450000D01*
X461500000Y-181500000D02*
X463075000Y-181500000D01*
X489500000Y-181500000D02*
X491075000Y-181500000D01*
X407075000Y-181500000D02*
X407125000Y-181450000D01*
X324950000Y-181450000D02*
X325000000Y-181500000D01*
X379125000Y-181450000D02*
X380950000Y-181450000D01*
X380950000Y-181450000D02*
X381000000Y-181500000D01*
X525350000Y-87127818D02*
X525350000Y-80350000D01*
X323125000Y-181450000D02*
X324950000Y-181450000D01*
X517500000Y-181500000D02*
X519075000Y-181500000D01*
X463125000Y-181450000D02*
X464950000Y-181450000D01*
X377500000Y-181500000D02*
X379075000Y-181500000D01*
X435125000Y-181450000D02*
X436950000Y-181450000D01*
X463075000Y-181500000D02*
X463125000Y-181450000D01*
X405500000Y-181500000D02*
X407075000Y-181500000D01*
X492950000Y-181450000D02*
X493000000Y-181500000D01*
X407125000Y-181450000D02*
X408950000Y-181450000D01*
X379075000Y-181500000D02*
X379125000Y-181450000D01*
X411000000Y-179500000D02*
X411000000Y-181000000D01*
X433500000Y-181500000D02*
X435075000Y-181500000D01*
X435075000Y-181500000D02*
X435125000Y-181450000D01*
X349500000Y-181500000D02*
X351075000Y-181500000D01*
X436950000Y-181450000D02*
X437000000Y-181500000D01*
X411000000Y-181000000D02*
X409087500Y-182912500D01*
X491125000Y-181450000D02*
X492950000Y-181450000D01*
X527800000Y-89577818D02*
X525350000Y-87127818D01*
X524000000Y-181500000D02*
X527800000Y-177700000D01*
X351075000Y-181500000D02*
X351125000Y-181450000D01*
X464950000Y-181450000D02*
X465000000Y-181500000D01*
X519075000Y-181500000D02*
X519125000Y-181450000D01*
X527800000Y-177700000D02*
X527800000Y-89577818D01*
X352950000Y-181450000D02*
X353000000Y-181500000D01*
X525350000Y-80350000D02*
X523500000Y-78500000D01*
X351125000Y-181450000D02*
X352950000Y-181450000D01*
X409087500Y-182912500D02*
X409087500Y-189500000D01*
X408950000Y-181450000D02*
X409000000Y-181500000D01*
G04 #@! TO.N,Net-(A1-D4)*
X457700000Y-70234314D02*
X461434314Y-66500000D01*
X443789365Y-84300000D02*
X459425000Y-84300000D01*
X461434314Y-66500000D02*
X503862182Y-66500000D01*
X504362182Y-67000000D02*
X509000000Y-67000000D01*
X503862182Y-66500000D02*
X504362182Y-67000000D01*
X436285000Y-90820000D02*
X437269365Y-90820000D01*
X458461522Y-73300000D02*
X457700000Y-72538478D01*
X437269365Y-90820000D02*
X443789365Y-84300000D01*
X462134314Y-73300000D02*
X458461522Y-73300000D01*
X457700000Y-72538478D02*
X457700000Y-70234314D01*
X462725000Y-81000000D02*
X462725000Y-73890686D01*
X459425000Y-84300000D02*
X462725000Y-81000000D01*
X462725000Y-73890686D02*
X462134314Y-73300000D01*
G04 #@! TO.N,Net-(A1-D2)*
X434725000Y-77500000D02*
X432645000Y-79580000D01*
X433934314Y-66000000D02*
X429700000Y-70234314D01*
X434134314Y-73300000D02*
X434725000Y-73890686D01*
X432645000Y-79580000D02*
X432645000Y-89380000D01*
X430461522Y-73300000D02*
X434134314Y-73300000D01*
X429700000Y-72538478D02*
X430461522Y-73300000D01*
X434725000Y-73890686D02*
X434725000Y-77500000D01*
X432645000Y-89380000D02*
X431205000Y-90820000D01*
X429700000Y-70234314D02*
X429700000Y-72538478D01*
X504140000Y-66000000D02*
X433934314Y-66000000D01*
G04 #@! TO.N,Net-(A1-D11{slash}COPI)*
X408950000Y-209450000D02*
X409000000Y-209500000D01*
X349500000Y-209500000D02*
X351075000Y-209500000D01*
X351125000Y-209450000D02*
X352950000Y-209450000D01*
X436950000Y-209450000D02*
X437000000Y-209500000D01*
X461500000Y-209500000D02*
X463075000Y-209500000D01*
X352950000Y-209450000D02*
X353000000Y-209500000D01*
X405500000Y-209500000D02*
X407075000Y-209500000D01*
X491075000Y-209500000D02*
X491125000Y-209450000D01*
X377500000Y-209500000D02*
X379075000Y-209500000D01*
X519075000Y-209500000D02*
X519125000Y-209450000D01*
X379075000Y-209500000D02*
X379125000Y-209450000D01*
X435075000Y-209500000D02*
X435125000Y-209450000D01*
X491125000Y-209450000D02*
X492950000Y-209450000D01*
X464950000Y-209450000D02*
X465000000Y-209500000D01*
X380950000Y-209450000D02*
X381000000Y-209500000D01*
X407125000Y-209450000D02*
X408950000Y-209450000D01*
X412587500Y-208500000D02*
X411000000Y-208500000D01*
X527000000Y-77500000D02*
X528500000Y-79000000D01*
X435125000Y-209450000D02*
X436950000Y-209450000D01*
X463075000Y-209500000D02*
X463125000Y-209450000D01*
X351075000Y-209500000D02*
X351125000Y-209450000D01*
X489500000Y-209500000D02*
X491075000Y-209500000D01*
X517500000Y-209500000D02*
X519075000Y-209500000D01*
X492950000Y-209450000D02*
X493000000Y-209500000D01*
X379125000Y-209450000D02*
X380950000Y-209450000D01*
X324950000Y-209450000D02*
X325000000Y-209500000D01*
X323125000Y-209450000D02*
X324950000Y-209450000D01*
X528500000Y-205000000D02*
X524000000Y-209500000D01*
X528500000Y-79000000D02*
X528500000Y-205000000D01*
X433500000Y-209500000D02*
X435075000Y-209500000D01*
X463125000Y-209450000D02*
X464950000Y-209450000D01*
X407075000Y-209500000D02*
X407125000Y-209450000D01*
G04 #@! TO.N,Net-(A1-D12{slash}CIPO)*
X517500000Y-237500000D02*
X519075000Y-237500000D01*
X529000000Y-232500000D02*
X524000000Y-237500000D01*
X463125000Y-237450000D02*
X464950000Y-237450000D01*
X379125000Y-237450000D02*
X380950000Y-237450000D01*
X435125000Y-237450000D02*
X436950000Y-237450000D01*
X323125000Y-237450000D02*
X324950000Y-237450000D01*
X407075000Y-237500000D02*
X407125000Y-237450000D01*
X528990000Y-78010000D02*
X528990000Y-84187818D01*
X492950000Y-237450000D02*
X493000000Y-237500000D01*
X529000000Y-84197818D02*
X529000000Y-232500000D01*
X528990000Y-84187818D02*
X529000000Y-84197818D01*
X411000000Y-237000000D02*
X409150000Y-238850000D01*
X461500000Y-237500000D02*
X463075000Y-237500000D01*
X409150000Y-238850000D02*
X409150000Y-245562500D01*
X435075000Y-237500000D02*
X435125000Y-237450000D01*
X464950000Y-237450000D02*
X465000000Y-237500000D01*
X324950000Y-237450000D02*
X325000000Y-237500000D01*
X349500000Y-237500000D02*
X351075000Y-237500000D01*
X411000000Y-236000000D02*
X411000000Y-237000000D01*
X352950000Y-237450000D02*
X353000000Y-237500000D01*
X491125000Y-237450000D02*
X492950000Y-237450000D01*
X377500000Y-237500000D02*
X379075000Y-237500000D01*
X351075000Y-237500000D02*
X351125000Y-237450000D01*
X405500000Y-237500000D02*
X407075000Y-237500000D01*
X407125000Y-237450000D02*
X408950000Y-237450000D01*
X529500000Y-77500000D02*
X528990000Y-78010000D01*
X351125000Y-237450000D02*
X352950000Y-237450000D01*
X436950000Y-237450000D02*
X437000000Y-237500000D01*
X409150000Y-245562500D02*
X409587500Y-246000000D01*
X463075000Y-237500000D02*
X463125000Y-237450000D01*
X519075000Y-237500000D02*
X519125000Y-237450000D01*
X408950000Y-237450000D02*
X409000000Y-237500000D01*
X380950000Y-237450000D02*
X381000000Y-237500000D01*
X433500000Y-237500000D02*
X435075000Y-237500000D01*
X491075000Y-237500000D02*
X491125000Y-237450000D01*
X489500000Y-237500000D02*
X491075000Y-237500000D01*
X379075000Y-237500000D02*
X379125000Y-237450000D01*
G04 #@! TO.N,Net-(A1-D9)*
X408950000Y-153450000D02*
X409000000Y-153500000D01*
X524950000Y-99818628D02*
X527400000Y-102268628D01*
X323125000Y-153450000D02*
X324950000Y-153450000D01*
X351075000Y-153500000D02*
X351125000Y-153450000D01*
X489500000Y-153500000D02*
X491075000Y-153500000D01*
X492950000Y-153450000D02*
X493000000Y-153500000D01*
X435075000Y-153500000D02*
X435125000Y-153450000D01*
X349500000Y-153500000D02*
X351075000Y-153500000D01*
X379075000Y-153500000D02*
X379125000Y-153450000D01*
X380950000Y-153450000D02*
X381000000Y-153500000D01*
X407075000Y-153500000D02*
X407125000Y-153450000D01*
X519075000Y-153500000D02*
X519125000Y-153450000D01*
X517500000Y-153500000D02*
X519075000Y-153500000D01*
X527400000Y-102268628D02*
X527400000Y-150100000D01*
X407125000Y-153450000D02*
X408950000Y-153450000D01*
X433500000Y-153500000D02*
X435075000Y-153500000D01*
X351125000Y-153450000D02*
X352950000Y-153450000D01*
X405500000Y-153500000D02*
X407075000Y-153500000D01*
X436950000Y-153450000D02*
X437000000Y-153500000D01*
X324950000Y-153450000D02*
X325000000Y-153500000D01*
X524950000Y-81450000D02*
X524950000Y-99818628D01*
X379125000Y-153450000D02*
X380950000Y-153450000D01*
X521500000Y-78000000D02*
X524950000Y-81450000D01*
X491125000Y-153450000D02*
X492950000Y-153450000D01*
X527400000Y-150100000D02*
X524000000Y-153500000D01*
X464950000Y-153450000D02*
X465000000Y-153500000D01*
X412175000Y-152000000D02*
X411000000Y-152000000D01*
X352950000Y-153450000D02*
X353000000Y-153500000D01*
X435125000Y-153450000D02*
X436950000Y-153450000D01*
X461500000Y-153500000D02*
X463075000Y-153500000D01*
X463125000Y-153450000D02*
X464950000Y-153450000D01*
X463075000Y-153500000D02*
X463125000Y-153450000D01*
X491075000Y-153500000D02*
X491125000Y-153450000D01*
X377500000Y-153500000D02*
X379075000Y-153500000D01*
G04 #@! TO.N,Net-(U1-VCC)*
X326037500Y-236159448D02*
X326037500Y-237962500D01*
X325428052Y-151550000D02*
X326037500Y-152159448D01*
X323125000Y-179550000D02*
X325428052Y-179550000D01*
X326037500Y-180159448D02*
X326037500Y-181962500D01*
X326037500Y-208159448D02*
X326037500Y-209962500D01*
X323125000Y-67550000D02*
X325428052Y-67550000D01*
X325428052Y-235550000D02*
X326037500Y-236159448D01*
X323125000Y-72875000D02*
X323125000Y-95550000D01*
X323125000Y-207550000D02*
X325428052Y-207550000D01*
X326037500Y-237962500D02*
X323125000Y-240875000D01*
X326500000Y-93500000D02*
X324450000Y-95550000D01*
X323125000Y-184875000D02*
X323125000Y-207550000D01*
X325428052Y-95550000D02*
X326037500Y-96159448D01*
X326037500Y-125962500D02*
X323125000Y-128875000D01*
X326037500Y-96159448D02*
X326037500Y-97962500D01*
X324450000Y-95550000D02*
X323125000Y-95550000D01*
X323125000Y-100875000D02*
X323125000Y-123550000D01*
X323125000Y-128875000D02*
X323125000Y-151550000D01*
X323125000Y-156875000D02*
X323125000Y-179550000D01*
X325428052Y-207550000D02*
X326037500Y-208159448D01*
X325428052Y-179550000D02*
X326037500Y-180159448D01*
X323125000Y-235550000D02*
X325428052Y-235550000D01*
X323125000Y-151550000D02*
X325428052Y-151550000D01*
X323125000Y-95550000D02*
X325428052Y-95550000D01*
X325428052Y-123550000D02*
X326037500Y-124159448D01*
X323125000Y-212875000D02*
X323125000Y-235550000D01*
X326037500Y-97962500D02*
X323125000Y-100875000D01*
X323125000Y-240875000D02*
X323125000Y-263550000D01*
X326037500Y-153962500D02*
X323125000Y-156875000D01*
X326037500Y-152159448D02*
X326037500Y-153962500D01*
X326037500Y-124159448D02*
X326037500Y-125962500D01*
X326037500Y-68159448D02*
X326037500Y-69962500D01*
X326037500Y-181962500D02*
X323125000Y-184875000D01*
X323125000Y-123550000D02*
X325428052Y-123550000D01*
X325428052Y-67550000D02*
X326037500Y-68159448D01*
X326037500Y-209962500D02*
X323125000Y-212875000D01*
X326037500Y-69962500D02*
X323125000Y-72875000D01*
G04 #@! TO.N,Net-(U10-VCC)*
X354037500Y-181962500D02*
X351125000Y-184875000D01*
X351125000Y-67550000D02*
X351260000Y-67415000D01*
X354037500Y-68159448D02*
X354037500Y-69962500D01*
X351125000Y-72875000D02*
X351125000Y-83500000D01*
X353428052Y-179550000D02*
X354037500Y-180159448D01*
X351125000Y-212875000D02*
X351125000Y-235550000D01*
X351125000Y-83500000D02*
X351125000Y-95550000D01*
X354037500Y-124159448D02*
X354037500Y-125962500D01*
X353428052Y-95550000D02*
X354037500Y-96159448D01*
X354037500Y-208159448D02*
X354037500Y-209962500D01*
X351125000Y-128875000D02*
X351125000Y-151550000D01*
X351125000Y-184875000D02*
X351125000Y-207550000D01*
X354037500Y-236159448D02*
X354037500Y-237962500D01*
X353428052Y-67550000D02*
X354037500Y-68159448D01*
X351125000Y-95550000D02*
X353428052Y-95550000D01*
X351125000Y-240875000D02*
X351125000Y-263550000D01*
X351125000Y-151550000D02*
X353428052Y-151550000D01*
X353428052Y-207550000D02*
X354037500Y-208159448D01*
X351125000Y-179550000D02*
X353428052Y-179550000D01*
X351125000Y-207550000D02*
X353428052Y-207550000D01*
X354037500Y-153962500D02*
X351125000Y-156875000D01*
X353428052Y-151550000D02*
X354037500Y-152159448D01*
X351125000Y-156875000D02*
X351125000Y-179550000D01*
X351125000Y-123550000D02*
X353428052Y-123550000D01*
X354037500Y-96159448D02*
X354037500Y-97962500D01*
X354037500Y-97962500D02*
X351125000Y-100875000D01*
X351425000Y-83200000D02*
X351125000Y-83500000D01*
X354037500Y-180159448D02*
X354037500Y-181962500D01*
X354037500Y-69962500D02*
X351125000Y-72875000D01*
X353428052Y-123550000D02*
X354037500Y-124159448D01*
X354037500Y-125962500D02*
X351125000Y-128875000D01*
X354037500Y-209962500D02*
X351125000Y-212875000D01*
X354000000Y-83200000D02*
X351425000Y-83200000D01*
X353428052Y-235550000D02*
X354037500Y-236159448D01*
X351125000Y-235550000D02*
X353428052Y-235550000D01*
X354037500Y-237962500D02*
X351125000Y-240875000D01*
X351125000Y-67550000D02*
X353428052Y-67550000D01*
X351125000Y-100875000D02*
X351125000Y-123550000D01*
X354037500Y-152159448D02*
X354037500Y-153962500D01*
G04 #@! TO.N,Net-(U11-VCC)*
X382037500Y-68159448D02*
X382037500Y-69962500D01*
X382037500Y-181962500D02*
X379125000Y-184875000D01*
X379125000Y-85500000D02*
X379125000Y-95550000D01*
X382037500Y-124159448D02*
X382037500Y-125962500D01*
X379125000Y-179550000D02*
X381428052Y-179550000D01*
X381428052Y-235550000D02*
X382037500Y-236159448D01*
X382037500Y-125962500D02*
X379125000Y-128875000D01*
X379125000Y-72875000D02*
X379125000Y-85500000D01*
X379125000Y-67550000D02*
X379217200Y-67457800D01*
X382037500Y-208159448D02*
X382037500Y-209962500D01*
X382037500Y-152159448D02*
X382037500Y-153962500D01*
X382037500Y-153962500D02*
X379125000Y-156875000D01*
X381428052Y-151550000D02*
X382037500Y-152159448D01*
X382037500Y-209962500D02*
X379125000Y-212875000D01*
X379125000Y-156875000D02*
X379125000Y-179550000D01*
X382037500Y-96159448D02*
X382037500Y-97962500D01*
X379125000Y-207550000D02*
X381428052Y-207550000D01*
X382037500Y-69962500D02*
X379125000Y-72875000D01*
X382037500Y-180159448D02*
X382037500Y-181962500D01*
X381428052Y-179550000D02*
X382037500Y-180159448D01*
X381428052Y-207550000D02*
X382037500Y-208159448D01*
X381428052Y-123550000D02*
X382037500Y-124159448D01*
X380500000Y-85500000D02*
X379125000Y-85500000D01*
X378990000Y-67415000D02*
X379125000Y-67550000D01*
X379125000Y-212875000D02*
X379125000Y-235550000D01*
X379125000Y-95550000D02*
X381428052Y-95550000D01*
X382037500Y-97962500D02*
X379125000Y-100875000D01*
X382037500Y-236159448D02*
X382037500Y-237962500D01*
X381428052Y-67550000D02*
X382037500Y-68159448D01*
X379125000Y-235550000D02*
X381428052Y-235550000D01*
X379125000Y-100875000D02*
X379125000Y-123550000D01*
X381428052Y-95550000D02*
X382037500Y-96159448D01*
X379125000Y-123550000D02*
X381428052Y-123550000D01*
X379125000Y-67550000D02*
X381428052Y-67550000D01*
X379125000Y-128875000D02*
X379125000Y-151550000D01*
X382037500Y-237962500D02*
X379125000Y-240875000D01*
X379125000Y-240875000D02*
X379125000Y-263550000D01*
X379125000Y-184875000D02*
X379125000Y-207550000D01*
X379125000Y-151550000D02*
X381428052Y-151550000D01*
G04 #@! TO.N,Net-(U12-VCC)*
X409428052Y-207550000D02*
X410037500Y-208159448D01*
X407032800Y-67457800D02*
X407125000Y-67550000D01*
X410037500Y-152159448D02*
X410037500Y-153962500D01*
X407125000Y-212875000D02*
X407125000Y-235550000D01*
X409428052Y-123550000D02*
X410037500Y-124159448D01*
X410037500Y-237240318D02*
X408777818Y-238500000D01*
X407125000Y-100875000D02*
X407125000Y-123550000D01*
X407125000Y-179550000D02*
X409428052Y-179550000D01*
X410037500Y-124159448D02*
X410037500Y-125462500D01*
X410037500Y-97962500D02*
X407125000Y-100875000D01*
X410037500Y-236159448D02*
X410037500Y-237240318D01*
X407125000Y-151550000D02*
X409428052Y-151550000D01*
X407125000Y-128375000D02*
X407125000Y-151550000D01*
X407125000Y-67550000D02*
X409428052Y-67550000D01*
X410037500Y-68159448D02*
X410037500Y-69462500D01*
X408777818Y-238500000D02*
X408500000Y-238500000D01*
X410037500Y-153962500D02*
X407125000Y-156875000D01*
X407125000Y-123550000D02*
X409428052Y-123550000D01*
X407125000Y-156875000D02*
X407125000Y-179550000D01*
X409428052Y-67550000D02*
X410037500Y-68159448D01*
X409428052Y-151550000D02*
X410037500Y-152159448D01*
X407125000Y-95550000D02*
X409428052Y-95550000D01*
X407125000Y-235550000D02*
X409428052Y-235550000D01*
X409428052Y-235550000D02*
X410037500Y-236159448D01*
X407125000Y-183875000D02*
X407125000Y-207550000D01*
X410037500Y-208159448D02*
X410037500Y-209962500D01*
X410037500Y-181240318D02*
X408777818Y-182500000D01*
X410037500Y-69462500D02*
X407125000Y-72375000D01*
X410037500Y-96159448D02*
X410037500Y-97962500D01*
X407125000Y-72375000D02*
X407125000Y-86000000D01*
X409000000Y-86000000D02*
X407125000Y-86000000D01*
X408500000Y-182500000D02*
X407125000Y-183875000D01*
X408500000Y-238500000D02*
X407125000Y-239875000D01*
X407125000Y-207550000D02*
X409428052Y-207550000D01*
X408777818Y-182500000D02*
X408500000Y-182500000D01*
X410037500Y-209962500D02*
X407125000Y-212875000D01*
X410037500Y-125462500D02*
X407125000Y-128375000D01*
X410037500Y-180159448D02*
X410037500Y-181240318D01*
X407125000Y-86000000D02*
X407125000Y-95550000D01*
X409428052Y-179550000D02*
X410037500Y-180159448D01*
X409428052Y-95550000D02*
X410037500Y-96159448D01*
X407125000Y-239875000D02*
X407125000Y-263550000D01*
G04 #@! TO.N,Net-(U13-VCC)*
X435125000Y-123550000D02*
X437428052Y-123550000D01*
X435125000Y-128875000D02*
X435125000Y-151550000D01*
X438037500Y-69962500D02*
X435125000Y-72875000D01*
X435125000Y-151550000D02*
X437428052Y-151550000D01*
X438037500Y-209962500D02*
X435125000Y-212875000D01*
X437428052Y-151550000D02*
X438037500Y-152159448D01*
X437428052Y-235550000D02*
X438037500Y-236159448D01*
X438037500Y-236159448D02*
X438037500Y-237962500D01*
X438037500Y-124159448D02*
X438037500Y-125962500D01*
X435125000Y-184875000D02*
X435125000Y-207550000D01*
X437428052Y-123550000D02*
X438037500Y-124159448D01*
X435125000Y-72875000D02*
X435125000Y-85500000D01*
X438037500Y-97962500D02*
X435125000Y-100875000D01*
X437428052Y-179550000D02*
X438037500Y-180159448D01*
X438037500Y-96159448D02*
X438037500Y-97962500D01*
X435125000Y-207550000D02*
X437428052Y-207550000D01*
X435125000Y-212875000D02*
X435125000Y-235550000D01*
X435125000Y-156875000D02*
X435125000Y-179550000D01*
X438037500Y-68159448D02*
X438037500Y-69962500D01*
X435125000Y-95550000D02*
X437428052Y-95550000D01*
X437428052Y-67550000D02*
X438037500Y-68159448D01*
X438037500Y-180159448D02*
X438037500Y-181962500D01*
X435125000Y-100875000D02*
X435125000Y-123550000D01*
X438037500Y-125962500D02*
X435125000Y-128875000D01*
X435125000Y-179550000D02*
X437428052Y-179550000D01*
X435125000Y-235550000D02*
X437428052Y-235550000D01*
X438037500Y-237962500D02*
X435125000Y-240875000D01*
X435125000Y-67550000D02*
X437428052Y-67550000D01*
X438037500Y-181962500D02*
X435125000Y-184875000D01*
X438037500Y-153962500D02*
X435125000Y-156875000D01*
X438037500Y-208159448D02*
X438037500Y-209962500D01*
X437428052Y-95550000D02*
X438037500Y-96159448D01*
X433500000Y-85500000D02*
X435125000Y-85500000D01*
X438037500Y-152159448D02*
X438037500Y-153962500D01*
X437428052Y-207550000D02*
X438037500Y-208159448D01*
X435125000Y-240875000D02*
X435125000Y-263550000D01*
X435125000Y-85500000D02*
X435125000Y-95550000D01*
G04 #@! TO.N,Net-(U14-VCC)*
X463125000Y-212875000D02*
X463125000Y-235550000D01*
X463125000Y-179550000D02*
X465428052Y-179550000D01*
X465428052Y-235550000D02*
X466037500Y-236159448D01*
X463125000Y-123550000D02*
X465428052Y-123550000D01*
X461500000Y-86000000D02*
X463125000Y-86000000D01*
X465428052Y-67550000D02*
X466037500Y-68159448D01*
X465428052Y-179550000D02*
X466037500Y-180159448D01*
X466037500Y-209962500D02*
X463125000Y-212875000D01*
X466037500Y-180159448D02*
X466037500Y-181962500D01*
X463125000Y-100875000D02*
X463125000Y-123550000D01*
X463125000Y-240875000D02*
X463125000Y-263550000D01*
X466037500Y-152159448D02*
X466037500Y-153962500D01*
X466037500Y-181962500D02*
X463125000Y-184875000D01*
X463125000Y-86000000D02*
X463125000Y-95550000D01*
X463125000Y-184875000D02*
X463125000Y-207550000D01*
X466037500Y-69962500D02*
X463125000Y-72875000D01*
X466037500Y-96159448D02*
X466037500Y-97962500D01*
X463125000Y-72875000D02*
X463125000Y-86000000D01*
X463125000Y-95550000D02*
X465428052Y-95550000D01*
X466037500Y-97962500D02*
X463125000Y-100875000D01*
X463125000Y-128875000D02*
X463125000Y-151550000D01*
X465428052Y-151550000D02*
X466037500Y-152159448D01*
X463125000Y-156875000D02*
X463125000Y-179550000D01*
X466037500Y-125962500D02*
X463125000Y-128875000D01*
X466037500Y-237962500D02*
X463125000Y-240875000D01*
X466037500Y-68159448D02*
X466037500Y-69962500D01*
X466037500Y-236159448D02*
X466037500Y-237962500D01*
X463125000Y-67550000D02*
X465428052Y-67550000D01*
X465428052Y-207550000D02*
X466037500Y-208159448D01*
X463125000Y-235550000D02*
X465428052Y-235550000D01*
X465428052Y-123550000D02*
X466037500Y-124159448D01*
X466037500Y-124159448D02*
X466037500Y-125962500D01*
X466037500Y-153962500D02*
X463125000Y-156875000D01*
X465428052Y-95550000D02*
X466037500Y-96159448D01*
X463125000Y-151550000D02*
X465428052Y-151550000D01*
X463125000Y-207550000D02*
X465428052Y-207550000D01*
X466037500Y-208159448D02*
X466037500Y-209962500D01*
G04 #@! TO.N,Net-(U15-VCC)*
X494037500Y-124159448D02*
X494037500Y-125962500D01*
X494037500Y-125962500D02*
X491125000Y-128875000D01*
X491125000Y-184875000D02*
X491125000Y-207550000D01*
X491125000Y-240875000D02*
X491125000Y-263550000D01*
X491125000Y-212875000D02*
X491125000Y-235550000D01*
X496500000Y-69000000D02*
X496450000Y-69050000D01*
X496450000Y-69050000D02*
X494950000Y-69050000D01*
X491125000Y-128875000D02*
X491125000Y-151550000D01*
X491125000Y-179550000D02*
X493428052Y-179550000D01*
X494037500Y-180159448D02*
X494037500Y-181962500D01*
X491125000Y-151550000D02*
X493428052Y-151550000D01*
X491125000Y-235550000D02*
X493428052Y-235550000D01*
X491125000Y-95550000D02*
X493428052Y-95550000D01*
X491125000Y-67550000D02*
X495050000Y-67550000D01*
X494037500Y-153962500D02*
X491125000Y-156875000D01*
X494950000Y-69050000D02*
X491125000Y-72875000D01*
X489500000Y-85500000D02*
X491125000Y-85500000D01*
X491125000Y-100875000D02*
X491125000Y-123550000D01*
X491125000Y-72875000D02*
X491125000Y-85500000D01*
X491125000Y-123550000D02*
X493428052Y-123550000D01*
X493428052Y-95550000D02*
X494037500Y-96159448D01*
X494037500Y-209962500D02*
X491125000Y-212875000D01*
X494037500Y-181962500D02*
X491125000Y-184875000D01*
X493428052Y-179550000D02*
X494037500Y-180159448D01*
X491125000Y-207550000D02*
X493428052Y-207550000D01*
X493428052Y-207550000D02*
X494037500Y-208159448D01*
X494037500Y-97962500D02*
X491125000Y-100875000D01*
X491125000Y-156875000D02*
X491125000Y-179550000D01*
X494037500Y-152159448D02*
X494037500Y-153962500D01*
X495050000Y-67550000D02*
X496500000Y-69000000D01*
X491125000Y-85500000D02*
X491125000Y-95550000D01*
X494037500Y-236159448D02*
X494037500Y-237962500D01*
X494037500Y-237962500D02*
X491125000Y-240875000D01*
X494037500Y-96159448D02*
X494037500Y-97962500D01*
X493428052Y-123550000D02*
X494037500Y-124159448D01*
X494037500Y-208159448D02*
X494037500Y-209962500D01*
X493428052Y-235550000D02*
X494037500Y-236159448D01*
X493428052Y-151550000D02*
X494037500Y-152159448D01*
G04 #@! TO.N,Net-(U16-VCC)*
X521428052Y-95550000D02*
X522037500Y-96159448D01*
X521428052Y-179550000D02*
X522037500Y-180159448D01*
X516450000Y-92875000D02*
X519125000Y-95550000D01*
X519125000Y-127875000D02*
X519125000Y-151550000D01*
X516772182Y-76950000D02*
X516450000Y-77272182D01*
X519125000Y-156875000D02*
X519125000Y-179550000D01*
X519125000Y-179550000D02*
X521428052Y-179550000D01*
X521428052Y-207550000D02*
X522037500Y-208159448D01*
X514500000Y-84500000D02*
X516450000Y-84500000D01*
X522037500Y-236159448D02*
X522037500Y-237462500D01*
X522500000Y-68621948D02*
X518950000Y-72171948D01*
X522037500Y-124159448D02*
X522037500Y-124962500D01*
X519125000Y-207550000D02*
X521428052Y-207550000D01*
X521428052Y-151550000D02*
X522037500Y-152159448D01*
X522037500Y-208840552D02*
X519125000Y-211753052D01*
X516450000Y-77272182D02*
X516450000Y-84500000D01*
X521428052Y-123550000D02*
X522037500Y-124159448D01*
X519125000Y-235550000D02*
X521428052Y-235550000D01*
X522037500Y-180840552D02*
X519125000Y-183753052D01*
X522037500Y-96159448D02*
X522037500Y-96840552D01*
X519125000Y-67550000D02*
X521428052Y-67550000D01*
X522037500Y-237462500D02*
X519125000Y-240375000D01*
X518950000Y-75227818D02*
X517227818Y-76950000D01*
X516450000Y-84500000D02*
X516450000Y-92875000D01*
X519125000Y-240375000D02*
X519125000Y-263550000D01*
X521428052Y-67550000D02*
X522500000Y-68621948D01*
X522037500Y-152159448D02*
X522037500Y-153962500D01*
X519125000Y-95550000D02*
X521428052Y-95550000D01*
X519125000Y-123550000D02*
X521428052Y-123550000D01*
X519125000Y-99753052D02*
X519125000Y-123550000D01*
X522037500Y-153962500D02*
X519125000Y-156875000D01*
X517227818Y-76950000D02*
X516772182Y-76950000D01*
X519125000Y-151550000D02*
X521428052Y-151550000D01*
X522037500Y-208159448D02*
X522037500Y-208840552D01*
X522037500Y-124962500D02*
X519125000Y-127875000D01*
X519125000Y-211753052D02*
X519125000Y-235550000D01*
X518950000Y-72171948D02*
X518950000Y-75227818D01*
X521428052Y-235550000D02*
X522037500Y-236159448D01*
X522037500Y-180159448D02*
X522037500Y-180840552D01*
X519125000Y-183753052D02*
X519125000Y-207550000D01*
X522037500Y-96840552D02*
X519125000Y-99753052D01*
G04 #@! TO.N,Net-(D1-DO)*
X335400000Y-71400000D02*
X338600000Y-74600000D01*
X338600000Y-74600000D02*
X349550000Y-74600000D01*
X326450000Y-71400000D02*
X335400000Y-71400000D01*
G04 #@! TO.N,Net-(D2-DO)*
X354450000Y-71400000D02*
X363400000Y-71400000D01*
X366600000Y-74600000D02*
X377550000Y-74600000D01*
X363400000Y-71400000D02*
X366600000Y-74600000D01*
G04 #@! TO.N,Net-(D3-DO)*
X382450000Y-71400000D02*
X391400000Y-71400000D01*
X391400000Y-71400000D02*
X394600000Y-74600000D01*
X394600000Y-74600000D02*
X405550000Y-74600000D01*
G04 #@! TO.N,Net-(D4-DO)*
X419400000Y-71400000D02*
X422600000Y-74600000D01*
X410450000Y-71400000D02*
X419400000Y-71400000D01*
X422600000Y-74600000D02*
X433550000Y-74600000D01*
G04 #@! TO.N,Net-(D5-DO)*
X448000000Y-80000000D02*
X456150000Y-80000000D01*
X439400000Y-71400000D02*
X448000000Y-80000000D01*
X456150000Y-80000000D02*
X461550000Y-74600000D01*
X438450000Y-71400000D02*
X439400000Y-71400000D01*
G04 #@! TO.N,Net-(D6-DO)*
X482575000Y-81575000D02*
X489550000Y-74600000D01*
X466450000Y-71400000D02*
X472400000Y-71400000D01*
X472400000Y-71400000D02*
X482575000Y-81575000D01*
G04 #@! TO.N,Net-(D7-DO)*
X494450000Y-71400000D02*
X503400000Y-71400000D01*
X506600000Y-74600000D02*
X517550000Y-74600000D01*
X503400000Y-71400000D02*
X506600000Y-74600000D01*
G04 #@! TD*
M02*
