M48
; DRILL file {KiCad 8.0.7} date 2025-03-27T18:08:51-0500
; FORMAT={-:-/ absolute / metric / decimal}
; #@! TF.CreationDate,2025-03-27T18:08:51-05:00
; #@! TF.GenerationSoftware,Kicad,Pcbnew,8.0.7
; #@! TF.FileFunction,Plated,1,2,PTH
FMAT,2
METRIC
; #@! TA.AperFunction,Plated,PTH,ViaDrill
T1C0.300
; #@! TA.AperFunction,Plated,PTH,ViaDrill
T2C0.600
; #@! TA.AperFunction,Plated,PTH,ComponentDrill
T3C0.800
; #@! TA.AperFunction,Plated,PTH,ComponentDrill
T4C1.800
%
G90
G05
T1
X319.0Y-102.5
X319.0Y-130.5
X319.0Y-158.5
X319.0Y-186.5
X319.0Y-214.5
X319.0Y-242.5
X319.0Y-270.5
X325.0Y-69.5
X325.0Y-97.5
X325.0Y-125.5
X325.0Y-153.5
X325.0Y-181.5
X325.0Y-209.5
X325.0Y-237.5
X325.0Y-265.5
X326.5Y-93.5
X349.5Y-69.5
X349.5Y-97.5
X349.5Y-125.5
X349.5Y-153.5
X349.5Y-181.5
X349.5Y-209.5
X349.5Y-237.5
X349.5Y-265.5
X353.0Y-69.5
X353.0Y-97.5
X353.0Y-125.5
X353.0Y-153.5
X353.0Y-181.5
X353.0Y-209.5
X353.0Y-237.5
X353.0Y-265.5
X354.0Y-83.2
X377.5Y-69.5
X377.5Y-97.5
X377.5Y-125.5
X377.5Y-153.5
X377.5Y-181.5
X377.5Y-209.5
X377.5Y-237.5
X377.5Y-265.5
X380.5Y-85.5
X381.0Y-69.5
X381.0Y-97.5
X381.0Y-125.5
X381.0Y-153.5
X381.0Y-181.5
X381.0Y-209.5
X381.0Y-237.5
X381.0Y-265.5
X405.5Y-69.5
X405.5Y-97.5
X405.5Y-125.5
X405.5Y-153.5
X405.5Y-181.5
X405.5Y-209.5
X405.5Y-237.5
X405.5Y-265.5
X409.0Y-69.5
X409.0Y-86.0
X409.0Y-97.5
X409.0Y-125.5
X409.0Y-153.5
X409.0Y-181.5
X409.0Y-209.5
X409.0Y-237.5
X409.0Y-265.5
X411.0Y-96.0
X411.0Y-152.0
X411.0Y-179.5
X411.0Y-208.5
X411.0Y-236.0
X411.0Y-263.5
X411.5Y-68.0
X411.5Y-124.5
X433.5Y-69.5
X433.5Y-85.5
X433.5Y-97.5
X433.5Y-125.5
X433.5Y-153.5
X433.5Y-181.5
X433.5Y-209.5
X433.5Y-237.5
X433.5Y-265.5
X437.0Y-69.5
X437.0Y-97.5
X437.0Y-125.5
X437.0Y-153.5
X437.0Y-181.5
X437.0Y-209.5
X437.0Y-237.5
X437.0Y-265.5
X460.5Y-88.0
X461.5Y-69.5
X461.5Y-86.0
X461.5Y-97.5
X461.5Y-125.5
X461.5Y-153.5
X461.5Y-181.5
X461.5Y-209.5
X461.5Y-237.5
X461.5Y-265.5
X465.0Y-69.5
X465.0Y-97.5
X465.0Y-125.5
X465.0Y-153.5
X465.0Y-181.5
X465.0Y-209.5
X465.0Y-237.5
X465.0Y-265.5
X483.0Y-88.0
X489.5Y-69.5
X489.5Y-85.5
X489.5Y-97.5
X489.5Y-125.5
X489.5Y-153.5
X489.5Y-181.5
X489.5Y-209.5
X489.5Y-237.5
X489.5Y-265.5
X492.0Y-80.5
X492.0Y-92.5
X493.0Y-69.5
X493.0Y-97.5
X493.0Y-125.5
X493.0Y-153.5
X493.0Y-181.5
X493.0Y-209.5
X493.0Y-237.5
X493.0Y-265.5
X495.0Y-68.5
X504.14Y-66.0
X507.0Y-68.0
X509.0Y-67.0
X511.0Y-67.0
X514.5Y-84.5
X517.0Y-77.5
X517.5Y-69.5
X517.5Y-97.5
X517.5Y-125.5
X517.5Y-153.5
X517.5Y-181.5
X517.5Y-209.5
X517.5Y-237.5
X517.5Y-265.5
X519.5Y-77.5
X521.5Y-78.0
X523.5Y-78.5
X524.0Y-97.5
X524.0Y-125.5
X524.0Y-153.5
X524.0Y-181.5
X524.0Y-209.5
X524.0Y-237.5
X524.0Y-265.5
X526.0Y-87.0
X526.0Y-115.0
X526.0Y-143.0
X526.0Y-171.0
X526.0Y-199.0
X526.0Y-227.0
X526.0Y-255.0
X527.0Y-77.5
X529.5Y-77.5
X529.54Y-83.96
T2
X316.4Y-268.0
X316.5Y-100.0
X316.5Y-128.0
X316.5Y-156.0
X316.5Y-184.0
X316.5Y-212.0
X316.5Y-240.0
X319.0Y-72.0
X319.0Y-100.0
X319.0Y-128.0
X319.0Y-156.0
X319.0Y-184.0
X319.0Y-212.0
X319.0Y-240.0
X319.0Y-268.0
X328.5Y-75.0
X328.5Y-103.0
X328.5Y-131.0
X328.5Y-159.0
X328.5Y-187.0
X328.5Y-215.0
X328.5Y-243.0
X328.5Y-271.0
X347.0Y-72.0
X347.0Y-100.0
X347.0Y-128.0
X347.0Y-156.0
X347.0Y-184.0
X347.0Y-212.0
X347.0Y-240.0
X347.0Y-268.0
X356.5Y-75.0
X356.5Y-103.0
X356.5Y-131.0
X356.5Y-159.0
X356.5Y-187.0
X356.5Y-215.0
X356.5Y-243.0
X356.5Y-271.0
X375.0Y-72.0
X375.0Y-100.0
X375.0Y-128.0
X375.0Y-156.0
X375.0Y-184.0
X375.0Y-212.0
X375.0Y-240.0
X375.0Y-268.0
X384.5Y-75.0
X384.5Y-103.0
X384.5Y-131.0
X384.5Y-159.0
X384.5Y-187.0
X384.5Y-215.0
X384.5Y-243.0
X384.5Y-271.0
X403.0Y-72.0
X403.0Y-100.0
X403.0Y-128.0
X403.0Y-156.0
X403.0Y-184.0
X403.0Y-212.0
X403.0Y-240.0
X403.0Y-268.0
X412.5Y-75.0
X412.5Y-103.0
X412.5Y-131.0
X412.5Y-159.0
X412.5Y-187.0
X412.5Y-215.0
X412.5Y-243.0
X412.5Y-271.0
X431.0Y-72.0
X431.0Y-100.0
X431.0Y-128.0
X431.0Y-156.0
X431.0Y-184.0
X431.0Y-212.0
X431.0Y-240.0
X431.0Y-268.0
X440.5Y-75.0
X440.5Y-103.0
X440.5Y-131.0
X440.5Y-159.0
X440.5Y-187.0
X440.5Y-215.0
X440.5Y-243.0
X440.5Y-271.0
X449.0Y-72.0
X449.0Y-78.105
X459.0Y-72.0
X459.0Y-100.0
X459.0Y-128.0
X459.0Y-156.0
X459.0Y-184.0
X459.0Y-212.0
X459.0Y-240.0
X459.0Y-268.0
X468.5Y-75.0
X468.5Y-103.0
X468.5Y-131.0
X468.5Y-159.0
X468.5Y-187.0
X468.5Y-215.0
X468.5Y-243.0
X468.5Y-271.0
X480.5Y-72.0
X480.5Y-77.5
X487.0Y-72.0
X487.0Y-100.0
X487.0Y-128.0
X487.0Y-156.0
X487.0Y-184.0
X487.0Y-212.0
X487.0Y-240.0
X487.0Y-268.0
X496.5Y-75.0
X496.5Y-103.0
X496.5Y-131.0
X496.5Y-159.0
X496.5Y-187.0
X496.5Y-215.0
X496.5Y-243.0
X496.5Y-271.0
X515.0Y-72.0
X515.0Y-100.0
X515.0Y-128.0
X515.0Y-156.0
X515.0Y-184.0
X515.0Y-212.0
X515.0Y-240.0
X515.0Y-268.0
X524.5Y-75.0
X524.5Y-103.0
X524.5Y-131.0
X524.5Y-159.0
X524.5Y-187.0
X524.5Y-215.0
X524.5Y-243.0
X524.5Y-271.0
T3
X426.125Y-83.2
X426.125Y-90.82
X428.665Y-83.2
X428.665Y-90.82
X431.205Y-83.2
X431.205Y-90.82
X433.745Y-83.2
X433.745Y-90.82
X436.285Y-83.2
X436.285Y-90.82
X438.825Y-83.2
X438.825Y-90.82
X441.365Y-83.2
X441.365Y-90.82
X443.905Y-83.2
X443.905Y-90.82
T4
X512.05Y-113.02
X512.05Y-116.98
M30
