%TF.GenerationSoftware,KiCad,Pcbnew,8.0.7*%
%TF.CreationDate,2025-03-27T18:08:51-05:00*%
%TF.ProjectId,Chess_board2,43686573-735f-4626-9f61-7264322e6b69,rev?*%
%TF.SameCoordinates,Original*%
%TF.FileFunction,Drillmap*%
%TF.FilePolarity,Positive*%
%FSLAX45Y45*%
G04 Gerber Fmt 4.5, Leading zero omitted, Abs format (unit mm)*
G04 Created by KiCad (PCBNEW 8.0.7) date 2025-03-27 18:08:51*
%MOMM*%
%LPD*%
G01*
G04 APERTURE LIST*
%ADD10C,0.200000*%
%ADD11C,0.100000*%
%ADD12C,0.180000*%
G04 APERTURE END LIST*
D10*
X31300000Y-6200000D02*
X53100000Y-6200000D01*
X53100000Y-28000000D01*
X31300000Y-28000000D01*
X31300000Y-6200000D01*
D11*
X31885000Y-10235000D02*
X31915000Y-10265000D01*
X31915000Y-10235000D02*
X31885000Y-10265000D01*
X31885000Y-13035000D02*
X31915000Y-13065000D01*
X31915000Y-13035000D02*
X31885000Y-13065000D01*
X31885000Y-15835000D02*
X31915000Y-15865000D01*
X31915000Y-15835000D02*
X31885000Y-15865000D01*
X31885000Y-18635000D02*
X31915000Y-18665000D01*
X31915000Y-18635000D02*
X31885000Y-18665000D01*
X31885000Y-21435000D02*
X31915000Y-21465000D01*
X31915000Y-21435000D02*
X31885000Y-21465000D01*
X31885000Y-24235000D02*
X31915000Y-24265000D01*
X31915000Y-24235000D02*
X31885000Y-24265000D01*
X31885000Y-27035000D02*
X31915000Y-27065000D01*
X31915000Y-27035000D02*
X31885000Y-27065000D01*
X32485000Y-6935000D02*
X32515000Y-6965000D01*
X32515000Y-6935000D02*
X32485000Y-6965000D01*
X32485000Y-9735000D02*
X32515000Y-9765000D01*
X32515000Y-9735000D02*
X32485000Y-9765000D01*
X32485000Y-12535000D02*
X32515000Y-12565000D01*
X32515000Y-12535000D02*
X32485000Y-12565000D01*
X32485000Y-15335000D02*
X32515000Y-15365000D01*
X32515000Y-15335000D02*
X32485000Y-15365000D01*
X32485000Y-18135000D02*
X32515000Y-18165000D01*
X32515000Y-18135000D02*
X32485000Y-18165000D01*
X32485000Y-20935000D02*
X32515000Y-20965000D01*
X32515000Y-20935000D02*
X32485000Y-20965000D01*
X32485000Y-23735000D02*
X32515000Y-23765000D01*
X32515000Y-23735000D02*
X32485000Y-23765000D01*
X32485000Y-26535000D02*
X32515000Y-26565000D01*
X32515000Y-26535000D02*
X32485000Y-26565000D01*
X32635000Y-9335000D02*
X32665000Y-9365000D01*
X32665000Y-9335000D02*
X32635000Y-9365000D01*
X34935000Y-6935000D02*
X34965000Y-6965000D01*
X34965000Y-6935000D02*
X34935000Y-6965000D01*
X34935000Y-9735000D02*
X34965000Y-9765000D01*
X34965000Y-9735000D02*
X34935000Y-9765000D01*
X34935000Y-12535000D02*
X34965000Y-12565000D01*
X34965000Y-12535000D02*
X34935000Y-12565000D01*
X34935000Y-15335000D02*
X34965000Y-15365000D01*
X34965000Y-15335000D02*
X34935000Y-15365000D01*
X34935000Y-18135000D02*
X34965000Y-18165000D01*
X34965000Y-18135000D02*
X34935000Y-18165000D01*
X34935000Y-20935000D02*
X34965000Y-20965000D01*
X34965000Y-20935000D02*
X34935000Y-20965000D01*
X34935000Y-23735000D02*
X34965000Y-23765000D01*
X34965000Y-23735000D02*
X34935000Y-23765000D01*
X34935000Y-26535000D02*
X34965000Y-26565000D01*
X34965000Y-26535000D02*
X34935000Y-26565000D01*
X35285000Y-6935000D02*
X35315000Y-6965000D01*
X35315000Y-6935000D02*
X35285000Y-6965000D01*
X35285000Y-9735000D02*
X35315000Y-9765000D01*
X35315000Y-9735000D02*
X35285000Y-9765000D01*
X35285000Y-12535000D02*
X35315000Y-12565000D01*
X35315000Y-12535000D02*
X35285000Y-12565000D01*
X35285000Y-15335000D02*
X35315000Y-15365000D01*
X35315000Y-15335000D02*
X35285000Y-15365000D01*
X35285000Y-18135000D02*
X35315000Y-18165000D01*
X35315000Y-18135000D02*
X35285000Y-18165000D01*
X35285000Y-20935000D02*
X35315000Y-20965000D01*
X35315000Y-20935000D02*
X35285000Y-20965000D01*
X35285000Y-23735000D02*
X35315000Y-23765000D01*
X35315000Y-23735000D02*
X35285000Y-23765000D01*
X35285000Y-26535000D02*
X35315000Y-26565000D01*
X35315000Y-26535000D02*
X35285000Y-26565000D01*
X35385000Y-8305000D02*
X35415000Y-8335000D01*
X35415000Y-8305000D02*
X35385000Y-8335000D01*
X37735000Y-6935000D02*
X37765000Y-6965000D01*
X37765000Y-6935000D02*
X37735000Y-6965000D01*
X37735000Y-9735000D02*
X37765000Y-9765000D01*
X37765000Y-9735000D02*
X37735000Y-9765000D01*
X37735000Y-12535000D02*
X37765000Y-12565000D01*
X37765000Y-12535000D02*
X37735000Y-12565000D01*
X37735000Y-15335000D02*
X37765000Y-15365000D01*
X37765000Y-15335000D02*
X37735000Y-15365000D01*
X37735000Y-18135000D02*
X37765000Y-18165000D01*
X37765000Y-18135000D02*
X37735000Y-18165000D01*
X37735000Y-20935000D02*
X37765000Y-20965000D01*
X37765000Y-20935000D02*
X37735000Y-20965000D01*
X37735000Y-23735000D02*
X37765000Y-23765000D01*
X37765000Y-23735000D02*
X37735000Y-23765000D01*
X37735000Y-26535000D02*
X37765000Y-26565000D01*
X37765000Y-26535000D02*
X37735000Y-26565000D01*
X38035000Y-8535000D02*
X38065000Y-8565000D01*
X38065000Y-8535000D02*
X38035000Y-8565000D01*
X38085000Y-6935000D02*
X38115000Y-6965000D01*
X38115000Y-6935000D02*
X38085000Y-6965000D01*
X38085000Y-9735000D02*
X38115000Y-9765000D01*
X38115000Y-9735000D02*
X38085000Y-9765000D01*
X38085000Y-12535000D02*
X38115000Y-12565000D01*
X38115000Y-12535000D02*
X38085000Y-12565000D01*
X38085000Y-15335000D02*
X38115000Y-15365000D01*
X38115000Y-15335000D02*
X38085000Y-15365000D01*
X38085000Y-18135000D02*
X38115000Y-18165000D01*
X38115000Y-18135000D02*
X38085000Y-18165000D01*
X38085000Y-20935000D02*
X38115000Y-20965000D01*
X38115000Y-20935000D02*
X38085000Y-20965000D01*
X38085000Y-23735000D02*
X38115000Y-23765000D01*
X38115000Y-23735000D02*
X38085000Y-23765000D01*
X38085000Y-26535000D02*
X38115000Y-26565000D01*
X38115000Y-26535000D02*
X38085000Y-26565000D01*
X40535000Y-6935000D02*
X40565000Y-6965000D01*
X40565000Y-6935000D02*
X40535000Y-6965000D01*
X40535000Y-9735000D02*
X40565000Y-9765000D01*
X40565000Y-9735000D02*
X40535000Y-9765000D01*
X40535000Y-12535000D02*
X40565000Y-12565000D01*
X40565000Y-12535000D02*
X40535000Y-12565000D01*
X40535000Y-15335000D02*
X40565000Y-15365000D01*
X40565000Y-15335000D02*
X40535000Y-15365000D01*
X40535000Y-18135000D02*
X40565000Y-18165000D01*
X40565000Y-18135000D02*
X40535000Y-18165000D01*
X40535000Y-20935000D02*
X40565000Y-20965000D01*
X40565000Y-20935000D02*
X40535000Y-20965000D01*
X40535000Y-23735000D02*
X40565000Y-23765000D01*
X40565000Y-23735000D02*
X40535000Y-23765000D01*
X40535000Y-26535000D02*
X40565000Y-26565000D01*
X40565000Y-26535000D02*
X40535000Y-26565000D01*
X40885000Y-6935000D02*
X40915000Y-6965000D01*
X40915000Y-6935000D02*
X40885000Y-6965000D01*
X40885000Y-8585000D02*
X40915000Y-8615000D01*
X40915000Y-8585000D02*
X40885000Y-8615000D01*
X40885000Y-9735000D02*
X40915000Y-9765000D01*
X40915000Y-9735000D02*
X40885000Y-9765000D01*
X40885000Y-12535000D02*
X40915000Y-12565000D01*
X40915000Y-12535000D02*
X40885000Y-12565000D01*
X40885000Y-15335000D02*
X40915000Y-15365000D01*
X40915000Y-15335000D02*
X40885000Y-15365000D01*
X40885000Y-18135000D02*
X40915000Y-18165000D01*
X40915000Y-18135000D02*
X40885000Y-18165000D01*
X40885000Y-20935000D02*
X40915000Y-20965000D01*
X40915000Y-20935000D02*
X40885000Y-20965000D01*
X40885000Y-23735000D02*
X40915000Y-23765000D01*
X40915000Y-23735000D02*
X40885000Y-23765000D01*
X40885000Y-26535000D02*
X40915000Y-26565000D01*
X40915000Y-26535000D02*
X40885000Y-26565000D01*
X41085000Y-9585000D02*
X41115000Y-9615000D01*
X41115000Y-9585000D02*
X41085000Y-9615000D01*
X41085000Y-15185000D02*
X41115000Y-15215000D01*
X41115000Y-15185000D02*
X41085000Y-15215000D01*
X41085000Y-17935000D02*
X41115000Y-17965000D01*
X41115000Y-17935000D02*
X41085000Y-17965000D01*
X41085000Y-20835000D02*
X41115000Y-20865000D01*
X41115000Y-20835000D02*
X41085000Y-20865000D01*
X41085000Y-23585000D02*
X41115000Y-23615000D01*
X41115000Y-23585000D02*
X41085000Y-23615000D01*
X41085000Y-26335000D02*
X41115000Y-26365000D01*
X41115000Y-26335000D02*
X41085000Y-26365000D01*
X41135000Y-6785000D02*
X41165000Y-6815000D01*
X41165000Y-6785000D02*
X41135000Y-6815000D01*
X41135000Y-12435000D02*
X41165000Y-12465000D01*
X41165000Y-12435000D02*
X41135000Y-12465000D01*
X43335000Y-6935000D02*
X43365000Y-6965000D01*
X43365000Y-6935000D02*
X43335000Y-6965000D01*
X43335000Y-8535000D02*
X43365000Y-8565000D01*
X43365000Y-8535000D02*
X43335000Y-8565000D01*
X43335000Y-9735000D02*
X43365000Y-9765000D01*
X43365000Y-9735000D02*
X43335000Y-9765000D01*
X43335000Y-12535000D02*
X43365000Y-12565000D01*
X43365000Y-12535000D02*
X43335000Y-12565000D01*
X43335000Y-15335000D02*
X43365000Y-15365000D01*
X43365000Y-15335000D02*
X43335000Y-15365000D01*
X43335000Y-18135000D02*
X43365000Y-18165000D01*
X43365000Y-18135000D02*
X43335000Y-18165000D01*
X43335000Y-20935000D02*
X43365000Y-20965000D01*
X43365000Y-20935000D02*
X43335000Y-20965000D01*
X43335000Y-23735000D02*
X43365000Y-23765000D01*
X43365000Y-23735000D02*
X43335000Y-23765000D01*
X43335000Y-26535000D02*
X43365000Y-26565000D01*
X43365000Y-26535000D02*
X43335000Y-26565000D01*
X43685000Y-6935000D02*
X43715000Y-6965000D01*
X43715000Y-6935000D02*
X43685000Y-6965000D01*
X43685000Y-9735000D02*
X43715000Y-9765000D01*
X43715000Y-9735000D02*
X43685000Y-9765000D01*
X43685000Y-12535000D02*
X43715000Y-12565000D01*
X43715000Y-12535000D02*
X43685000Y-12565000D01*
X43685000Y-15335000D02*
X43715000Y-15365000D01*
X43715000Y-15335000D02*
X43685000Y-15365000D01*
X43685000Y-18135000D02*
X43715000Y-18165000D01*
X43715000Y-18135000D02*
X43685000Y-18165000D01*
X43685000Y-20935000D02*
X43715000Y-20965000D01*
X43715000Y-20935000D02*
X43685000Y-20965000D01*
X43685000Y-23735000D02*
X43715000Y-23765000D01*
X43715000Y-23735000D02*
X43685000Y-23765000D01*
X43685000Y-26535000D02*
X43715000Y-26565000D01*
X43715000Y-26535000D02*
X43685000Y-26565000D01*
X46035000Y-8785000D02*
X46065000Y-8815000D01*
X46065000Y-8785000D02*
X46035000Y-8815000D01*
X46135000Y-6935000D02*
X46165000Y-6965000D01*
X46165000Y-6935000D02*
X46135000Y-6965000D01*
X46135000Y-8585000D02*
X46165000Y-8615000D01*
X46165000Y-8585000D02*
X46135000Y-8615000D01*
X46135000Y-9735000D02*
X46165000Y-9765000D01*
X46165000Y-9735000D02*
X46135000Y-9765000D01*
X46135000Y-12535000D02*
X46165000Y-12565000D01*
X46165000Y-12535000D02*
X46135000Y-12565000D01*
X46135000Y-15335000D02*
X46165000Y-15365000D01*
X46165000Y-15335000D02*
X46135000Y-15365000D01*
X46135000Y-18135000D02*
X46165000Y-18165000D01*
X46165000Y-18135000D02*
X46135000Y-18165000D01*
X46135000Y-20935000D02*
X46165000Y-20965000D01*
X46165000Y-20935000D02*
X46135000Y-20965000D01*
X46135000Y-23735000D02*
X46165000Y-23765000D01*
X46165000Y-23735000D02*
X46135000Y-23765000D01*
X46135000Y-26535000D02*
X46165000Y-26565000D01*
X46165000Y-26535000D02*
X46135000Y-26565000D01*
X46485000Y-6935000D02*
X46515000Y-6965000D01*
X46515000Y-6935000D02*
X46485000Y-6965000D01*
X46485000Y-9735000D02*
X46515000Y-9765000D01*
X46515000Y-9735000D02*
X46485000Y-9765000D01*
X46485000Y-12535000D02*
X46515000Y-12565000D01*
X46515000Y-12535000D02*
X46485000Y-12565000D01*
X46485000Y-15335000D02*
X46515000Y-15365000D01*
X46515000Y-15335000D02*
X46485000Y-15365000D01*
X46485000Y-18135000D02*
X46515000Y-18165000D01*
X46515000Y-18135000D02*
X46485000Y-18165000D01*
X46485000Y-20935000D02*
X46515000Y-20965000D01*
X46515000Y-20935000D02*
X46485000Y-20965000D01*
X46485000Y-23735000D02*
X46515000Y-23765000D01*
X46515000Y-23735000D02*
X46485000Y-23765000D01*
X46485000Y-26535000D02*
X46515000Y-26565000D01*
X46515000Y-26535000D02*
X46485000Y-26565000D01*
X48285000Y-8785000D02*
X48315000Y-8815000D01*
X48315000Y-8785000D02*
X48285000Y-8815000D01*
X48935000Y-6935000D02*
X48965000Y-6965000D01*
X48965000Y-6935000D02*
X48935000Y-6965000D01*
X48935000Y-8535000D02*
X48965000Y-8565000D01*
X48965000Y-8535000D02*
X48935000Y-8565000D01*
X48935000Y-9735000D02*
X48965000Y-9765000D01*
X48965000Y-9735000D02*
X48935000Y-9765000D01*
X48935000Y-12535000D02*
X48965000Y-12565000D01*
X48965000Y-12535000D02*
X48935000Y-12565000D01*
X48935000Y-15335000D02*
X48965000Y-15365000D01*
X48965000Y-15335000D02*
X48935000Y-15365000D01*
X48935000Y-18135000D02*
X48965000Y-18165000D01*
X48965000Y-18135000D02*
X48935000Y-18165000D01*
X48935000Y-20935000D02*
X48965000Y-20965000D01*
X48965000Y-20935000D02*
X48935000Y-20965000D01*
X48935000Y-23735000D02*
X48965000Y-23765000D01*
X48965000Y-23735000D02*
X48935000Y-23765000D01*
X48935000Y-26535000D02*
X48965000Y-26565000D01*
X48965000Y-26535000D02*
X48935000Y-26565000D01*
X49185000Y-8035000D02*
X49215000Y-8065000D01*
X49215000Y-8035000D02*
X49185000Y-8065000D01*
X49185000Y-9235000D02*
X49215000Y-9265000D01*
X49215000Y-9235000D02*
X49185000Y-9265000D01*
X49285000Y-6935000D02*
X49315000Y-6965000D01*
X49315000Y-6935000D02*
X49285000Y-6965000D01*
X49285000Y-9735000D02*
X49315000Y-9765000D01*
X49315000Y-9735000D02*
X49285000Y-9765000D01*
X49285000Y-12535000D02*
X49315000Y-12565000D01*
X49315000Y-12535000D02*
X49285000Y-12565000D01*
X49285000Y-15335000D02*
X49315000Y-15365000D01*
X49315000Y-15335000D02*
X49285000Y-15365000D01*
X49285000Y-18135000D02*
X49315000Y-18165000D01*
X49315000Y-18135000D02*
X49285000Y-18165000D01*
X49285000Y-20935000D02*
X49315000Y-20965000D01*
X49315000Y-20935000D02*
X49285000Y-20965000D01*
X49285000Y-23735000D02*
X49315000Y-23765000D01*
X49315000Y-23735000D02*
X49285000Y-23765000D01*
X49285000Y-26535000D02*
X49315000Y-26565000D01*
X49315000Y-26535000D02*
X49285000Y-26565000D01*
X49485000Y-6835000D02*
X49515000Y-6865000D01*
X49515000Y-6835000D02*
X49485000Y-6865000D01*
X50399000Y-6585000D02*
X50429000Y-6615000D01*
X50429000Y-6585000D02*
X50399000Y-6615000D01*
X50685000Y-6785000D02*
X50715000Y-6815000D01*
X50715000Y-6785000D02*
X50685000Y-6815000D01*
X50885000Y-6685000D02*
X50915000Y-6715000D01*
X50915000Y-6685000D02*
X50885000Y-6715000D01*
X51085000Y-6685000D02*
X51115000Y-6715000D01*
X51115000Y-6685000D02*
X51085000Y-6715000D01*
X51435000Y-8435000D02*
X51465000Y-8465000D01*
X51465000Y-8435000D02*
X51435000Y-8465000D01*
X51685000Y-7735000D02*
X51715000Y-7765000D01*
X51715000Y-7735000D02*
X51685000Y-7765000D01*
X51735000Y-6935000D02*
X51765000Y-6965000D01*
X51765000Y-6935000D02*
X51735000Y-6965000D01*
X51735000Y-9735000D02*
X51765000Y-9765000D01*
X51765000Y-9735000D02*
X51735000Y-9765000D01*
X51735000Y-12535000D02*
X51765000Y-12565000D01*
X51765000Y-12535000D02*
X51735000Y-12565000D01*
X51735000Y-15335000D02*
X51765000Y-15365000D01*
X51765000Y-15335000D02*
X51735000Y-15365000D01*
X51735000Y-18135000D02*
X51765000Y-18165000D01*
X51765000Y-18135000D02*
X51735000Y-18165000D01*
X51735000Y-20935000D02*
X51765000Y-20965000D01*
X51765000Y-20935000D02*
X51735000Y-20965000D01*
X51735000Y-23735000D02*
X51765000Y-23765000D01*
X51765000Y-23735000D02*
X51735000Y-23765000D01*
X51735000Y-26535000D02*
X51765000Y-26565000D01*
X51765000Y-26535000D02*
X51735000Y-26565000D01*
X51935000Y-7735000D02*
X51965000Y-7765000D01*
X51965000Y-7735000D02*
X51935000Y-7765000D01*
X52135000Y-7785000D02*
X52165000Y-7815000D01*
X52165000Y-7785000D02*
X52135000Y-7815000D01*
X52335000Y-7835000D02*
X52365000Y-7865000D01*
X52365000Y-7835000D02*
X52335000Y-7865000D01*
X52385000Y-9735000D02*
X52415000Y-9765000D01*
X52415000Y-9735000D02*
X52385000Y-9765000D01*
X52385000Y-12535000D02*
X52415000Y-12565000D01*
X52415000Y-12535000D02*
X52385000Y-12565000D01*
X52385000Y-15335000D02*
X52415000Y-15365000D01*
X52415000Y-15335000D02*
X52385000Y-15365000D01*
X52385000Y-18135000D02*
X52415000Y-18165000D01*
X52415000Y-18135000D02*
X52385000Y-18165000D01*
X52385000Y-20935000D02*
X52415000Y-20965000D01*
X52415000Y-20935000D02*
X52385000Y-20965000D01*
X52385000Y-23735000D02*
X52415000Y-23765000D01*
X52415000Y-23735000D02*
X52385000Y-23765000D01*
X52385000Y-26535000D02*
X52415000Y-26565000D01*
X52415000Y-26535000D02*
X52385000Y-26565000D01*
X52585000Y-8685000D02*
X52615000Y-8715000D01*
X52615000Y-8685000D02*
X52585000Y-8715000D01*
X52585000Y-11485000D02*
X52615000Y-11515000D01*
X52615000Y-11485000D02*
X52585000Y-11515000D01*
X52585000Y-14285000D02*
X52615000Y-14315000D01*
X52615000Y-14285000D02*
X52585000Y-14315000D01*
X52585000Y-17085000D02*
X52615000Y-17115000D01*
X52615000Y-17085000D02*
X52585000Y-17115000D01*
X52585000Y-19885000D02*
X52615000Y-19915000D01*
X52615000Y-19885000D02*
X52585000Y-19915000D01*
X52585000Y-22685000D02*
X52615000Y-22715000D01*
X52615000Y-22685000D02*
X52585000Y-22715000D01*
X52585000Y-25485000D02*
X52615000Y-25515000D01*
X52615000Y-25485000D02*
X52585000Y-25515000D01*
X52685000Y-7735000D02*
X52715000Y-7765000D01*
X52715000Y-7735000D02*
X52685000Y-7765000D01*
X52935000Y-7735000D02*
X52965000Y-7765000D01*
X52965000Y-7735000D02*
X52935000Y-7765000D01*
X52939000Y-8381000D02*
X52969000Y-8411000D01*
X52969000Y-8381000D02*
X52939000Y-8411000D01*
X31670000Y-26800000D02*
G75*
G02*
X31610000Y-26800000I-30000J0D01*
G01*
X31610000Y-26800000D02*
G75*
G02*
X31670000Y-26800000I30000J0D01*
G01*
X31680000Y-10000000D02*
G75*
G02*
X31620000Y-10000000I-30000J0D01*
G01*
X31620000Y-10000000D02*
G75*
G02*
X31680000Y-10000000I30000J0D01*
G01*
X31680000Y-12800000D02*
G75*
G02*
X31620000Y-12800000I-30000J0D01*
G01*
X31620000Y-12800000D02*
G75*
G02*
X31680000Y-12800000I30000J0D01*
G01*
X31680000Y-15600000D02*
G75*
G02*
X31620000Y-15600000I-30000J0D01*
G01*
X31620000Y-15600000D02*
G75*
G02*
X31680000Y-15600000I30000J0D01*
G01*
X31680000Y-18400000D02*
G75*
G02*
X31620000Y-18400000I-30000J0D01*
G01*
X31620000Y-18400000D02*
G75*
G02*
X31680000Y-18400000I30000J0D01*
G01*
X31680000Y-21200000D02*
G75*
G02*
X31620000Y-21200000I-30000J0D01*
G01*
X31620000Y-21200000D02*
G75*
G02*
X31680000Y-21200000I30000J0D01*
G01*
X31680000Y-24000000D02*
G75*
G02*
X31620000Y-24000000I-30000J0D01*
G01*
X31620000Y-24000000D02*
G75*
G02*
X31680000Y-24000000I30000J0D01*
G01*
X31930000Y-7200000D02*
G75*
G02*
X31870000Y-7200000I-30000J0D01*
G01*
X31870000Y-7200000D02*
G75*
G02*
X31930000Y-7200000I30000J0D01*
G01*
X31930000Y-10000000D02*
G75*
G02*
X31870000Y-10000000I-30000J0D01*
G01*
X31870000Y-10000000D02*
G75*
G02*
X31930000Y-10000000I30000J0D01*
G01*
X31930000Y-12800000D02*
G75*
G02*
X31870000Y-12800000I-30000J0D01*
G01*
X31870000Y-12800000D02*
G75*
G02*
X31930000Y-12800000I30000J0D01*
G01*
X31930000Y-15600000D02*
G75*
G02*
X31870000Y-15600000I-30000J0D01*
G01*
X31870000Y-15600000D02*
G75*
G02*
X31930000Y-15600000I30000J0D01*
G01*
X31930000Y-18400000D02*
G75*
G02*
X31870000Y-18400000I-30000J0D01*
G01*
X31870000Y-18400000D02*
G75*
G02*
X31930000Y-18400000I30000J0D01*
G01*
X31930000Y-21200000D02*
G75*
G02*
X31870000Y-21200000I-30000J0D01*
G01*
X31870000Y-21200000D02*
G75*
G02*
X31930000Y-21200000I30000J0D01*
G01*
X31930000Y-24000000D02*
G75*
G02*
X31870000Y-24000000I-30000J0D01*
G01*
X31870000Y-24000000D02*
G75*
G02*
X31930000Y-24000000I30000J0D01*
G01*
X31930000Y-26800000D02*
G75*
G02*
X31870000Y-26800000I-30000J0D01*
G01*
X31870000Y-26800000D02*
G75*
G02*
X31930000Y-26800000I30000J0D01*
G01*
X32880000Y-7500000D02*
G75*
G02*
X32820000Y-7500000I-30000J0D01*
G01*
X32820000Y-7500000D02*
G75*
G02*
X32880000Y-7500000I30000J0D01*
G01*
X32880000Y-10300000D02*
G75*
G02*
X32820000Y-10300000I-30000J0D01*
G01*
X32820000Y-10300000D02*
G75*
G02*
X32880000Y-10300000I30000J0D01*
G01*
X32880000Y-13100000D02*
G75*
G02*
X32820000Y-13100000I-30000J0D01*
G01*
X32820000Y-13100000D02*
G75*
G02*
X32880000Y-13100000I30000J0D01*
G01*
X32880000Y-15900000D02*
G75*
G02*
X32820000Y-15900000I-30000J0D01*
G01*
X32820000Y-15900000D02*
G75*
G02*
X32880000Y-15900000I30000J0D01*
G01*
X32880000Y-18700000D02*
G75*
G02*
X32820000Y-18700000I-30000J0D01*
G01*
X32820000Y-18700000D02*
G75*
G02*
X32880000Y-18700000I30000J0D01*
G01*
X32880000Y-21500000D02*
G75*
G02*
X32820000Y-21500000I-30000J0D01*
G01*
X32820000Y-21500000D02*
G75*
G02*
X32880000Y-21500000I30000J0D01*
G01*
X32880000Y-24300000D02*
G75*
G02*
X32820000Y-24300000I-30000J0D01*
G01*
X32820000Y-24300000D02*
G75*
G02*
X32880000Y-24300000I30000J0D01*
G01*
X32880000Y-27100000D02*
G75*
G02*
X32820000Y-27100000I-30000J0D01*
G01*
X32820000Y-27100000D02*
G75*
G02*
X32880000Y-27100000I30000J0D01*
G01*
X34730000Y-7200000D02*
G75*
G02*
X34670000Y-7200000I-30000J0D01*
G01*
X34670000Y-7200000D02*
G75*
G02*
X34730000Y-7200000I30000J0D01*
G01*
X34730000Y-10000000D02*
G75*
G02*
X34670000Y-10000000I-30000J0D01*
G01*
X34670000Y-10000000D02*
G75*
G02*
X34730000Y-10000000I30000J0D01*
G01*
X34730000Y-12800000D02*
G75*
G02*
X34670000Y-12800000I-30000J0D01*
G01*
X34670000Y-12800000D02*
G75*
G02*
X34730000Y-12800000I30000J0D01*
G01*
X34730000Y-15600000D02*
G75*
G02*
X34670000Y-15600000I-30000J0D01*
G01*
X34670000Y-15600000D02*
G75*
G02*
X34730000Y-15600000I30000J0D01*
G01*
X34730000Y-18400000D02*
G75*
G02*
X34670000Y-18400000I-30000J0D01*
G01*
X34670000Y-18400000D02*
G75*
G02*
X34730000Y-18400000I30000J0D01*
G01*
X34730000Y-21200000D02*
G75*
G02*
X34670000Y-21200000I-30000J0D01*
G01*
X34670000Y-21200000D02*
G75*
G02*
X34730000Y-21200000I30000J0D01*
G01*
X34730000Y-24000000D02*
G75*
G02*
X34670000Y-24000000I-30000J0D01*
G01*
X34670000Y-24000000D02*
G75*
G02*
X34730000Y-24000000I30000J0D01*
G01*
X34730000Y-26800000D02*
G75*
G02*
X34670000Y-26800000I-30000J0D01*
G01*
X34670000Y-26800000D02*
G75*
G02*
X34730000Y-26800000I30000J0D01*
G01*
X35680000Y-7500000D02*
G75*
G02*
X35620000Y-7500000I-30000J0D01*
G01*
X35620000Y-7500000D02*
G75*
G02*
X35680000Y-7500000I30000J0D01*
G01*
X35680000Y-10300000D02*
G75*
G02*
X35620000Y-10300000I-30000J0D01*
G01*
X35620000Y-10300000D02*
G75*
G02*
X35680000Y-10300000I30000J0D01*
G01*
X35680000Y-13100000D02*
G75*
G02*
X35620000Y-13100000I-30000J0D01*
G01*
X35620000Y-13100000D02*
G75*
G02*
X35680000Y-13100000I30000J0D01*
G01*
X35680000Y-15900000D02*
G75*
G02*
X35620000Y-15900000I-30000J0D01*
G01*
X35620000Y-15900000D02*
G75*
G02*
X35680000Y-15900000I30000J0D01*
G01*
X35680000Y-18700000D02*
G75*
G02*
X35620000Y-18700000I-30000J0D01*
G01*
X35620000Y-18700000D02*
G75*
G02*
X35680000Y-18700000I30000J0D01*
G01*
X35680000Y-21500000D02*
G75*
G02*
X35620000Y-21500000I-30000J0D01*
G01*
X35620000Y-21500000D02*
G75*
G02*
X35680000Y-21500000I30000J0D01*
G01*
X35680000Y-24300000D02*
G75*
G02*
X35620000Y-24300000I-30000J0D01*
G01*
X35620000Y-24300000D02*
G75*
G02*
X35680000Y-24300000I30000J0D01*
G01*
X35680000Y-27100000D02*
G75*
G02*
X35620000Y-27100000I-30000J0D01*
G01*
X35620000Y-27100000D02*
G75*
G02*
X35680000Y-27100000I30000J0D01*
G01*
X37530000Y-7200000D02*
G75*
G02*
X37470000Y-7200000I-30000J0D01*
G01*
X37470000Y-7200000D02*
G75*
G02*
X37530000Y-7200000I30000J0D01*
G01*
X37530000Y-10000000D02*
G75*
G02*
X37470000Y-10000000I-30000J0D01*
G01*
X37470000Y-10000000D02*
G75*
G02*
X37530000Y-10000000I30000J0D01*
G01*
X37530000Y-12800000D02*
G75*
G02*
X37470000Y-12800000I-30000J0D01*
G01*
X37470000Y-12800000D02*
G75*
G02*
X37530000Y-12800000I30000J0D01*
G01*
X37530000Y-15600000D02*
G75*
G02*
X37470000Y-15600000I-30000J0D01*
G01*
X37470000Y-15600000D02*
G75*
G02*
X37530000Y-15600000I30000J0D01*
G01*
X37530000Y-18400000D02*
G75*
G02*
X37470000Y-18400000I-30000J0D01*
G01*
X37470000Y-18400000D02*
G75*
G02*
X37530000Y-18400000I30000J0D01*
G01*
X37530000Y-21200000D02*
G75*
G02*
X37470000Y-21200000I-30000J0D01*
G01*
X37470000Y-21200000D02*
G75*
G02*
X37530000Y-21200000I30000J0D01*
G01*
X37530000Y-24000000D02*
G75*
G02*
X37470000Y-24000000I-30000J0D01*
G01*
X37470000Y-24000000D02*
G75*
G02*
X37530000Y-24000000I30000J0D01*
G01*
X37530000Y-26800000D02*
G75*
G02*
X37470000Y-26800000I-30000J0D01*
G01*
X37470000Y-26800000D02*
G75*
G02*
X37530000Y-26800000I30000J0D01*
G01*
X38480000Y-7500000D02*
G75*
G02*
X38420000Y-7500000I-30000J0D01*
G01*
X38420000Y-7500000D02*
G75*
G02*
X38480000Y-7500000I30000J0D01*
G01*
X38480000Y-10300000D02*
G75*
G02*
X38420000Y-10300000I-30000J0D01*
G01*
X38420000Y-10300000D02*
G75*
G02*
X38480000Y-10300000I30000J0D01*
G01*
X38480000Y-13100000D02*
G75*
G02*
X38420000Y-13100000I-30000J0D01*
G01*
X38420000Y-13100000D02*
G75*
G02*
X38480000Y-13100000I30000J0D01*
G01*
X38480000Y-15900000D02*
G75*
G02*
X38420000Y-15900000I-30000J0D01*
G01*
X38420000Y-15900000D02*
G75*
G02*
X38480000Y-15900000I30000J0D01*
G01*
X38480000Y-18700000D02*
G75*
G02*
X38420000Y-18700000I-30000J0D01*
G01*
X38420000Y-18700000D02*
G75*
G02*
X38480000Y-18700000I30000J0D01*
G01*
X38480000Y-21500000D02*
G75*
G02*
X38420000Y-21500000I-30000J0D01*
G01*
X38420000Y-21500000D02*
G75*
G02*
X38480000Y-21500000I30000J0D01*
G01*
X38480000Y-24300000D02*
G75*
G02*
X38420000Y-24300000I-30000J0D01*
G01*
X38420000Y-24300000D02*
G75*
G02*
X38480000Y-24300000I30000J0D01*
G01*
X38480000Y-27100000D02*
G75*
G02*
X38420000Y-27100000I-30000J0D01*
G01*
X38420000Y-27100000D02*
G75*
G02*
X38480000Y-27100000I30000J0D01*
G01*
X40330000Y-7200000D02*
G75*
G02*
X40270000Y-7200000I-30000J0D01*
G01*
X40270000Y-7200000D02*
G75*
G02*
X40330000Y-7200000I30000J0D01*
G01*
X40330000Y-10000000D02*
G75*
G02*
X40270000Y-10000000I-30000J0D01*
G01*
X40270000Y-10000000D02*
G75*
G02*
X40330000Y-10000000I30000J0D01*
G01*
X40330000Y-12800000D02*
G75*
G02*
X40270000Y-12800000I-30000J0D01*
G01*
X40270000Y-12800000D02*
G75*
G02*
X40330000Y-12800000I30000J0D01*
G01*
X40330000Y-15600000D02*
G75*
G02*
X40270000Y-15600000I-30000J0D01*
G01*
X40270000Y-15600000D02*
G75*
G02*
X40330000Y-15600000I30000J0D01*
G01*
X40330000Y-18400000D02*
G75*
G02*
X40270000Y-18400000I-30000J0D01*
G01*
X40270000Y-18400000D02*
G75*
G02*
X40330000Y-18400000I30000J0D01*
G01*
X40330000Y-21200000D02*
G75*
G02*
X40270000Y-21200000I-30000J0D01*
G01*
X40270000Y-21200000D02*
G75*
G02*
X40330000Y-21200000I30000J0D01*
G01*
X40330000Y-24000000D02*
G75*
G02*
X40270000Y-24000000I-30000J0D01*
G01*
X40270000Y-24000000D02*
G75*
G02*
X40330000Y-24000000I30000J0D01*
G01*
X40330000Y-26800000D02*
G75*
G02*
X40270000Y-26800000I-30000J0D01*
G01*
X40270000Y-26800000D02*
G75*
G02*
X40330000Y-26800000I30000J0D01*
G01*
X41280000Y-7500000D02*
G75*
G02*
X41220000Y-7500000I-30000J0D01*
G01*
X41220000Y-7500000D02*
G75*
G02*
X41280000Y-7500000I30000J0D01*
G01*
X41280000Y-10300000D02*
G75*
G02*
X41220000Y-10300000I-30000J0D01*
G01*
X41220000Y-10300000D02*
G75*
G02*
X41280000Y-10300000I30000J0D01*
G01*
X41280000Y-13100000D02*
G75*
G02*
X41220000Y-13100000I-30000J0D01*
G01*
X41220000Y-13100000D02*
G75*
G02*
X41280000Y-13100000I30000J0D01*
G01*
X41280000Y-15900000D02*
G75*
G02*
X41220000Y-15900000I-30000J0D01*
G01*
X41220000Y-15900000D02*
G75*
G02*
X41280000Y-15900000I30000J0D01*
G01*
X41280000Y-18700000D02*
G75*
G02*
X41220000Y-18700000I-30000J0D01*
G01*
X41220000Y-18700000D02*
G75*
G02*
X41280000Y-18700000I30000J0D01*
G01*
X41280000Y-21500000D02*
G75*
G02*
X41220000Y-21500000I-30000J0D01*
G01*
X41220000Y-21500000D02*
G75*
G02*
X41280000Y-21500000I30000J0D01*
G01*
X41280000Y-24300000D02*
G75*
G02*
X41220000Y-24300000I-30000J0D01*
G01*
X41220000Y-24300000D02*
G75*
G02*
X41280000Y-24300000I30000J0D01*
G01*
X41280000Y-27100000D02*
G75*
G02*
X41220000Y-27100000I-30000J0D01*
G01*
X41220000Y-27100000D02*
G75*
G02*
X41280000Y-27100000I30000J0D01*
G01*
X43130000Y-7200000D02*
G75*
G02*
X43070000Y-7200000I-30000J0D01*
G01*
X43070000Y-7200000D02*
G75*
G02*
X43130000Y-7200000I30000J0D01*
G01*
X43130000Y-10000000D02*
G75*
G02*
X43070000Y-10000000I-30000J0D01*
G01*
X43070000Y-10000000D02*
G75*
G02*
X43130000Y-10000000I30000J0D01*
G01*
X43130000Y-12800000D02*
G75*
G02*
X43070000Y-12800000I-30000J0D01*
G01*
X43070000Y-12800000D02*
G75*
G02*
X43130000Y-12800000I30000J0D01*
G01*
X43130000Y-15600000D02*
G75*
G02*
X43070000Y-15600000I-30000J0D01*
G01*
X43070000Y-15600000D02*
G75*
G02*
X43130000Y-15600000I30000J0D01*
G01*
X43130000Y-18400000D02*
G75*
G02*
X43070000Y-18400000I-30000J0D01*
G01*
X43070000Y-18400000D02*
G75*
G02*
X43130000Y-18400000I30000J0D01*
G01*
X43130000Y-21200000D02*
G75*
G02*
X43070000Y-21200000I-30000J0D01*
G01*
X43070000Y-21200000D02*
G75*
G02*
X43130000Y-21200000I30000J0D01*
G01*
X43130000Y-24000000D02*
G75*
G02*
X43070000Y-24000000I-30000J0D01*
G01*
X43070000Y-24000000D02*
G75*
G02*
X43130000Y-24000000I30000J0D01*
G01*
X43130000Y-26800000D02*
G75*
G02*
X43070000Y-26800000I-30000J0D01*
G01*
X43070000Y-26800000D02*
G75*
G02*
X43130000Y-26800000I30000J0D01*
G01*
X44080000Y-7500000D02*
G75*
G02*
X44020000Y-7500000I-30000J0D01*
G01*
X44020000Y-7500000D02*
G75*
G02*
X44080000Y-7500000I30000J0D01*
G01*
X44080000Y-10300000D02*
G75*
G02*
X44020000Y-10300000I-30000J0D01*
G01*
X44020000Y-10300000D02*
G75*
G02*
X44080000Y-10300000I30000J0D01*
G01*
X44080000Y-13100000D02*
G75*
G02*
X44020000Y-13100000I-30000J0D01*
G01*
X44020000Y-13100000D02*
G75*
G02*
X44080000Y-13100000I30000J0D01*
G01*
X44080000Y-15900000D02*
G75*
G02*
X44020000Y-15900000I-30000J0D01*
G01*
X44020000Y-15900000D02*
G75*
G02*
X44080000Y-15900000I30000J0D01*
G01*
X44080000Y-18700000D02*
G75*
G02*
X44020000Y-18700000I-30000J0D01*
G01*
X44020000Y-18700000D02*
G75*
G02*
X44080000Y-18700000I30000J0D01*
G01*
X44080000Y-21500000D02*
G75*
G02*
X44020000Y-21500000I-30000J0D01*
G01*
X44020000Y-21500000D02*
G75*
G02*
X44080000Y-21500000I30000J0D01*
G01*
X44080000Y-24300000D02*
G75*
G02*
X44020000Y-24300000I-30000J0D01*
G01*
X44020000Y-24300000D02*
G75*
G02*
X44080000Y-24300000I30000J0D01*
G01*
X44080000Y-27100000D02*
G75*
G02*
X44020000Y-27100000I-30000J0D01*
G01*
X44020000Y-27100000D02*
G75*
G02*
X44080000Y-27100000I30000J0D01*
G01*
X44930000Y-7200000D02*
G75*
G02*
X44870000Y-7200000I-30000J0D01*
G01*
X44870000Y-7200000D02*
G75*
G02*
X44930000Y-7200000I30000J0D01*
G01*
X44930000Y-7810500D02*
G75*
G02*
X44870000Y-7810500I-30000J0D01*
G01*
X44870000Y-7810500D02*
G75*
G02*
X44930000Y-7810500I30000J0D01*
G01*
X45930000Y-7200000D02*
G75*
G02*
X45870000Y-7200000I-30000J0D01*
G01*
X45870000Y-7200000D02*
G75*
G02*
X45930000Y-7200000I30000J0D01*
G01*
X45930000Y-10000000D02*
G75*
G02*
X45870000Y-10000000I-30000J0D01*
G01*
X45870000Y-10000000D02*
G75*
G02*
X45930000Y-10000000I30000J0D01*
G01*
X45930000Y-12800000D02*
G75*
G02*
X45870000Y-12800000I-30000J0D01*
G01*
X45870000Y-12800000D02*
G75*
G02*
X45930000Y-12800000I30000J0D01*
G01*
X45930000Y-15600000D02*
G75*
G02*
X45870000Y-15600000I-30000J0D01*
G01*
X45870000Y-15600000D02*
G75*
G02*
X45930000Y-15600000I30000J0D01*
G01*
X45930000Y-18400000D02*
G75*
G02*
X45870000Y-18400000I-30000J0D01*
G01*
X45870000Y-18400000D02*
G75*
G02*
X45930000Y-18400000I30000J0D01*
G01*
X45930000Y-21200000D02*
G75*
G02*
X45870000Y-21200000I-30000J0D01*
G01*
X45870000Y-21200000D02*
G75*
G02*
X45930000Y-21200000I30000J0D01*
G01*
X45930000Y-24000000D02*
G75*
G02*
X45870000Y-24000000I-30000J0D01*
G01*
X45870000Y-24000000D02*
G75*
G02*
X45930000Y-24000000I30000J0D01*
G01*
X45930000Y-26800000D02*
G75*
G02*
X45870000Y-26800000I-30000J0D01*
G01*
X45870000Y-26800000D02*
G75*
G02*
X45930000Y-26800000I30000J0D01*
G01*
X46880000Y-7500000D02*
G75*
G02*
X46820000Y-7500000I-30000J0D01*
G01*
X46820000Y-7500000D02*
G75*
G02*
X46880000Y-7500000I30000J0D01*
G01*
X46880000Y-10300000D02*
G75*
G02*
X46820000Y-10300000I-30000J0D01*
G01*
X46820000Y-10300000D02*
G75*
G02*
X46880000Y-10300000I30000J0D01*
G01*
X46880000Y-13100000D02*
G75*
G02*
X46820000Y-13100000I-30000J0D01*
G01*
X46820000Y-13100000D02*
G75*
G02*
X46880000Y-13100000I30000J0D01*
G01*
X46880000Y-15900000D02*
G75*
G02*
X46820000Y-15900000I-30000J0D01*
G01*
X46820000Y-15900000D02*
G75*
G02*
X46880000Y-15900000I30000J0D01*
G01*
X46880000Y-18700000D02*
G75*
G02*
X46820000Y-18700000I-30000J0D01*
G01*
X46820000Y-18700000D02*
G75*
G02*
X46880000Y-18700000I30000J0D01*
G01*
X46880000Y-21500000D02*
G75*
G02*
X46820000Y-21500000I-30000J0D01*
G01*
X46820000Y-21500000D02*
G75*
G02*
X46880000Y-21500000I30000J0D01*
G01*
X46880000Y-24300000D02*
G75*
G02*
X46820000Y-24300000I-30000J0D01*
G01*
X46820000Y-24300000D02*
G75*
G02*
X46880000Y-24300000I30000J0D01*
G01*
X46880000Y-27100000D02*
G75*
G02*
X46820000Y-27100000I-30000J0D01*
G01*
X46820000Y-27100000D02*
G75*
G02*
X46880000Y-27100000I30000J0D01*
G01*
X48080000Y-7200000D02*
G75*
G02*
X48020000Y-7200000I-30000J0D01*
G01*
X48020000Y-7200000D02*
G75*
G02*
X48080000Y-7200000I30000J0D01*
G01*
X48080000Y-7750000D02*
G75*
G02*
X48020000Y-7750000I-30000J0D01*
G01*
X48020000Y-7750000D02*
G75*
G02*
X48080000Y-7750000I30000J0D01*
G01*
X48730000Y-7200000D02*
G75*
G02*
X48670000Y-7200000I-30000J0D01*
G01*
X48670000Y-7200000D02*
G75*
G02*
X48730000Y-7200000I30000J0D01*
G01*
X48730000Y-10000000D02*
G75*
G02*
X48670000Y-10000000I-30000J0D01*
G01*
X48670000Y-10000000D02*
G75*
G02*
X48730000Y-10000000I30000J0D01*
G01*
X48730000Y-12800000D02*
G75*
G02*
X48670000Y-12800000I-30000J0D01*
G01*
X48670000Y-12800000D02*
G75*
G02*
X48730000Y-12800000I30000J0D01*
G01*
X48730000Y-15600000D02*
G75*
G02*
X48670000Y-15600000I-30000J0D01*
G01*
X48670000Y-15600000D02*
G75*
G02*
X48730000Y-15600000I30000J0D01*
G01*
X48730000Y-18400000D02*
G75*
G02*
X48670000Y-18400000I-30000J0D01*
G01*
X48670000Y-18400000D02*
G75*
G02*
X48730000Y-18400000I30000J0D01*
G01*
X48730000Y-21200000D02*
G75*
G02*
X48670000Y-21200000I-30000J0D01*
G01*
X48670000Y-21200000D02*
G75*
G02*
X48730000Y-21200000I30000J0D01*
G01*
X48730000Y-24000000D02*
G75*
G02*
X48670000Y-24000000I-30000J0D01*
G01*
X48670000Y-24000000D02*
G75*
G02*
X48730000Y-24000000I30000J0D01*
G01*
X48730000Y-26800000D02*
G75*
G02*
X48670000Y-26800000I-30000J0D01*
G01*
X48670000Y-26800000D02*
G75*
G02*
X48730000Y-26800000I30000J0D01*
G01*
X49680000Y-7500000D02*
G75*
G02*
X49620000Y-7500000I-30000J0D01*
G01*
X49620000Y-7500000D02*
G75*
G02*
X49680000Y-7500000I30000J0D01*
G01*
X49680000Y-10300000D02*
G75*
G02*
X49620000Y-10300000I-30000J0D01*
G01*
X49620000Y-10300000D02*
G75*
G02*
X49680000Y-10300000I30000J0D01*
G01*
X49680000Y-13100000D02*
G75*
G02*
X49620000Y-13100000I-30000J0D01*
G01*
X49620000Y-13100000D02*
G75*
G02*
X49680000Y-13100000I30000J0D01*
G01*
X49680000Y-15900000D02*
G75*
G02*
X49620000Y-15900000I-30000J0D01*
G01*
X49620000Y-15900000D02*
G75*
G02*
X49680000Y-15900000I30000J0D01*
G01*
X49680000Y-18700000D02*
G75*
G02*
X49620000Y-18700000I-30000J0D01*
G01*
X49620000Y-18700000D02*
G75*
G02*
X49680000Y-18700000I30000J0D01*
G01*
X49680000Y-21500000D02*
G75*
G02*
X49620000Y-21500000I-30000J0D01*
G01*
X49620000Y-21500000D02*
G75*
G02*
X49680000Y-21500000I30000J0D01*
G01*
X49680000Y-24300000D02*
G75*
G02*
X49620000Y-24300000I-30000J0D01*
G01*
X49620000Y-24300000D02*
G75*
G02*
X49680000Y-24300000I30000J0D01*
G01*
X49680000Y-27100000D02*
G75*
G02*
X49620000Y-27100000I-30000J0D01*
G01*
X49620000Y-27100000D02*
G75*
G02*
X49680000Y-27100000I30000J0D01*
G01*
X51530000Y-7200000D02*
G75*
G02*
X51470000Y-7200000I-30000J0D01*
G01*
X51470000Y-7200000D02*
G75*
G02*
X51530000Y-7200000I30000J0D01*
G01*
X51530000Y-10000000D02*
G75*
G02*
X51470000Y-10000000I-30000J0D01*
G01*
X51470000Y-10000000D02*
G75*
G02*
X51530000Y-10000000I30000J0D01*
G01*
X51530000Y-12800000D02*
G75*
G02*
X51470000Y-12800000I-30000J0D01*
G01*
X51470000Y-12800000D02*
G75*
G02*
X51530000Y-12800000I30000J0D01*
G01*
X51530000Y-15600000D02*
G75*
G02*
X51470000Y-15600000I-30000J0D01*
G01*
X51470000Y-15600000D02*
G75*
G02*
X51530000Y-15600000I30000J0D01*
G01*
X51530000Y-18400000D02*
G75*
G02*
X51470000Y-18400000I-30000J0D01*
G01*
X51470000Y-18400000D02*
G75*
G02*
X51530000Y-18400000I30000J0D01*
G01*
X51530000Y-21200000D02*
G75*
G02*
X51470000Y-21200000I-30000J0D01*
G01*
X51470000Y-21200000D02*
G75*
G02*
X51530000Y-21200000I30000J0D01*
G01*
X51530000Y-24000000D02*
G75*
G02*
X51470000Y-24000000I-30000J0D01*
G01*
X51470000Y-24000000D02*
G75*
G02*
X51530000Y-24000000I30000J0D01*
G01*
X51530000Y-26800000D02*
G75*
G02*
X51470000Y-26800000I-30000J0D01*
G01*
X51470000Y-26800000D02*
G75*
G02*
X51530000Y-26800000I30000J0D01*
G01*
X52480000Y-7500000D02*
G75*
G02*
X52420000Y-7500000I-30000J0D01*
G01*
X52420000Y-7500000D02*
G75*
G02*
X52480000Y-7500000I30000J0D01*
G01*
X52480000Y-10300000D02*
G75*
G02*
X52420000Y-10300000I-30000J0D01*
G01*
X52420000Y-10300000D02*
G75*
G02*
X52480000Y-10300000I30000J0D01*
G01*
X52480000Y-13100000D02*
G75*
G02*
X52420000Y-13100000I-30000J0D01*
G01*
X52420000Y-13100000D02*
G75*
G02*
X52480000Y-13100000I30000J0D01*
G01*
X52480000Y-15900000D02*
G75*
G02*
X52420000Y-15900000I-30000J0D01*
G01*
X52420000Y-15900000D02*
G75*
G02*
X52480000Y-15900000I30000J0D01*
G01*
X52480000Y-18700000D02*
G75*
G02*
X52420000Y-18700000I-30000J0D01*
G01*
X52420000Y-18700000D02*
G75*
G02*
X52480000Y-18700000I30000J0D01*
G01*
X52480000Y-21500000D02*
G75*
G02*
X52420000Y-21500000I-30000J0D01*
G01*
X52420000Y-21500000D02*
G75*
G02*
X52480000Y-21500000I30000J0D01*
G01*
X52480000Y-24300000D02*
G75*
G02*
X52420000Y-24300000I-30000J0D01*
G01*
X52420000Y-24300000D02*
G75*
G02*
X52480000Y-24300000I30000J0D01*
G01*
X52480000Y-27100000D02*
G75*
G02*
X52420000Y-27100000I-30000J0D01*
G01*
X52420000Y-27100000D02*
G75*
G02*
X52480000Y-27100000I30000J0D01*
G01*
X42612500Y-8280000D02*
X42612500Y-8360000D01*
X42572500Y-8320000D02*
X42652500Y-8320000D01*
X42612500Y-9042000D02*
X42612500Y-9122000D01*
X42572500Y-9082000D02*
X42652500Y-9082000D01*
X42866500Y-8280000D02*
X42866500Y-8360000D01*
X42826500Y-8320000D02*
X42906500Y-8320000D01*
X42866500Y-9042000D02*
X42866500Y-9122000D01*
X42826500Y-9082000D02*
X42906500Y-9082000D01*
X43120500Y-8280000D02*
X43120500Y-8360000D01*
X43080500Y-8320000D02*
X43160500Y-8320000D01*
X43120500Y-9042000D02*
X43120500Y-9122000D01*
X43080500Y-9082000D02*
X43160500Y-9082000D01*
X43374500Y-8280000D02*
X43374500Y-8360000D01*
X43334500Y-8320000D02*
X43414500Y-8320000D01*
X43374500Y-9042000D02*
X43374500Y-9122000D01*
X43334500Y-9082000D02*
X43414500Y-9082000D01*
X43628500Y-8280000D02*
X43628500Y-8360000D01*
X43588500Y-8320000D02*
X43668500Y-8320000D01*
X43628500Y-9042000D02*
X43628500Y-9122000D01*
X43588500Y-9082000D02*
X43668500Y-9082000D01*
X43882500Y-8280000D02*
X43882500Y-8360000D01*
X43842500Y-8320000D02*
X43922500Y-8320000D01*
X43882500Y-9042000D02*
X43882500Y-9122000D01*
X43842500Y-9082000D02*
X43922500Y-9082000D01*
X44136500Y-8280000D02*
X44136500Y-8360000D01*
X44096500Y-8320000D02*
X44176500Y-8320000D01*
X44136500Y-9042000D02*
X44136500Y-9122000D01*
X44096500Y-9082000D02*
X44176500Y-9082000D01*
X44390500Y-8280000D02*
X44390500Y-8360000D01*
X44350500Y-8320000D02*
X44430500Y-8320000D01*
X44390500Y-9042000D02*
X44390500Y-9122000D01*
X44350500Y-9082000D02*
X44430500Y-9082000D01*
D12*
X51268640Y-11365640D02*
X51268640Y-11238360D01*
X51141360Y-11238360D01*
X51141360Y-11365640D01*
X51268640Y-11365640D01*
X51268640Y-11761640D02*
X51268640Y-11634360D01*
X51141360Y-11634360D01*
X51141360Y-11761640D01*
X51268640Y-11761640D01*
D10*
X31550777Y-28321484D02*
X31550777Y-28121484D01*
X31550777Y-28121484D02*
X31598396Y-28121484D01*
X31598396Y-28121484D02*
X31626967Y-28131008D01*
X31626967Y-28131008D02*
X31646015Y-28150055D01*
X31646015Y-28150055D02*
X31655539Y-28169103D01*
X31655539Y-28169103D02*
X31665062Y-28207198D01*
X31665062Y-28207198D02*
X31665062Y-28235769D01*
X31665062Y-28235769D02*
X31655539Y-28273865D01*
X31655539Y-28273865D02*
X31646015Y-28292912D01*
X31646015Y-28292912D02*
X31626967Y-28311960D01*
X31626967Y-28311960D02*
X31598396Y-28321484D01*
X31598396Y-28321484D02*
X31550777Y-28321484D01*
X31750777Y-28321484D02*
X31750777Y-28188150D01*
X31750777Y-28226246D02*
X31760301Y-28207198D01*
X31760301Y-28207198D02*
X31769824Y-28197674D01*
X31769824Y-28197674D02*
X31788872Y-28188150D01*
X31788872Y-28188150D02*
X31807920Y-28188150D01*
X31874586Y-28321484D02*
X31874586Y-28188150D01*
X31874586Y-28121484D02*
X31865062Y-28131008D01*
X31865062Y-28131008D02*
X31874586Y-28140531D01*
X31874586Y-28140531D02*
X31884110Y-28131008D01*
X31884110Y-28131008D02*
X31874586Y-28121484D01*
X31874586Y-28121484D02*
X31874586Y-28140531D01*
X31998396Y-28321484D02*
X31979348Y-28311960D01*
X31979348Y-28311960D02*
X31969824Y-28292912D01*
X31969824Y-28292912D02*
X31969824Y-28121484D01*
X32103158Y-28321484D02*
X32084110Y-28311960D01*
X32084110Y-28311960D02*
X32074586Y-28292912D01*
X32074586Y-28292912D02*
X32074586Y-28121484D01*
X32331729Y-28321484D02*
X32331729Y-28121484D01*
X32331729Y-28121484D02*
X32398396Y-28264341D01*
X32398396Y-28264341D02*
X32465062Y-28121484D01*
X32465062Y-28121484D02*
X32465062Y-28321484D01*
X32646015Y-28321484D02*
X32646015Y-28216722D01*
X32646015Y-28216722D02*
X32636491Y-28197674D01*
X32636491Y-28197674D02*
X32617443Y-28188150D01*
X32617443Y-28188150D02*
X32579348Y-28188150D01*
X32579348Y-28188150D02*
X32560301Y-28197674D01*
X32646015Y-28311960D02*
X32626967Y-28321484D01*
X32626967Y-28321484D02*
X32579348Y-28321484D01*
X32579348Y-28321484D02*
X32560301Y-28311960D01*
X32560301Y-28311960D02*
X32550777Y-28292912D01*
X32550777Y-28292912D02*
X32550777Y-28273865D01*
X32550777Y-28273865D02*
X32560301Y-28254817D01*
X32560301Y-28254817D02*
X32579348Y-28245293D01*
X32579348Y-28245293D02*
X32626967Y-28245293D01*
X32626967Y-28245293D02*
X32646015Y-28235769D01*
X32741253Y-28188150D02*
X32741253Y-28388150D01*
X32741253Y-28197674D02*
X32760301Y-28188150D01*
X32760301Y-28188150D02*
X32798396Y-28188150D01*
X32798396Y-28188150D02*
X32817443Y-28197674D01*
X32817443Y-28197674D02*
X32826967Y-28207198D01*
X32826967Y-28207198D02*
X32836491Y-28226246D01*
X32836491Y-28226246D02*
X32836491Y-28283388D01*
X32836491Y-28283388D02*
X32826967Y-28302436D01*
X32826967Y-28302436D02*
X32817443Y-28311960D01*
X32817443Y-28311960D02*
X32798396Y-28321484D01*
X32798396Y-28321484D02*
X32760301Y-28321484D01*
X32760301Y-28321484D02*
X32741253Y-28311960D01*
X32922205Y-28302436D02*
X32931729Y-28311960D01*
X32931729Y-28311960D02*
X32922205Y-28321484D01*
X32922205Y-28321484D02*
X32912682Y-28311960D01*
X32912682Y-28311960D02*
X32922205Y-28302436D01*
X32922205Y-28302436D02*
X32922205Y-28321484D01*
X32922205Y-28197674D02*
X32931729Y-28207198D01*
X32931729Y-28207198D02*
X32922205Y-28216722D01*
X32922205Y-28216722D02*
X32912682Y-28207198D01*
X32912682Y-28207198D02*
X32922205Y-28197674D01*
X32922205Y-28197674D02*
X32922205Y-28216722D01*
D11*
X31260000Y-28635000D02*
X31290000Y-28665000D01*
X31290000Y-28635000D02*
X31260000Y-28665000D01*
D10*
X31588872Y-28541484D02*
X31607920Y-28541484D01*
X31607920Y-28541484D02*
X31626967Y-28551008D01*
X31626967Y-28551008D02*
X31636491Y-28560531D01*
X31636491Y-28560531D02*
X31646015Y-28579579D01*
X31646015Y-28579579D02*
X31655539Y-28617674D01*
X31655539Y-28617674D02*
X31655539Y-28665293D01*
X31655539Y-28665293D02*
X31646015Y-28703388D01*
X31646015Y-28703388D02*
X31636491Y-28722436D01*
X31636491Y-28722436D02*
X31626967Y-28731960D01*
X31626967Y-28731960D02*
X31607920Y-28741484D01*
X31607920Y-28741484D02*
X31588872Y-28741484D01*
X31588872Y-28741484D02*
X31569824Y-28731960D01*
X31569824Y-28731960D02*
X31560301Y-28722436D01*
X31560301Y-28722436D02*
X31550777Y-28703388D01*
X31550777Y-28703388D02*
X31541253Y-28665293D01*
X31541253Y-28665293D02*
X31541253Y-28617674D01*
X31541253Y-28617674D02*
X31550777Y-28579579D01*
X31550777Y-28579579D02*
X31560301Y-28560531D01*
X31560301Y-28560531D02*
X31569824Y-28551008D01*
X31569824Y-28551008D02*
X31588872Y-28541484D01*
X31741253Y-28722436D02*
X31750777Y-28731960D01*
X31750777Y-28731960D02*
X31741253Y-28741484D01*
X31741253Y-28741484D02*
X31731729Y-28731960D01*
X31731729Y-28731960D02*
X31741253Y-28722436D01*
X31741253Y-28722436D02*
X31741253Y-28741484D01*
X31817443Y-28541484D02*
X31941253Y-28541484D01*
X31941253Y-28541484D02*
X31874586Y-28617674D01*
X31874586Y-28617674D02*
X31903158Y-28617674D01*
X31903158Y-28617674D02*
X31922205Y-28627198D01*
X31922205Y-28627198D02*
X31931729Y-28636722D01*
X31931729Y-28636722D02*
X31941253Y-28655769D01*
X31941253Y-28655769D02*
X31941253Y-28703388D01*
X31941253Y-28703388D02*
X31931729Y-28722436D01*
X31931729Y-28722436D02*
X31922205Y-28731960D01*
X31922205Y-28731960D02*
X31903158Y-28741484D01*
X31903158Y-28741484D02*
X31846015Y-28741484D01*
X31846015Y-28741484D02*
X31826967Y-28731960D01*
X31826967Y-28731960D02*
X31817443Y-28722436D01*
X32065062Y-28541484D02*
X32084110Y-28541484D01*
X32084110Y-28541484D02*
X32103158Y-28551008D01*
X32103158Y-28551008D02*
X32112682Y-28560531D01*
X32112682Y-28560531D02*
X32122205Y-28579579D01*
X32122205Y-28579579D02*
X32131729Y-28617674D01*
X32131729Y-28617674D02*
X32131729Y-28665293D01*
X32131729Y-28665293D02*
X32122205Y-28703388D01*
X32122205Y-28703388D02*
X32112682Y-28722436D01*
X32112682Y-28722436D02*
X32103158Y-28731960D01*
X32103158Y-28731960D02*
X32084110Y-28741484D01*
X32084110Y-28741484D02*
X32065062Y-28741484D01*
X32065062Y-28741484D02*
X32046015Y-28731960D01*
X32046015Y-28731960D02*
X32036491Y-28722436D01*
X32036491Y-28722436D02*
X32026967Y-28703388D01*
X32026967Y-28703388D02*
X32017443Y-28665293D01*
X32017443Y-28665293D02*
X32017443Y-28617674D01*
X32017443Y-28617674D02*
X32026967Y-28579579D01*
X32026967Y-28579579D02*
X32036491Y-28560531D01*
X32036491Y-28560531D02*
X32046015Y-28551008D01*
X32046015Y-28551008D02*
X32065062Y-28541484D01*
X32255539Y-28541484D02*
X32274586Y-28541484D01*
X32274586Y-28541484D02*
X32293634Y-28551008D01*
X32293634Y-28551008D02*
X32303158Y-28560531D01*
X32303158Y-28560531D02*
X32312682Y-28579579D01*
X32312682Y-28579579D02*
X32322205Y-28617674D01*
X32322205Y-28617674D02*
X32322205Y-28665293D01*
X32322205Y-28665293D02*
X32312682Y-28703388D01*
X32312682Y-28703388D02*
X32303158Y-28722436D01*
X32303158Y-28722436D02*
X32293634Y-28731960D01*
X32293634Y-28731960D02*
X32274586Y-28741484D01*
X32274586Y-28741484D02*
X32255539Y-28741484D01*
X32255539Y-28741484D02*
X32236491Y-28731960D01*
X32236491Y-28731960D02*
X32226967Y-28722436D01*
X32226967Y-28722436D02*
X32217443Y-28703388D01*
X32217443Y-28703388D02*
X32207920Y-28665293D01*
X32207920Y-28665293D02*
X32207920Y-28617674D01*
X32207920Y-28617674D02*
X32217443Y-28579579D01*
X32217443Y-28579579D02*
X32226967Y-28560531D01*
X32226967Y-28560531D02*
X32236491Y-28551008D01*
X32236491Y-28551008D02*
X32255539Y-28541484D01*
X32407920Y-28741484D02*
X32407920Y-28608150D01*
X32407920Y-28627198D02*
X32417443Y-28617674D01*
X32417443Y-28617674D02*
X32436491Y-28608150D01*
X32436491Y-28608150D02*
X32465063Y-28608150D01*
X32465063Y-28608150D02*
X32484110Y-28617674D01*
X32484110Y-28617674D02*
X32493634Y-28636722D01*
X32493634Y-28636722D02*
X32493634Y-28741484D01*
X32493634Y-28636722D02*
X32503158Y-28617674D01*
X32503158Y-28617674D02*
X32522205Y-28608150D01*
X32522205Y-28608150D02*
X32550777Y-28608150D01*
X32550777Y-28608150D02*
X32569824Y-28617674D01*
X32569824Y-28617674D02*
X32579348Y-28636722D01*
X32579348Y-28636722D02*
X32579348Y-28741484D01*
X32674586Y-28741484D02*
X32674586Y-28608150D01*
X32674586Y-28627198D02*
X32684110Y-28617674D01*
X32684110Y-28617674D02*
X32703158Y-28608150D01*
X32703158Y-28608150D02*
X32731729Y-28608150D01*
X32731729Y-28608150D02*
X32750777Y-28617674D01*
X32750777Y-28617674D02*
X32760301Y-28636722D01*
X32760301Y-28636722D02*
X32760301Y-28741484D01*
X32760301Y-28636722D02*
X32769824Y-28617674D01*
X32769824Y-28617674D02*
X32788872Y-28608150D01*
X32788872Y-28608150D02*
X32817443Y-28608150D01*
X32817443Y-28608150D02*
X32836491Y-28617674D01*
X32836491Y-28617674D02*
X32846015Y-28636722D01*
X32846015Y-28636722D02*
X32846015Y-28741484D01*
X33236491Y-28531960D02*
X33065063Y-28789103D01*
X33493634Y-28541484D02*
X33512682Y-28541484D01*
X33512682Y-28541484D02*
X33531729Y-28551008D01*
X33531729Y-28551008D02*
X33541253Y-28560531D01*
X33541253Y-28560531D02*
X33550777Y-28579579D01*
X33550777Y-28579579D02*
X33560301Y-28617674D01*
X33560301Y-28617674D02*
X33560301Y-28665293D01*
X33560301Y-28665293D02*
X33550777Y-28703388D01*
X33550777Y-28703388D02*
X33541253Y-28722436D01*
X33541253Y-28722436D02*
X33531729Y-28731960D01*
X33531729Y-28731960D02*
X33512682Y-28741484D01*
X33512682Y-28741484D02*
X33493634Y-28741484D01*
X33493634Y-28741484D02*
X33474586Y-28731960D01*
X33474586Y-28731960D02*
X33465063Y-28722436D01*
X33465063Y-28722436D02*
X33455539Y-28703388D01*
X33455539Y-28703388D02*
X33446015Y-28665293D01*
X33446015Y-28665293D02*
X33446015Y-28617674D01*
X33446015Y-28617674D02*
X33455539Y-28579579D01*
X33455539Y-28579579D02*
X33465063Y-28560531D01*
X33465063Y-28560531D02*
X33474586Y-28551008D01*
X33474586Y-28551008D02*
X33493634Y-28541484D01*
X33646015Y-28722436D02*
X33655539Y-28731960D01*
X33655539Y-28731960D02*
X33646015Y-28741484D01*
X33646015Y-28741484D02*
X33636491Y-28731960D01*
X33636491Y-28731960D02*
X33646015Y-28722436D01*
X33646015Y-28722436D02*
X33646015Y-28741484D01*
X33779348Y-28541484D02*
X33798396Y-28541484D01*
X33798396Y-28541484D02*
X33817444Y-28551008D01*
X33817444Y-28551008D02*
X33826968Y-28560531D01*
X33826968Y-28560531D02*
X33836491Y-28579579D01*
X33836491Y-28579579D02*
X33846015Y-28617674D01*
X33846015Y-28617674D02*
X33846015Y-28665293D01*
X33846015Y-28665293D02*
X33836491Y-28703388D01*
X33836491Y-28703388D02*
X33826968Y-28722436D01*
X33826968Y-28722436D02*
X33817444Y-28731960D01*
X33817444Y-28731960D02*
X33798396Y-28741484D01*
X33798396Y-28741484D02*
X33779348Y-28741484D01*
X33779348Y-28741484D02*
X33760301Y-28731960D01*
X33760301Y-28731960D02*
X33750777Y-28722436D01*
X33750777Y-28722436D02*
X33741253Y-28703388D01*
X33741253Y-28703388D02*
X33731729Y-28665293D01*
X33731729Y-28665293D02*
X33731729Y-28617674D01*
X33731729Y-28617674D02*
X33741253Y-28579579D01*
X33741253Y-28579579D02*
X33750777Y-28560531D01*
X33750777Y-28560531D02*
X33760301Y-28551008D01*
X33760301Y-28551008D02*
X33779348Y-28541484D01*
X34036491Y-28741484D02*
X33922206Y-28741484D01*
X33979348Y-28741484D02*
X33979348Y-28541484D01*
X33979348Y-28541484D02*
X33960301Y-28570055D01*
X33960301Y-28570055D02*
X33941253Y-28589103D01*
X33941253Y-28589103D02*
X33922206Y-28598627D01*
X34226968Y-28741484D02*
X34112682Y-28741484D01*
X34169825Y-28741484D02*
X34169825Y-28541484D01*
X34169825Y-28541484D02*
X34150777Y-28570055D01*
X34150777Y-28570055D02*
X34131729Y-28589103D01*
X34131729Y-28589103D02*
X34112682Y-28598627D01*
X34341253Y-28627198D02*
X34322206Y-28617674D01*
X34322206Y-28617674D02*
X34312682Y-28608150D01*
X34312682Y-28608150D02*
X34303158Y-28589103D01*
X34303158Y-28589103D02*
X34303158Y-28579579D01*
X34303158Y-28579579D02*
X34312682Y-28560531D01*
X34312682Y-28560531D02*
X34322206Y-28551008D01*
X34322206Y-28551008D02*
X34341253Y-28541484D01*
X34341253Y-28541484D02*
X34379349Y-28541484D01*
X34379349Y-28541484D02*
X34398396Y-28551008D01*
X34398396Y-28551008D02*
X34407920Y-28560531D01*
X34407920Y-28560531D02*
X34417444Y-28579579D01*
X34417444Y-28579579D02*
X34417444Y-28589103D01*
X34417444Y-28589103D02*
X34407920Y-28608150D01*
X34407920Y-28608150D02*
X34398396Y-28617674D01*
X34398396Y-28617674D02*
X34379349Y-28627198D01*
X34379349Y-28627198D02*
X34341253Y-28627198D01*
X34341253Y-28627198D02*
X34322206Y-28636722D01*
X34322206Y-28636722D02*
X34312682Y-28646246D01*
X34312682Y-28646246D02*
X34303158Y-28665293D01*
X34303158Y-28665293D02*
X34303158Y-28703388D01*
X34303158Y-28703388D02*
X34312682Y-28722436D01*
X34312682Y-28722436D02*
X34322206Y-28731960D01*
X34322206Y-28731960D02*
X34341253Y-28741484D01*
X34341253Y-28741484D02*
X34379349Y-28741484D01*
X34379349Y-28741484D02*
X34398396Y-28731960D01*
X34398396Y-28731960D02*
X34407920Y-28722436D01*
X34407920Y-28722436D02*
X34417444Y-28703388D01*
X34417444Y-28703388D02*
X34417444Y-28665293D01*
X34417444Y-28665293D02*
X34407920Y-28646246D01*
X34407920Y-28646246D02*
X34398396Y-28636722D01*
X34398396Y-28636722D02*
X34379349Y-28627198D01*
X34493634Y-28541484D02*
X34493634Y-28579579D01*
X34569825Y-28541484D02*
X34569825Y-28579579D01*
X34865063Y-28817674D02*
X34855539Y-28808150D01*
X34855539Y-28808150D02*
X34836491Y-28779579D01*
X34836491Y-28779579D02*
X34826968Y-28760531D01*
X34826968Y-28760531D02*
X34817444Y-28731960D01*
X34817444Y-28731960D02*
X34807920Y-28684341D01*
X34807920Y-28684341D02*
X34807920Y-28646246D01*
X34807920Y-28646246D02*
X34817444Y-28598627D01*
X34817444Y-28598627D02*
X34826968Y-28570055D01*
X34826968Y-28570055D02*
X34836491Y-28551008D01*
X34836491Y-28551008D02*
X34855539Y-28522436D01*
X34855539Y-28522436D02*
X34865063Y-28512912D01*
X35046015Y-28741484D02*
X34931730Y-28741484D01*
X34988872Y-28741484D02*
X34988872Y-28541484D01*
X34988872Y-28541484D02*
X34969825Y-28570055D01*
X34969825Y-28570055D02*
X34950777Y-28589103D01*
X34950777Y-28589103D02*
X34931730Y-28598627D01*
X35217444Y-28541484D02*
X35179349Y-28541484D01*
X35179349Y-28541484D02*
X35160301Y-28551008D01*
X35160301Y-28551008D02*
X35150777Y-28560531D01*
X35150777Y-28560531D02*
X35131730Y-28589103D01*
X35131730Y-28589103D02*
X35122206Y-28627198D01*
X35122206Y-28627198D02*
X35122206Y-28703388D01*
X35122206Y-28703388D02*
X35131730Y-28722436D01*
X35131730Y-28722436D02*
X35141253Y-28731960D01*
X35141253Y-28731960D02*
X35160301Y-28741484D01*
X35160301Y-28741484D02*
X35198396Y-28741484D01*
X35198396Y-28741484D02*
X35217444Y-28731960D01*
X35217444Y-28731960D02*
X35226968Y-28722436D01*
X35226968Y-28722436D02*
X35236491Y-28703388D01*
X35236491Y-28703388D02*
X35236491Y-28655769D01*
X35236491Y-28655769D02*
X35226968Y-28636722D01*
X35226968Y-28636722D02*
X35217444Y-28627198D01*
X35217444Y-28627198D02*
X35198396Y-28617674D01*
X35198396Y-28617674D02*
X35160301Y-28617674D01*
X35160301Y-28617674D02*
X35141253Y-28627198D01*
X35141253Y-28627198D02*
X35131730Y-28636722D01*
X35131730Y-28636722D02*
X35122206Y-28655769D01*
X35417444Y-28541484D02*
X35322206Y-28541484D01*
X35322206Y-28541484D02*
X35312682Y-28636722D01*
X35312682Y-28636722D02*
X35322206Y-28627198D01*
X35322206Y-28627198D02*
X35341253Y-28617674D01*
X35341253Y-28617674D02*
X35388872Y-28617674D01*
X35388872Y-28617674D02*
X35407920Y-28627198D01*
X35407920Y-28627198D02*
X35417444Y-28636722D01*
X35417444Y-28636722D02*
X35426968Y-28655769D01*
X35426968Y-28655769D02*
X35426968Y-28703388D01*
X35426968Y-28703388D02*
X35417444Y-28722436D01*
X35417444Y-28722436D02*
X35407920Y-28731960D01*
X35407920Y-28731960D02*
X35388872Y-28741484D01*
X35388872Y-28741484D02*
X35341253Y-28741484D01*
X35341253Y-28741484D02*
X35322206Y-28731960D01*
X35322206Y-28731960D02*
X35312682Y-28722436D01*
X35665063Y-28741484D02*
X35665063Y-28541484D01*
X35750777Y-28741484D02*
X35750777Y-28636722D01*
X35750777Y-28636722D02*
X35741253Y-28617674D01*
X35741253Y-28617674D02*
X35722206Y-28608150D01*
X35722206Y-28608150D02*
X35693634Y-28608150D01*
X35693634Y-28608150D02*
X35674587Y-28617674D01*
X35674587Y-28617674D02*
X35665063Y-28627198D01*
X35874587Y-28741484D02*
X35855539Y-28731960D01*
X35855539Y-28731960D02*
X35846015Y-28722436D01*
X35846015Y-28722436D02*
X35836492Y-28703388D01*
X35836492Y-28703388D02*
X35836492Y-28646246D01*
X35836492Y-28646246D02*
X35846015Y-28627198D01*
X35846015Y-28627198D02*
X35855539Y-28617674D01*
X35855539Y-28617674D02*
X35874587Y-28608150D01*
X35874587Y-28608150D02*
X35903158Y-28608150D01*
X35903158Y-28608150D02*
X35922206Y-28617674D01*
X35922206Y-28617674D02*
X35931730Y-28627198D01*
X35931730Y-28627198D02*
X35941253Y-28646246D01*
X35941253Y-28646246D02*
X35941253Y-28703388D01*
X35941253Y-28703388D02*
X35931730Y-28722436D01*
X35931730Y-28722436D02*
X35922206Y-28731960D01*
X35922206Y-28731960D02*
X35903158Y-28741484D01*
X35903158Y-28741484D02*
X35874587Y-28741484D01*
X36055539Y-28741484D02*
X36036492Y-28731960D01*
X36036492Y-28731960D02*
X36026968Y-28712912D01*
X36026968Y-28712912D02*
X36026968Y-28541484D01*
X36207920Y-28731960D02*
X36188873Y-28741484D01*
X36188873Y-28741484D02*
X36150777Y-28741484D01*
X36150777Y-28741484D02*
X36131730Y-28731960D01*
X36131730Y-28731960D02*
X36122206Y-28712912D01*
X36122206Y-28712912D02*
X36122206Y-28636722D01*
X36122206Y-28636722D02*
X36131730Y-28617674D01*
X36131730Y-28617674D02*
X36150777Y-28608150D01*
X36150777Y-28608150D02*
X36188873Y-28608150D01*
X36188873Y-28608150D02*
X36207920Y-28617674D01*
X36207920Y-28617674D02*
X36217444Y-28636722D01*
X36217444Y-28636722D02*
X36217444Y-28655769D01*
X36217444Y-28655769D02*
X36122206Y-28674817D01*
X36293634Y-28731960D02*
X36312682Y-28741484D01*
X36312682Y-28741484D02*
X36350777Y-28741484D01*
X36350777Y-28741484D02*
X36369825Y-28731960D01*
X36369825Y-28731960D02*
X36379349Y-28712912D01*
X36379349Y-28712912D02*
X36379349Y-28703388D01*
X36379349Y-28703388D02*
X36369825Y-28684341D01*
X36369825Y-28684341D02*
X36350777Y-28674817D01*
X36350777Y-28674817D02*
X36322206Y-28674817D01*
X36322206Y-28674817D02*
X36303158Y-28665293D01*
X36303158Y-28665293D02*
X36293634Y-28646246D01*
X36293634Y-28646246D02*
X36293634Y-28636722D01*
X36293634Y-28636722D02*
X36303158Y-28617674D01*
X36303158Y-28617674D02*
X36322206Y-28608150D01*
X36322206Y-28608150D02*
X36350777Y-28608150D01*
X36350777Y-28608150D02*
X36369825Y-28617674D01*
X36446015Y-28817674D02*
X36455539Y-28808150D01*
X36455539Y-28808150D02*
X36474587Y-28779579D01*
X36474587Y-28779579D02*
X36484111Y-28760531D01*
X36484111Y-28760531D02*
X36493634Y-28731960D01*
X36493634Y-28731960D02*
X36503158Y-28684341D01*
X36503158Y-28684341D02*
X36503158Y-28646246D01*
X36503158Y-28646246D02*
X36493634Y-28598627D01*
X36493634Y-28598627D02*
X36484111Y-28570055D01*
X36484111Y-28570055D02*
X36474587Y-28551008D01*
X36474587Y-28551008D02*
X36455539Y-28522436D01*
X36455539Y-28522436D02*
X36446015Y-28512912D01*
D11*
X31290000Y-28914000D02*
G75*
G02*
X31230000Y-28914000I-30000J0D01*
G01*
X31230000Y-28914000D02*
G75*
G02*
X31290000Y-28914000I30000J0D01*
G01*
D10*
X31588872Y-28805484D02*
X31607920Y-28805484D01*
X31607920Y-28805484D02*
X31626967Y-28815008D01*
X31626967Y-28815008D02*
X31636491Y-28824531D01*
X31636491Y-28824531D02*
X31646015Y-28843579D01*
X31646015Y-28843579D02*
X31655539Y-28881674D01*
X31655539Y-28881674D02*
X31655539Y-28929293D01*
X31655539Y-28929293D02*
X31646015Y-28967388D01*
X31646015Y-28967388D02*
X31636491Y-28986436D01*
X31636491Y-28986436D02*
X31626967Y-28995960D01*
X31626967Y-28995960D02*
X31607920Y-29005484D01*
X31607920Y-29005484D02*
X31588872Y-29005484D01*
X31588872Y-29005484D02*
X31569824Y-28995960D01*
X31569824Y-28995960D02*
X31560301Y-28986436D01*
X31560301Y-28986436D02*
X31550777Y-28967388D01*
X31550777Y-28967388D02*
X31541253Y-28929293D01*
X31541253Y-28929293D02*
X31541253Y-28881674D01*
X31541253Y-28881674D02*
X31550777Y-28843579D01*
X31550777Y-28843579D02*
X31560301Y-28824531D01*
X31560301Y-28824531D02*
X31569824Y-28815008D01*
X31569824Y-28815008D02*
X31588872Y-28805484D01*
X31741253Y-28986436D02*
X31750777Y-28995960D01*
X31750777Y-28995960D02*
X31741253Y-29005484D01*
X31741253Y-29005484D02*
X31731729Y-28995960D01*
X31731729Y-28995960D02*
X31741253Y-28986436D01*
X31741253Y-28986436D02*
X31741253Y-29005484D01*
X31922205Y-28805484D02*
X31884110Y-28805484D01*
X31884110Y-28805484D02*
X31865062Y-28815008D01*
X31865062Y-28815008D02*
X31855539Y-28824531D01*
X31855539Y-28824531D02*
X31836491Y-28853103D01*
X31836491Y-28853103D02*
X31826967Y-28891198D01*
X31826967Y-28891198D02*
X31826967Y-28967388D01*
X31826967Y-28967388D02*
X31836491Y-28986436D01*
X31836491Y-28986436D02*
X31846015Y-28995960D01*
X31846015Y-28995960D02*
X31865062Y-29005484D01*
X31865062Y-29005484D02*
X31903158Y-29005484D01*
X31903158Y-29005484D02*
X31922205Y-28995960D01*
X31922205Y-28995960D02*
X31931729Y-28986436D01*
X31931729Y-28986436D02*
X31941253Y-28967388D01*
X31941253Y-28967388D02*
X31941253Y-28919769D01*
X31941253Y-28919769D02*
X31931729Y-28900722D01*
X31931729Y-28900722D02*
X31922205Y-28891198D01*
X31922205Y-28891198D02*
X31903158Y-28881674D01*
X31903158Y-28881674D02*
X31865062Y-28881674D01*
X31865062Y-28881674D02*
X31846015Y-28891198D01*
X31846015Y-28891198D02*
X31836491Y-28900722D01*
X31836491Y-28900722D02*
X31826967Y-28919769D01*
X32065062Y-28805484D02*
X32084110Y-28805484D01*
X32084110Y-28805484D02*
X32103158Y-28815008D01*
X32103158Y-28815008D02*
X32112682Y-28824531D01*
X32112682Y-28824531D02*
X32122205Y-28843579D01*
X32122205Y-28843579D02*
X32131729Y-28881674D01*
X32131729Y-28881674D02*
X32131729Y-28929293D01*
X32131729Y-28929293D02*
X32122205Y-28967388D01*
X32122205Y-28967388D02*
X32112682Y-28986436D01*
X32112682Y-28986436D02*
X32103158Y-28995960D01*
X32103158Y-28995960D02*
X32084110Y-29005484D01*
X32084110Y-29005484D02*
X32065062Y-29005484D01*
X32065062Y-29005484D02*
X32046015Y-28995960D01*
X32046015Y-28995960D02*
X32036491Y-28986436D01*
X32036491Y-28986436D02*
X32026967Y-28967388D01*
X32026967Y-28967388D02*
X32017443Y-28929293D01*
X32017443Y-28929293D02*
X32017443Y-28881674D01*
X32017443Y-28881674D02*
X32026967Y-28843579D01*
X32026967Y-28843579D02*
X32036491Y-28824531D01*
X32036491Y-28824531D02*
X32046015Y-28815008D01*
X32046015Y-28815008D02*
X32065062Y-28805484D01*
X32255539Y-28805484D02*
X32274586Y-28805484D01*
X32274586Y-28805484D02*
X32293634Y-28815008D01*
X32293634Y-28815008D02*
X32303158Y-28824531D01*
X32303158Y-28824531D02*
X32312682Y-28843579D01*
X32312682Y-28843579D02*
X32322205Y-28881674D01*
X32322205Y-28881674D02*
X32322205Y-28929293D01*
X32322205Y-28929293D02*
X32312682Y-28967388D01*
X32312682Y-28967388D02*
X32303158Y-28986436D01*
X32303158Y-28986436D02*
X32293634Y-28995960D01*
X32293634Y-28995960D02*
X32274586Y-29005484D01*
X32274586Y-29005484D02*
X32255539Y-29005484D01*
X32255539Y-29005484D02*
X32236491Y-28995960D01*
X32236491Y-28995960D02*
X32226967Y-28986436D01*
X32226967Y-28986436D02*
X32217443Y-28967388D01*
X32217443Y-28967388D02*
X32207920Y-28929293D01*
X32207920Y-28929293D02*
X32207920Y-28881674D01*
X32207920Y-28881674D02*
X32217443Y-28843579D01*
X32217443Y-28843579D02*
X32226967Y-28824531D01*
X32226967Y-28824531D02*
X32236491Y-28815008D01*
X32236491Y-28815008D02*
X32255539Y-28805484D01*
X32407920Y-29005484D02*
X32407920Y-28872150D01*
X32407920Y-28891198D02*
X32417443Y-28881674D01*
X32417443Y-28881674D02*
X32436491Y-28872150D01*
X32436491Y-28872150D02*
X32465063Y-28872150D01*
X32465063Y-28872150D02*
X32484110Y-28881674D01*
X32484110Y-28881674D02*
X32493634Y-28900722D01*
X32493634Y-28900722D02*
X32493634Y-29005484D01*
X32493634Y-28900722D02*
X32503158Y-28881674D01*
X32503158Y-28881674D02*
X32522205Y-28872150D01*
X32522205Y-28872150D02*
X32550777Y-28872150D01*
X32550777Y-28872150D02*
X32569824Y-28881674D01*
X32569824Y-28881674D02*
X32579348Y-28900722D01*
X32579348Y-28900722D02*
X32579348Y-29005484D01*
X32674586Y-29005484D02*
X32674586Y-28872150D01*
X32674586Y-28891198D02*
X32684110Y-28881674D01*
X32684110Y-28881674D02*
X32703158Y-28872150D01*
X32703158Y-28872150D02*
X32731729Y-28872150D01*
X32731729Y-28872150D02*
X32750777Y-28881674D01*
X32750777Y-28881674D02*
X32760301Y-28900722D01*
X32760301Y-28900722D02*
X32760301Y-29005484D01*
X32760301Y-28900722D02*
X32769824Y-28881674D01*
X32769824Y-28881674D02*
X32788872Y-28872150D01*
X32788872Y-28872150D02*
X32817443Y-28872150D01*
X32817443Y-28872150D02*
X32836491Y-28881674D01*
X32836491Y-28881674D02*
X32846015Y-28900722D01*
X32846015Y-28900722D02*
X32846015Y-29005484D01*
X33236491Y-28795960D02*
X33065063Y-29053103D01*
X33493634Y-28805484D02*
X33512682Y-28805484D01*
X33512682Y-28805484D02*
X33531729Y-28815008D01*
X33531729Y-28815008D02*
X33541253Y-28824531D01*
X33541253Y-28824531D02*
X33550777Y-28843579D01*
X33550777Y-28843579D02*
X33560301Y-28881674D01*
X33560301Y-28881674D02*
X33560301Y-28929293D01*
X33560301Y-28929293D02*
X33550777Y-28967388D01*
X33550777Y-28967388D02*
X33541253Y-28986436D01*
X33541253Y-28986436D02*
X33531729Y-28995960D01*
X33531729Y-28995960D02*
X33512682Y-29005484D01*
X33512682Y-29005484D02*
X33493634Y-29005484D01*
X33493634Y-29005484D02*
X33474586Y-28995960D01*
X33474586Y-28995960D02*
X33465063Y-28986436D01*
X33465063Y-28986436D02*
X33455539Y-28967388D01*
X33455539Y-28967388D02*
X33446015Y-28929293D01*
X33446015Y-28929293D02*
X33446015Y-28881674D01*
X33446015Y-28881674D02*
X33455539Y-28843579D01*
X33455539Y-28843579D02*
X33465063Y-28824531D01*
X33465063Y-28824531D02*
X33474586Y-28815008D01*
X33474586Y-28815008D02*
X33493634Y-28805484D01*
X33646015Y-28986436D02*
X33655539Y-28995960D01*
X33655539Y-28995960D02*
X33646015Y-29005484D01*
X33646015Y-29005484D02*
X33636491Y-28995960D01*
X33636491Y-28995960D02*
X33646015Y-28986436D01*
X33646015Y-28986436D02*
X33646015Y-29005484D01*
X33779348Y-28805484D02*
X33798396Y-28805484D01*
X33798396Y-28805484D02*
X33817444Y-28815008D01*
X33817444Y-28815008D02*
X33826968Y-28824531D01*
X33826968Y-28824531D02*
X33836491Y-28843579D01*
X33836491Y-28843579D02*
X33846015Y-28881674D01*
X33846015Y-28881674D02*
X33846015Y-28929293D01*
X33846015Y-28929293D02*
X33836491Y-28967388D01*
X33836491Y-28967388D02*
X33826968Y-28986436D01*
X33826968Y-28986436D02*
X33817444Y-28995960D01*
X33817444Y-28995960D02*
X33798396Y-29005484D01*
X33798396Y-29005484D02*
X33779348Y-29005484D01*
X33779348Y-29005484D02*
X33760301Y-28995960D01*
X33760301Y-28995960D02*
X33750777Y-28986436D01*
X33750777Y-28986436D02*
X33741253Y-28967388D01*
X33741253Y-28967388D02*
X33731729Y-28929293D01*
X33731729Y-28929293D02*
X33731729Y-28881674D01*
X33731729Y-28881674D02*
X33741253Y-28843579D01*
X33741253Y-28843579D02*
X33750777Y-28824531D01*
X33750777Y-28824531D02*
X33760301Y-28815008D01*
X33760301Y-28815008D02*
X33779348Y-28805484D01*
X33922206Y-28824531D02*
X33931729Y-28815008D01*
X33931729Y-28815008D02*
X33950777Y-28805484D01*
X33950777Y-28805484D02*
X33998396Y-28805484D01*
X33998396Y-28805484D02*
X34017444Y-28815008D01*
X34017444Y-28815008D02*
X34026968Y-28824531D01*
X34026968Y-28824531D02*
X34036491Y-28843579D01*
X34036491Y-28843579D02*
X34036491Y-28862627D01*
X34036491Y-28862627D02*
X34026968Y-28891198D01*
X34026968Y-28891198D02*
X33912682Y-29005484D01*
X33912682Y-29005484D02*
X34036491Y-29005484D01*
X34103158Y-28805484D02*
X34226968Y-28805484D01*
X34226968Y-28805484D02*
X34160301Y-28881674D01*
X34160301Y-28881674D02*
X34188872Y-28881674D01*
X34188872Y-28881674D02*
X34207920Y-28891198D01*
X34207920Y-28891198D02*
X34217444Y-28900722D01*
X34217444Y-28900722D02*
X34226968Y-28919769D01*
X34226968Y-28919769D02*
X34226968Y-28967388D01*
X34226968Y-28967388D02*
X34217444Y-28986436D01*
X34217444Y-28986436D02*
X34207920Y-28995960D01*
X34207920Y-28995960D02*
X34188872Y-29005484D01*
X34188872Y-29005484D02*
X34131729Y-29005484D01*
X34131729Y-29005484D02*
X34112682Y-28995960D01*
X34112682Y-28995960D02*
X34103158Y-28986436D01*
X34398396Y-28805484D02*
X34360301Y-28805484D01*
X34360301Y-28805484D02*
X34341253Y-28815008D01*
X34341253Y-28815008D02*
X34331729Y-28824531D01*
X34331729Y-28824531D02*
X34312682Y-28853103D01*
X34312682Y-28853103D02*
X34303158Y-28891198D01*
X34303158Y-28891198D02*
X34303158Y-28967388D01*
X34303158Y-28967388D02*
X34312682Y-28986436D01*
X34312682Y-28986436D02*
X34322206Y-28995960D01*
X34322206Y-28995960D02*
X34341253Y-29005484D01*
X34341253Y-29005484D02*
X34379349Y-29005484D01*
X34379349Y-29005484D02*
X34398396Y-28995960D01*
X34398396Y-28995960D02*
X34407920Y-28986436D01*
X34407920Y-28986436D02*
X34417444Y-28967388D01*
X34417444Y-28967388D02*
X34417444Y-28919769D01*
X34417444Y-28919769D02*
X34407920Y-28900722D01*
X34407920Y-28900722D02*
X34398396Y-28891198D01*
X34398396Y-28891198D02*
X34379349Y-28881674D01*
X34379349Y-28881674D02*
X34341253Y-28881674D01*
X34341253Y-28881674D02*
X34322206Y-28891198D01*
X34322206Y-28891198D02*
X34312682Y-28900722D01*
X34312682Y-28900722D02*
X34303158Y-28919769D01*
X34493634Y-28805484D02*
X34493634Y-28843579D01*
X34569825Y-28805484D02*
X34569825Y-28843579D01*
X34865063Y-29081674D02*
X34855539Y-29072150D01*
X34855539Y-29072150D02*
X34836491Y-29043579D01*
X34836491Y-29043579D02*
X34826968Y-29024531D01*
X34826968Y-29024531D02*
X34817444Y-28995960D01*
X34817444Y-28995960D02*
X34807920Y-28948341D01*
X34807920Y-28948341D02*
X34807920Y-28910246D01*
X34807920Y-28910246D02*
X34817444Y-28862627D01*
X34817444Y-28862627D02*
X34826968Y-28834055D01*
X34826968Y-28834055D02*
X34836491Y-28815008D01*
X34836491Y-28815008D02*
X34855539Y-28786436D01*
X34855539Y-28786436D02*
X34865063Y-28776912D01*
X35046015Y-29005484D02*
X34931730Y-29005484D01*
X34988872Y-29005484D02*
X34988872Y-28805484D01*
X34988872Y-28805484D02*
X34969825Y-28834055D01*
X34969825Y-28834055D02*
X34950777Y-28853103D01*
X34950777Y-28853103D02*
X34931730Y-28862627D01*
X35112682Y-28805484D02*
X35236491Y-28805484D01*
X35236491Y-28805484D02*
X35169825Y-28881674D01*
X35169825Y-28881674D02*
X35198396Y-28881674D01*
X35198396Y-28881674D02*
X35217444Y-28891198D01*
X35217444Y-28891198D02*
X35226968Y-28900722D01*
X35226968Y-28900722D02*
X35236491Y-28919769D01*
X35236491Y-28919769D02*
X35236491Y-28967388D01*
X35236491Y-28967388D02*
X35226968Y-28986436D01*
X35226968Y-28986436D02*
X35217444Y-28995960D01*
X35217444Y-28995960D02*
X35198396Y-29005484D01*
X35198396Y-29005484D02*
X35141253Y-29005484D01*
X35141253Y-29005484D02*
X35122206Y-28995960D01*
X35122206Y-28995960D02*
X35112682Y-28986436D01*
X35331730Y-29005484D02*
X35369825Y-29005484D01*
X35369825Y-29005484D02*
X35388872Y-28995960D01*
X35388872Y-28995960D02*
X35398396Y-28986436D01*
X35398396Y-28986436D02*
X35417444Y-28957865D01*
X35417444Y-28957865D02*
X35426968Y-28919769D01*
X35426968Y-28919769D02*
X35426968Y-28843579D01*
X35426968Y-28843579D02*
X35417444Y-28824531D01*
X35417444Y-28824531D02*
X35407920Y-28815008D01*
X35407920Y-28815008D02*
X35388872Y-28805484D01*
X35388872Y-28805484D02*
X35350777Y-28805484D01*
X35350777Y-28805484D02*
X35331730Y-28815008D01*
X35331730Y-28815008D02*
X35322206Y-28824531D01*
X35322206Y-28824531D02*
X35312682Y-28843579D01*
X35312682Y-28843579D02*
X35312682Y-28891198D01*
X35312682Y-28891198D02*
X35322206Y-28910246D01*
X35322206Y-28910246D02*
X35331730Y-28919769D01*
X35331730Y-28919769D02*
X35350777Y-28929293D01*
X35350777Y-28929293D02*
X35388872Y-28929293D01*
X35388872Y-28929293D02*
X35407920Y-28919769D01*
X35407920Y-28919769D02*
X35417444Y-28910246D01*
X35417444Y-28910246D02*
X35426968Y-28891198D01*
X35665063Y-29005484D02*
X35665063Y-28805484D01*
X35750777Y-29005484D02*
X35750777Y-28900722D01*
X35750777Y-28900722D02*
X35741253Y-28881674D01*
X35741253Y-28881674D02*
X35722206Y-28872150D01*
X35722206Y-28872150D02*
X35693634Y-28872150D01*
X35693634Y-28872150D02*
X35674587Y-28881674D01*
X35674587Y-28881674D02*
X35665063Y-28891198D01*
X35874587Y-29005484D02*
X35855539Y-28995960D01*
X35855539Y-28995960D02*
X35846015Y-28986436D01*
X35846015Y-28986436D02*
X35836492Y-28967388D01*
X35836492Y-28967388D02*
X35836492Y-28910246D01*
X35836492Y-28910246D02*
X35846015Y-28891198D01*
X35846015Y-28891198D02*
X35855539Y-28881674D01*
X35855539Y-28881674D02*
X35874587Y-28872150D01*
X35874587Y-28872150D02*
X35903158Y-28872150D01*
X35903158Y-28872150D02*
X35922206Y-28881674D01*
X35922206Y-28881674D02*
X35931730Y-28891198D01*
X35931730Y-28891198D02*
X35941253Y-28910246D01*
X35941253Y-28910246D02*
X35941253Y-28967388D01*
X35941253Y-28967388D02*
X35931730Y-28986436D01*
X35931730Y-28986436D02*
X35922206Y-28995960D01*
X35922206Y-28995960D02*
X35903158Y-29005484D01*
X35903158Y-29005484D02*
X35874587Y-29005484D01*
X36055539Y-29005484D02*
X36036492Y-28995960D01*
X36036492Y-28995960D02*
X36026968Y-28976912D01*
X36026968Y-28976912D02*
X36026968Y-28805484D01*
X36207920Y-28995960D02*
X36188873Y-29005484D01*
X36188873Y-29005484D02*
X36150777Y-29005484D01*
X36150777Y-29005484D02*
X36131730Y-28995960D01*
X36131730Y-28995960D02*
X36122206Y-28976912D01*
X36122206Y-28976912D02*
X36122206Y-28900722D01*
X36122206Y-28900722D02*
X36131730Y-28881674D01*
X36131730Y-28881674D02*
X36150777Y-28872150D01*
X36150777Y-28872150D02*
X36188873Y-28872150D01*
X36188873Y-28872150D02*
X36207920Y-28881674D01*
X36207920Y-28881674D02*
X36217444Y-28900722D01*
X36217444Y-28900722D02*
X36217444Y-28919769D01*
X36217444Y-28919769D02*
X36122206Y-28938817D01*
X36293634Y-28995960D02*
X36312682Y-29005484D01*
X36312682Y-29005484D02*
X36350777Y-29005484D01*
X36350777Y-29005484D02*
X36369825Y-28995960D01*
X36369825Y-28995960D02*
X36379349Y-28976912D01*
X36379349Y-28976912D02*
X36379349Y-28967388D01*
X36379349Y-28967388D02*
X36369825Y-28948341D01*
X36369825Y-28948341D02*
X36350777Y-28938817D01*
X36350777Y-28938817D02*
X36322206Y-28938817D01*
X36322206Y-28938817D02*
X36303158Y-28929293D01*
X36303158Y-28929293D02*
X36293634Y-28910246D01*
X36293634Y-28910246D02*
X36293634Y-28900722D01*
X36293634Y-28900722D02*
X36303158Y-28881674D01*
X36303158Y-28881674D02*
X36322206Y-28872150D01*
X36322206Y-28872150D02*
X36350777Y-28872150D01*
X36350777Y-28872150D02*
X36369825Y-28881674D01*
X36446015Y-29081674D02*
X36455539Y-29072150D01*
X36455539Y-29072150D02*
X36474587Y-29043579D01*
X36474587Y-29043579D02*
X36484111Y-29024531D01*
X36484111Y-29024531D02*
X36493634Y-28995960D01*
X36493634Y-28995960D02*
X36503158Y-28948341D01*
X36503158Y-28948341D02*
X36503158Y-28910246D01*
X36503158Y-28910246D02*
X36493634Y-28862627D01*
X36493634Y-28862627D02*
X36484111Y-28834055D01*
X36484111Y-28834055D02*
X36474587Y-28815008D01*
X36474587Y-28815008D02*
X36455539Y-28786436D01*
X36455539Y-28786436D02*
X36446015Y-28776912D01*
D11*
X31250000Y-29138000D02*
X31250000Y-29218000D01*
X31210000Y-29178000D02*
X31290000Y-29178000D01*
D10*
X31588872Y-29069484D02*
X31607920Y-29069484D01*
X31607920Y-29069484D02*
X31626967Y-29079008D01*
X31626967Y-29079008D02*
X31636491Y-29088531D01*
X31636491Y-29088531D02*
X31646015Y-29107579D01*
X31646015Y-29107579D02*
X31655539Y-29145674D01*
X31655539Y-29145674D02*
X31655539Y-29193293D01*
X31655539Y-29193293D02*
X31646015Y-29231388D01*
X31646015Y-29231388D02*
X31636491Y-29250436D01*
X31636491Y-29250436D02*
X31626967Y-29259960D01*
X31626967Y-29259960D02*
X31607920Y-29269484D01*
X31607920Y-29269484D02*
X31588872Y-29269484D01*
X31588872Y-29269484D02*
X31569824Y-29259960D01*
X31569824Y-29259960D02*
X31560301Y-29250436D01*
X31560301Y-29250436D02*
X31550777Y-29231388D01*
X31550777Y-29231388D02*
X31541253Y-29193293D01*
X31541253Y-29193293D02*
X31541253Y-29145674D01*
X31541253Y-29145674D02*
X31550777Y-29107579D01*
X31550777Y-29107579D02*
X31560301Y-29088531D01*
X31560301Y-29088531D02*
X31569824Y-29079008D01*
X31569824Y-29079008D02*
X31588872Y-29069484D01*
X31741253Y-29250436D02*
X31750777Y-29259960D01*
X31750777Y-29259960D02*
X31741253Y-29269484D01*
X31741253Y-29269484D02*
X31731729Y-29259960D01*
X31731729Y-29259960D02*
X31741253Y-29250436D01*
X31741253Y-29250436D02*
X31741253Y-29269484D01*
X31865062Y-29155198D02*
X31846015Y-29145674D01*
X31846015Y-29145674D02*
X31836491Y-29136150D01*
X31836491Y-29136150D02*
X31826967Y-29117103D01*
X31826967Y-29117103D02*
X31826967Y-29107579D01*
X31826967Y-29107579D02*
X31836491Y-29088531D01*
X31836491Y-29088531D02*
X31846015Y-29079008D01*
X31846015Y-29079008D02*
X31865062Y-29069484D01*
X31865062Y-29069484D02*
X31903158Y-29069484D01*
X31903158Y-29069484D02*
X31922205Y-29079008D01*
X31922205Y-29079008D02*
X31931729Y-29088531D01*
X31931729Y-29088531D02*
X31941253Y-29107579D01*
X31941253Y-29107579D02*
X31941253Y-29117103D01*
X31941253Y-29117103D02*
X31931729Y-29136150D01*
X31931729Y-29136150D02*
X31922205Y-29145674D01*
X31922205Y-29145674D02*
X31903158Y-29155198D01*
X31903158Y-29155198D02*
X31865062Y-29155198D01*
X31865062Y-29155198D02*
X31846015Y-29164722D01*
X31846015Y-29164722D02*
X31836491Y-29174246D01*
X31836491Y-29174246D02*
X31826967Y-29193293D01*
X31826967Y-29193293D02*
X31826967Y-29231388D01*
X31826967Y-29231388D02*
X31836491Y-29250436D01*
X31836491Y-29250436D02*
X31846015Y-29259960D01*
X31846015Y-29259960D02*
X31865062Y-29269484D01*
X31865062Y-29269484D02*
X31903158Y-29269484D01*
X31903158Y-29269484D02*
X31922205Y-29259960D01*
X31922205Y-29259960D02*
X31931729Y-29250436D01*
X31931729Y-29250436D02*
X31941253Y-29231388D01*
X31941253Y-29231388D02*
X31941253Y-29193293D01*
X31941253Y-29193293D02*
X31931729Y-29174246D01*
X31931729Y-29174246D02*
X31922205Y-29164722D01*
X31922205Y-29164722D02*
X31903158Y-29155198D01*
X32065062Y-29069484D02*
X32084110Y-29069484D01*
X32084110Y-29069484D02*
X32103158Y-29079008D01*
X32103158Y-29079008D02*
X32112682Y-29088531D01*
X32112682Y-29088531D02*
X32122205Y-29107579D01*
X32122205Y-29107579D02*
X32131729Y-29145674D01*
X32131729Y-29145674D02*
X32131729Y-29193293D01*
X32131729Y-29193293D02*
X32122205Y-29231388D01*
X32122205Y-29231388D02*
X32112682Y-29250436D01*
X32112682Y-29250436D02*
X32103158Y-29259960D01*
X32103158Y-29259960D02*
X32084110Y-29269484D01*
X32084110Y-29269484D02*
X32065062Y-29269484D01*
X32065062Y-29269484D02*
X32046015Y-29259960D01*
X32046015Y-29259960D02*
X32036491Y-29250436D01*
X32036491Y-29250436D02*
X32026967Y-29231388D01*
X32026967Y-29231388D02*
X32017443Y-29193293D01*
X32017443Y-29193293D02*
X32017443Y-29145674D01*
X32017443Y-29145674D02*
X32026967Y-29107579D01*
X32026967Y-29107579D02*
X32036491Y-29088531D01*
X32036491Y-29088531D02*
X32046015Y-29079008D01*
X32046015Y-29079008D02*
X32065062Y-29069484D01*
X32255539Y-29069484D02*
X32274586Y-29069484D01*
X32274586Y-29069484D02*
X32293634Y-29079008D01*
X32293634Y-29079008D02*
X32303158Y-29088531D01*
X32303158Y-29088531D02*
X32312682Y-29107579D01*
X32312682Y-29107579D02*
X32322205Y-29145674D01*
X32322205Y-29145674D02*
X32322205Y-29193293D01*
X32322205Y-29193293D02*
X32312682Y-29231388D01*
X32312682Y-29231388D02*
X32303158Y-29250436D01*
X32303158Y-29250436D02*
X32293634Y-29259960D01*
X32293634Y-29259960D02*
X32274586Y-29269484D01*
X32274586Y-29269484D02*
X32255539Y-29269484D01*
X32255539Y-29269484D02*
X32236491Y-29259960D01*
X32236491Y-29259960D02*
X32226967Y-29250436D01*
X32226967Y-29250436D02*
X32217443Y-29231388D01*
X32217443Y-29231388D02*
X32207920Y-29193293D01*
X32207920Y-29193293D02*
X32207920Y-29145674D01*
X32207920Y-29145674D02*
X32217443Y-29107579D01*
X32217443Y-29107579D02*
X32226967Y-29088531D01*
X32226967Y-29088531D02*
X32236491Y-29079008D01*
X32236491Y-29079008D02*
X32255539Y-29069484D01*
X32407920Y-29269484D02*
X32407920Y-29136150D01*
X32407920Y-29155198D02*
X32417443Y-29145674D01*
X32417443Y-29145674D02*
X32436491Y-29136150D01*
X32436491Y-29136150D02*
X32465063Y-29136150D01*
X32465063Y-29136150D02*
X32484110Y-29145674D01*
X32484110Y-29145674D02*
X32493634Y-29164722D01*
X32493634Y-29164722D02*
X32493634Y-29269484D01*
X32493634Y-29164722D02*
X32503158Y-29145674D01*
X32503158Y-29145674D02*
X32522205Y-29136150D01*
X32522205Y-29136150D02*
X32550777Y-29136150D01*
X32550777Y-29136150D02*
X32569824Y-29145674D01*
X32569824Y-29145674D02*
X32579348Y-29164722D01*
X32579348Y-29164722D02*
X32579348Y-29269484D01*
X32674586Y-29269484D02*
X32674586Y-29136150D01*
X32674586Y-29155198D02*
X32684110Y-29145674D01*
X32684110Y-29145674D02*
X32703158Y-29136150D01*
X32703158Y-29136150D02*
X32731729Y-29136150D01*
X32731729Y-29136150D02*
X32750777Y-29145674D01*
X32750777Y-29145674D02*
X32760301Y-29164722D01*
X32760301Y-29164722D02*
X32760301Y-29269484D01*
X32760301Y-29164722D02*
X32769824Y-29145674D01*
X32769824Y-29145674D02*
X32788872Y-29136150D01*
X32788872Y-29136150D02*
X32817443Y-29136150D01*
X32817443Y-29136150D02*
X32836491Y-29145674D01*
X32836491Y-29145674D02*
X32846015Y-29164722D01*
X32846015Y-29164722D02*
X32846015Y-29269484D01*
X33236491Y-29059960D02*
X33065063Y-29317103D01*
X33493634Y-29069484D02*
X33512682Y-29069484D01*
X33512682Y-29069484D02*
X33531729Y-29079008D01*
X33531729Y-29079008D02*
X33541253Y-29088531D01*
X33541253Y-29088531D02*
X33550777Y-29107579D01*
X33550777Y-29107579D02*
X33560301Y-29145674D01*
X33560301Y-29145674D02*
X33560301Y-29193293D01*
X33560301Y-29193293D02*
X33550777Y-29231388D01*
X33550777Y-29231388D02*
X33541253Y-29250436D01*
X33541253Y-29250436D02*
X33531729Y-29259960D01*
X33531729Y-29259960D02*
X33512682Y-29269484D01*
X33512682Y-29269484D02*
X33493634Y-29269484D01*
X33493634Y-29269484D02*
X33474586Y-29259960D01*
X33474586Y-29259960D02*
X33465063Y-29250436D01*
X33465063Y-29250436D02*
X33455539Y-29231388D01*
X33455539Y-29231388D02*
X33446015Y-29193293D01*
X33446015Y-29193293D02*
X33446015Y-29145674D01*
X33446015Y-29145674D02*
X33455539Y-29107579D01*
X33455539Y-29107579D02*
X33465063Y-29088531D01*
X33465063Y-29088531D02*
X33474586Y-29079008D01*
X33474586Y-29079008D02*
X33493634Y-29069484D01*
X33646015Y-29250436D02*
X33655539Y-29259960D01*
X33655539Y-29259960D02*
X33646015Y-29269484D01*
X33646015Y-29269484D02*
X33636491Y-29259960D01*
X33636491Y-29259960D02*
X33646015Y-29250436D01*
X33646015Y-29250436D02*
X33646015Y-29269484D01*
X33779348Y-29069484D02*
X33798396Y-29069484D01*
X33798396Y-29069484D02*
X33817444Y-29079008D01*
X33817444Y-29079008D02*
X33826968Y-29088531D01*
X33826968Y-29088531D02*
X33836491Y-29107579D01*
X33836491Y-29107579D02*
X33846015Y-29145674D01*
X33846015Y-29145674D02*
X33846015Y-29193293D01*
X33846015Y-29193293D02*
X33836491Y-29231388D01*
X33836491Y-29231388D02*
X33826968Y-29250436D01*
X33826968Y-29250436D02*
X33817444Y-29259960D01*
X33817444Y-29259960D02*
X33798396Y-29269484D01*
X33798396Y-29269484D02*
X33779348Y-29269484D01*
X33779348Y-29269484D02*
X33760301Y-29259960D01*
X33760301Y-29259960D02*
X33750777Y-29250436D01*
X33750777Y-29250436D02*
X33741253Y-29231388D01*
X33741253Y-29231388D02*
X33731729Y-29193293D01*
X33731729Y-29193293D02*
X33731729Y-29145674D01*
X33731729Y-29145674D02*
X33741253Y-29107579D01*
X33741253Y-29107579D02*
X33750777Y-29088531D01*
X33750777Y-29088531D02*
X33760301Y-29079008D01*
X33760301Y-29079008D02*
X33779348Y-29069484D01*
X33912682Y-29069484D02*
X34036491Y-29069484D01*
X34036491Y-29069484D02*
X33969825Y-29145674D01*
X33969825Y-29145674D02*
X33998396Y-29145674D01*
X33998396Y-29145674D02*
X34017444Y-29155198D01*
X34017444Y-29155198D02*
X34026968Y-29164722D01*
X34026968Y-29164722D02*
X34036491Y-29183769D01*
X34036491Y-29183769D02*
X34036491Y-29231388D01*
X34036491Y-29231388D02*
X34026968Y-29250436D01*
X34026968Y-29250436D02*
X34017444Y-29259960D01*
X34017444Y-29259960D02*
X33998396Y-29269484D01*
X33998396Y-29269484D02*
X33941253Y-29269484D01*
X33941253Y-29269484D02*
X33922206Y-29259960D01*
X33922206Y-29259960D02*
X33912682Y-29250436D01*
X34226968Y-29269484D02*
X34112682Y-29269484D01*
X34169825Y-29269484D02*
X34169825Y-29069484D01*
X34169825Y-29069484D02*
X34150777Y-29098055D01*
X34150777Y-29098055D02*
X34131729Y-29117103D01*
X34131729Y-29117103D02*
X34112682Y-29126627D01*
X34407920Y-29069484D02*
X34312682Y-29069484D01*
X34312682Y-29069484D02*
X34303158Y-29164722D01*
X34303158Y-29164722D02*
X34312682Y-29155198D01*
X34312682Y-29155198D02*
X34331729Y-29145674D01*
X34331729Y-29145674D02*
X34379349Y-29145674D01*
X34379349Y-29145674D02*
X34398396Y-29155198D01*
X34398396Y-29155198D02*
X34407920Y-29164722D01*
X34407920Y-29164722D02*
X34417444Y-29183769D01*
X34417444Y-29183769D02*
X34417444Y-29231388D01*
X34417444Y-29231388D02*
X34407920Y-29250436D01*
X34407920Y-29250436D02*
X34398396Y-29259960D01*
X34398396Y-29259960D02*
X34379349Y-29269484D01*
X34379349Y-29269484D02*
X34331729Y-29269484D01*
X34331729Y-29269484D02*
X34312682Y-29259960D01*
X34312682Y-29259960D02*
X34303158Y-29250436D01*
X34493634Y-29069484D02*
X34493634Y-29107579D01*
X34569825Y-29069484D02*
X34569825Y-29107579D01*
X34865063Y-29345674D02*
X34855539Y-29336150D01*
X34855539Y-29336150D02*
X34836491Y-29307579D01*
X34836491Y-29307579D02*
X34826968Y-29288531D01*
X34826968Y-29288531D02*
X34817444Y-29259960D01*
X34817444Y-29259960D02*
X34807920Y-29212341D01*
X34807920Y-29212341D02*
X34807920Y-29174246D01*
X34807920Y-29174246D02*
X34817444Y-29126627D01*
X34817444Y-29126627D02*
X34826968Y-29098055D01*
X34826968Y-29098055D02*
X34836491Y-29079008D01*
X34836491Y-29079008D02*
X34855539Y-29050436D01*
X34855539Y-29050436D02*
X34865063Y-29040912D01*
X35046015Y-29269484D02*
X34931730Y-29269484D01*
X34988872Y-29269484D02*
X34988872Y-29069484D01*
X34988872Y-29069484D02*
X34969825Y-29098055D01*
X34969825Y-29098055D02*
X34950777Y-29117103D01*
X34950777Y-29117103D02*
X34931730Y-29126627D01*
X35217444Y-29069484D02*
X35179349Y-29069484D01*
X35179349Y-29069484D02*
X35160301Y-29079008D01*
X35160301Y-29079008D02*
X35150777Y-29088531D01*
X35150777Y-29088531D02*
X35131730Y-29117103D01*
X35131730Y-29117103D02*
X35122206Y-29155198D01*
X35122206Y-29155198D02*
X35122206Y-29231388D01*
X35122206Y-29231388D02*
X35131730Y-29250436D01*
X35131730Y-29250436D02*
X35141253Y-29259960D01*
X35141253Y-29259960D02*
X35160301Y-29269484D01*
X35160301Y-29269484D02*
X35198396Y-29269484D01*
X35198396Y-29269484D02*
X35217444Y-29259960D01*
X35217444Y-29259960D02*
X35226968Y-29250436D01*
X35226968Y-29250436D02*
X35236491Y-29231388D01*
X35236491Y-29231388D02*
X35236491Y-29183769D01*
X35236491Y-29183769D02*
X35226968Y-29164722D01*
X35226968Y-29164722D02*
X35217444Y-29155198D01*
X35217444Y-29155198D02*
X35198396Y-29145674D01*
X35198396Y-29145674D02*
X35160301Y-29145674D01*
X35160301Y-29145674D02*
X35141253Y-29155198D01*
X35141253Y-29155198D02*
X35131730Y-29164722D01*
X35131730Y-29164722D02*
X35122206Y-29183769D01*
X35474587Y-29269484D02*
X35474587Y-29069484D01*
X35560301Y-29269484D02*
X35560301Y-29164722D01*
X35560301Y-29164722D02*
X35550777Y-29145674D01*
X35550777Y-29145674D02*
X35531730Y-29136150D01*
X35531730Y-29136150D02*
X35503158Y-29136150D01*
X35503158Y-29136150D02*
X35484111Y-29145674D01*
X35484111Y-29145674D02*
X35474587Y-29155198D01*
X35684111Y-29269484D02*
X35665063Y-29259960D01*
X35665063Y-29259960D02*
X35655539Y-29250436D01*
X35655539Y-29250436D02*
X35646015Y-29231388D01*
X35646015Y-29231388D02*
X35646015Y-29174246D01*
X35646015Y-29174246D02*
X35655539Y-29155198D01*
X35655539Y-29155198D02*
X35665063Y-29145674D01*
X35665063Y-29145674D02*
X35684111Y-29136150D01*
X35684111Y-29136150D02*
X35712682Y-29136150D01*
X35712682Y-29136150D02*
X35731730Y-29145674D01*
X35731730Y-29145674D02*
X35741253Y-29155198D01*
X35741253Y-29155198D02*
X35750777Y-29174246D01*
X35750777Y-29174246D02*
X35750777Y-29231388D01*
X35750777Y-29231388D02*
X35741253Y-29250436D01*
X35741253Y-29250436D02*
X35731730Y-29259960D01*
X35731730Y-29259960D02*
X35712682Y-29269484D01*
X35712682Y-29269484D02*
X35684111Y-29269484D01*
X35865063Y-29269484D02*
X35846015Y-29259960D01*
X35846015Y-29259960D02*
X35836492Y-29240912D01*
X35836492Y-29240912D02*
X35836492Y-29069484D01*
X36017444Y-29259960D02*
X35998396Y-29269484D01*
X35998396Y-29269484D02*
X35960301Y-29269484D01*
X35960301Y-29269484D02*
X35941253Y-29259960D01*
X35941253Y-29259960D02*
X35931730Y-29240912D01*
X35931730Y-29240912D02*
X35931730Y-29164722D01*
X35931730Y-29164722D02*
X35941253Y-29145674D01*
X35941253Y-29145674D02*
X35960301Y-29136150D01*
X35960301Y-29136150D02*
X35998396Y-29136150D01*
X35998396Y-29136150D02*
X36017444Y-29145674D01*
X36017444Y-29145674D02*
X36026968Y-29164722D01*
X36026968Y-29164722D02*
X36026968Y-29183769D01*
X36026968Y-29183769D02*
X35931730Y-29202817D01*
X36103158Y-29259960D02*
X36122206Y-29269484D01*
X36122206Y-29269484D02*
X36160301Y-29269484D01*
X36160301Y-29269484D02*
X36179349Y-29259960D01*
X36179349Y-29259960D02*
X36188873Y-29240912D01*
X36188873Y-29240912D02*
X36188873Y-29231388D01*
X36188873Y-29231388D02*
X36179349Y-29212341D01*
X36179349Y-29212341D02*
X36160301Y-29202817D01*
X36160301Y-29202817D02*
X36131730Y-29202817D01*
X36131730Y-29202817D02*
X36112682Y-29193293D01*
X36112682Y-29193293D02*
X36103158Y-29174246D01*
X36103158Y-29174246D02*
X36103158Y-29164722D01*
X36103158Y-29164722D02*
X36112682Y-29145674D01*
X36112682Y-29145674D02*
X36131730Y-29136150D01*
X36131730Y-29136150D02*
X36160301Y-29136150D01*
X36160301Y-29136150D02*
X36179349Y-29145674D01*
X36255539Y-29345674D02*
X36265063Y-29336150D01*
X36265063Y-29336150D02*
X36284111Y-29307579D01*
X36284111Y-29307579D02*
X36293634Y-29288531D01*
X36293634Y-29288531D02*
X36303158Y-29259960D01*
X36303158Y-29259960D02*
X36312682Y-29212341D01*
X36312682Y-29212341D02*
X36312682Y-29174246D01*
X36312682Y-29174246D02*
X36303158Y-29126627D01*
X36303158Y-29126627D02*
X36293634Y-29098055D01*
X36293634Y-29098055D02*
X36284111Y-29079008D01*
X36284111Y-29079008D02*
X36265063Y-29050436D01*
X36265063Y-29050436D02*
X36255539Y-29040912D01*
D12*
X31263640Y-29505640D02*
X31263640Y-29378360D01*
X31136360Y-29378360D01*
X31136360Y-29505640D01*
X31263640Y-29505640D01*
D10*
X31655539Y-29533484D02*
X31541253Y-29533484D01*
X31598396Y-29533484D02*
X31598396Y-29333484D01*
X31598396Y-29333484D02*
X31579348Y-29362055D01*
X31579348Y-29362055D02*
X31560301Y-29381103D01*
X31560301Y-29381103D02*
X31541253Y-29390627D01*
X31741253Y-29514436D02*
X31750777Y-29523960D01*
X31750777Y-29523960D02*
X31741253Y-29533484D01*
X31741253Y-29533484D02*
X31731729Y-29523960D01*
X31731729Y-29523960D02*
X31741253Y-29514436D01*
X31741253Y-29514436D02*
X31741253Y-29533484D01*
X31865062Y-29419198D02*
X31846015Y-29409674D01*
X31846015Y-29409674D02*
X31836491Y-29400150D01*
X31836491Y-29400150D02*
X31826967Y-29381103D01*
X31826967Y-29381103D02*
X31826967Y-29371579D01*
X31826967Y-29371579D02*
X31836491Y-29352531D01*
X31836491Y-29352531D02*
X31846015Y-29343008D01*
X31846015Y-29343008D02*
X31865062Y-29333484D01*
X31865062Y-29333484D02*
X31903158Y-29333484D01*
X31903158Y-29333484D02*
X31922205Y-29343008D01*
X31922205Y-29343008D02*
X31931729Y-29352531D01*
X31931729Y-29352531D02*
X31941253Y-29371579D01*
X31941253Y-29371579D02*
X31941253Y-29381103D01*
X31941253Y-29381103D02*
X31931729Y-29400150D01*
X31931729Y-29400150D02*
X31922205Y-29409674D01*
X31922205Y-29409674D02*
X31903158Y-29419198D01*
X31903158Y-29419198D02*
X31865062Y-29419198D01*
X31865062Y-29419198D02*
X31846015Y-29428722D01*
X31846015Y-29428722D02*
X31836491Y-29438246D01*
X31836491Y-29438246D02*
X31826967Y-29457293D01*
X31826967Y-29457293D02*
X31826967Y-29495388D01*
X31826967Y-29495388D02*
X31836491Y-29514436D01*
X31836491Y-29514436D02*
X31846015Y-29523960D01*
X31846015Y-29523960D02*
X31865062Y-29533484D01*
X31865062Y-29533484D02*
X31903158Y-29533484D01*
X31903158Y-29533484D02*
X31922205Y-29523960D01*
X31922205Y-29523960D02*
X31931729Y-29514436D01*
X31931729Y-29514436D02*
X31941253Y-29495388D01*
X31941253Y-29495388D02*
X31941253Y-29457293D01*
X31941253Y-29457293D02*
X31931729Y-29438246D01*
X31931729Y-29438246D02*
X31922205Y-29428722D01*
X31922205Y-29428722D02*
X31903158Y-29419198D01*
X32065062Y-29333484D02*
X32084110Y-29333484D01*
X32084110Y-29333484D02*
X32103158Y-29343008D01*
X32103158Y-29343008D02*
X32112682Y-29352531D01*
X32112682Y-29352531D02*
X32122205Y-29371579D01*
X32122205Y-29371579D02*
X32131729Y-29409674D01*
X32131729Y-29409674D02*
X32131729Y-29457293D01*
X32131729Y-29457293D02*
X32122205Y-29495388D01*
X32122205Y-29495388D02*
X32112682Y-29514436D01*
X32112682Y-29514436D02*
X32103158Y-29523960D01*
X32103158Y-29523960D02*
X32084110Y-29533484D01*
X32084110Y-29533484D02*
X32065062Y-29533484D01*
X32065062Y-29533484D02*
X32046015Y-29523960D01*
X32046015Y-29523960D02*
X32036491Y-29514436D01*
X32036491Y-29514436D02*
X32026967Y-29495388D01*
X32026967Y-29495388D02*
X32017443Y-29457293D01*
X32017443Y-29457293D02*
X32017443Y-29409674D01*
X32017443Y-29409674D02*
X32026967Y-29371579D01*
X32026967Y-29371579D02*
X32036491Y-29352531D01*
X32036491Y-29352531D02*
X32046015Y-29343008D01*
X32046015Y-29343008D02*
X32065062Y-29333484D01*
X32255539Y-29333484D02*
X32274586Y-29333484D01*
X32274586Y-29333484D02*
X32293634Y-29343008D01*
X32293634Y-29343008D02*
X32303158Y-29352531D01*
X32303158Y-29352531D02*
X32312682Y-29371579D01*
X32312682Y-29371579D02*
X32322205Y-29409674D01*
X32322205Y-29409674D02*
X32322205Y-29457293D01*
X32322205Y-29457293D02*
X32312682Y-29495388D01*
X32312682Y-29495388D02*
X32303158Y-29514436D01*
X32303158Y-29514436D02*
X32293634Y-29523960D01*
X32293634Y-29523960D02*
X32274586Y-29533484D01*
X32274586Y-29533484D02*
X32255539Y-29533484D01*
X32255539Y-29533484D02*
X32236491Y-29523960D01*
X32236491Y-29523960D02*
X32226967Y-29514436D01*
X32226967Y-29514436D02*
X32217443Y-29495388D01*
X32217443Y-29495388D02*
X32207920Y-29457293D01*
X32207920Y-29457293D02*
X32207920Y-29409674D01*
X32207920Y-29409674D02*
X32217443Y-29371579D01*
X32217443Y-29371579D02*
X32226967Y-29352531D01*
X32226967Y-29352531D02*
X32236491Y-29343008D01*
X32236491Y-29343008D02*
X32255539Y-29333484D01*
X32407920Y-29533484D02*
X32407920Y-29400150D01*
X32407920Y-29419198D02*
X32417443Y-29409674D01*
X32417443Y-29409674D02*
X32436491Y-29400150D01*
X32436491Y-29400150D02*
X32465063Y-29400150D01*
X32465063Y-29400150D02*
X32484110Y-29409674D01*
X32484110Y-29409674D02*
X32493634Y-29428722D01*
X32493634Y-29428722D02*
X32493634Y-29533484D01*
X32493634Y-29428722D02*
X32503158Y-29409674D01*
X32503158Y-29409674D02*
X32522205Y-29400150D01*
X32522205Y-29400150D02*
X32550777Y-29400150D01*
X32550777Y-29400150D02*
X32569824Y-29409674D01*
X32569824Y-29409674D02*
X32579348Y-29428722D01*
X32579348Y-29428722D02*
X32579348Y-29533484D01*
X32674586Y-29533484D02*
X32674586Y-29400150D01*
X32674586Y-29419198D02*
X32684110Y-29409674D01*
X32684110Y-29409674D02*
X32703158Y-29400150D01*
X32703158Y-29400150D02*
X32731729Y-29400150D01*
X32731729Y-29400150D02*
X32750777Y-29409674D01*
X32750777Y-29409674D02*
X32760301Y-29428722D01*
X32760301Y-29428722D02*
X32760301Y-29533484D01*
X32760301Y-29428722D02*
X32769824Y-29409674D01*
X32769824Y-29409674D02*
X32788872Y-29400150D01*
X32788872Y-29400150D02*
X32817443Y-29400150D01*
X32817443Y-29400150D02*
X32836491Y-29409674D01*
X32836491Y-29409674D02*
X32846015Y-29428722D01*
X32846015Y-29428722D02*
X32846015Y-29533484D01*
X33236491Y-29323960D02*
X33065063Y-29581103D01*
X33493634Y-29333484D02*
X33512682Y-29333484D01*
X33512682Y-29333484D02*
X33531729Y-29343008D01*
X33531729Y-29343008D02*
X33541253Y-29352531D01*
X33541253Y-29352531D02*
X33550777Y-29371579D01*
X33550777Y-29371579D02*
X33560301Y-29409674D01*
X33560301Y-29409674D02*
X33560301Y-29457293D01*
X33560301Y-29457293D02*
X33550777Y-29495388D01*
X33550777Y-29495388D02*
X33541253Y-29514436D01*
X33541253Y-29514436D02*
X33531729Y-29523960D01*
X33531729Y-29523960D02*
X33512682Y-29533484D01*
X33512682Y-29533484D02*
X33493634Y-29533484D01*
X33493634Y-29533484D02*
X33474586Y-29523960D01*
X33474586Y-29523960D02*
X33465063Y-29514436D01*
X33465063Y-29514436D02*
X33455539Y-29495388D01*
X33455539Y-29495388D02*
X33446015Y-29457293D01*
X33446015Y-29457293D02*
X33446015Y-29409674D01*
X33446015Y-29409674D02*
X33455539Y-29371579D01*
X33455539Y-29371579D02*
X33465063Y-29352531D01*
X33465063Y-29352531D02*
X33474586Y-29343008D01*
X33474586Y-29343008D02*
X33493634Y-29333484D01*
X33646015Y-29514436D02*
X33655539Y-29523960D01*
X33655539Y-29523960D02*
X33646015Y-29533484D01*
X33646015Y-29533484D02*
X33636491Y-29523960D01*
X33636491Y-29523960D02*
X33646015Y-29514436D01*
X33646015Y-29514436D02*
X33646015Y-29533484D01*
X33779348Y-29333484D02*
X33798396Y-29333484D01*
X33798396Y-29333484D02*
X33817444Y-29343008D01*
X33817444Y-29343008D02*
X33826968Y-29352531D01*
X33826968Y-29352531D02*
X33836491Y-29371579D01*
X33836491Y-29371579D02*
X33846015Y-29409674D01*
X33846015Y-29409674D02*
X33846015Y-29457293D01*
X33846015Y-29457293D02*
X33836491Y-29495388D01*
X33836491Y-29495388D02*
X33826968Y-29514436D01*
X33826968Y-29514436D02*
X33817444Y-29523960D01*
X33817444Y-29523960D02*
X33798396Y-29533484D01*
X33798396Y-29533484D02*
X33779348Y-29533484D01*
X33779348Y-29533484D02*
X33760301Y-29523960D01*
X33760301Y-29523960D02*
X33750777Y-29514436D01*
X33750777Y-29514436D02*
X33741253Y-29495388D01*
X33741253Y-29495388D02*
X33731729Y-29457293D01*
X33731729Y-29457293D02*
X33731729Y-29409674D01*
X33731729Y-29409674D02*
X33741253Y-29371579D01*
X33741253Y-29371579D02*
X33750777Y-29352531D01*
X33750777Y-29352531D02*
X33760301Y-29343008D01*
X33760301Y-29343008D02*
X33779348Y-29333484D01*
X33912682Y-29333484D02*
X34046015Y-29333484D01*
X34046015Y-29333484D02*
X33960301Y-29533484D01*
X34160301Y-29333484D02*
X34179349Y-29333484D01*
X34179349Y-29333484D02*
X34198396Y-29343008D01*
X34198396Y-29343008D02*
X34207920Y-29352531D01*
X34207920Y-29352531D02*
X34217444Y-29371579D01*
X34217444Y-29371579D02*
X34226968Y-29409674D01*
X34226968Y-29409674D02*
X34226968Y-29457293D01*
X34226968Y-29457293D02*
X34217444Y-29495388D01*
X34217444Y-29495388D02*
X34207920Y-29514436D01*
X34207920Y-29514436D02*
X34198396Y-29523960D01*
X34198396Y-29523960D02*
X34179349Y-29533484D01*
X34179349Y-29533484D02*
X34160301Y-29533484D01*
X34160301Y-29533484D02*
X34141253Y-29523960D01*
X34141253Y-29523960D02*
X34131729Y-29514436D01*
X34131729Y-29514436D02*
X34122206Y-29495388D01*
X34122206Y-29495388D02*
X34112682Y-29457293D01*
X34112682Y-29457293D02*
X34112682Y-29409674D01*
X34112682Y-29409674D02*
X34122206Y-29371579D01*
X34122206Y-29371579D02*
X34131729Y-29352531D01*
X34131729Y-29352531D02*
X34141253Y-29343008D01*
X34141253Y-29343008D02*
X34160301Y-29333484D01*
X34322206Y-29533484D02*
X34360301Y-29533484D01*
X34360301Y-29533484D02*
X34379349Y-29523960D01*
X34379349Y-29523960D02*
X34388872Y-29514436D01*
X34388872Y-29514436D02*
X34407920Y-29485865D01*
X34407920Y-29485865D02*
X34417444Y-29447769D01*
X34417444Y-29447769D02*
X34417444Y-29371579D01*
X34417444Y-29371579D02*
X34407920Y-29352531D01*
X34407920Y-29352531D02*
X34398396Y-29343008D01*
X34398396Y-29343008D02*
X34379349Y-29333484D01*
X34379349Y-29333484D02*
X34341253Y-29333484D01*
X34341253Y-29333484D02*
X34322206Y-29343008D01*
X34322206Y-29343008D02*
X34312682Y-29352531D01*
X34312682Y-29352531D02*
X34303158Y-29371579D01*
X34303158Y-29371579D02*
X34303158Y-29419198D01*
X34303158Y-29419198D02*
X34312682Y-29438246D01*
X34312682Y-29438246D02*
X34322206Y-29447769D01*
X34322206Y-29447769D02*
X34341253Y-29457293D01*
X34341253Y-29457293D02*
X34379349Y-29457293D01*
X34379349Y-29457293D02*
X34398396Y-29447769D01*
X34398396Y-29447769D02*
X34407920Y-29438246D01*
X34407920Y-29438246D02*
X34417444Y-29419198D01*
X34493634Y-29333484D02*
X34493634Y-29371579D01*
X34569825Y-29333484D02*
X34569825Y-29371579D01*
X34865063Y-29609674D02*
X34855539Y-29600150D01*
X34855539Y-29600150D02*
X34836491Y-29571579D01*
X34836491Y-29571579D02*
X34826968Y-29552531D01*
X34826968Y-29552531D02*
X34817444Y-29523960D01*
X34817444Y-29523960D02*
X34807920Y-29476341D01*
X34807920Y-29476341D02*
X34807920Y-29438246D01*
X34807920Y-29438246D02*
X34817444Y-29390627D01*
X34817444Y-29390627D02*
X34826968Y-29362055D01*
X34826968Y-29362055D02*
X34836491Y-29343008D01*
X34836491Y-29343008D02*
X34855539Y-29314436D01*
X34855539Y-29314436D02*
X34865063Y-29304912D01*
X34931730Y-29352531D02*
X34941253Y-29343008D01*
X34941253Y-29343008D02*
X34960301Y-29333484D01*
X34960301Y-29333484D02*
X35007920Y-29333484D01*
X35007920Y-29333484D02*
X35026968Y-29343008D01*
X35026968Y-29343008D02*
X35036491Y-29352531D01*
X35036491Y-29352531D02*
X35046015Y-29371579D01*
X35046015Y-29371579D02*
X35046015Y-29390627D01*
X35046015Y-29390627D02*
X35036491Y-29419198D01*
X35036491Y-29419198D02*
X34922206Y-29533484D01*
X34922206Y-29533484D02*
X35046015Y-29533484D01*
X35284111Y-29533484D02*
X35284111Y-29333484D01*
X35369825Y-29533484D02*
X35369825Y-29428722D01*
X35369825Y-29428722D02*
X35360301Y-29409674D01*
X35360301Y-29409674D02*
X35341253Y-29400150D01*
X35341253Y-29400150D02*
X35312682Y-29400150D01*
X35312682Y-29400150D02*
X35293634Y-29409674D01*
X35293634Y-29409674D02*
X35284111Y-29419198D01*
X35493634Y-29533484D02*
X35474587Y-29523960D01*
X35474587Y-29523960D02*
X35465063Y-29514436D01*
X35465063Y-29514436D02*
X35455539Y-29495388D01*
X35455539Y-29495388D02*
X35455539Y-29438246D01*
X35455539Y-29438246D02*
X35465063Y-29419198D01*
X35465063Y-29419198D02*
X35474587Y-29409674D01*
X35474587Y-29409674D02*
X35493634Y-29400150D01*
X35493634Y-29400150D02*
X35522206Y-29400150D01*
X35522206Y-29400150D02*
X35541253Y-29409674D01*
X35541253Y-29409674D02*
X35550777Y-29419198D01*
X35550777Y-29419198D02*
X35560301Y-29438246D01*
X35560301Y-29438246D02*
X35560301Y-29495388D01*
X35560301Y-29495388D02*
X35550777Y-29514436D01*
X35550777Y-29514436D02*
X35541253Y-29523960D01*
X35541253Y-29523960D02*
X35522206Y-29533484D01*
X35522206Y-29533484D02*
X35493634Y-29533484D01*
X35674587Y-29533484D02*
X35655539Y-29523960D01*
X35655539Y-29523960D02*
X35646015Y-29504912D01*
X35646015Y-29504912D02*
X35646015Y-29333484D01*
X35826968Y-29523960D02*
X35807920Y-29533484D01*
X35807920Y-29533484D02*
X35769825Y-29533484D01*
X35769825Y-29533484D02*
X35750777Y-29523960D01*
X35750777Y-29523960D02*
X35741253Y-29504912D01*
X35741253Y-29504912D02*
X35741253Y-29428722D01*
X35741253Y-29428722D02*
X35750777Y-29409674D01*
X35750777Y-29409674D02*
X35769825Y-29400150D01*
X35769825Y-29400150D02*
X35807920Y-29400150D01*
X35807920Y-29400150D02*
X35826968Y-29409674D01*
X35826968Y-29409674D02*
X35836492Y-29428722D01*
X35836492Y-29428722D02*
X35836492Y-29447769D01*
X35836492Y-29447769D02*
X35741253Y-29466817D01*
X35912682Y-29523960D02*
X35931730Y-29533484D01*
X35931730Y-29533484D02*
X35969825Y-29533484D01*
X35969825Y-29533484D02*
X35988873Y-29523960D01*
X35988873Y-29523960D02*
X35998396Y-29504912D01*
X35998396Y-29504912D02*
X35998396Y-29495388D01*
X35998396Y-29495388D02*
X35988873Y-29476341D01*
X35988873Y-29476341D02*
X35969825Y-29466817D01*
X35969825Y-29466817D02*
X35941253Y-29466817D01*
X35941253Y-29466817D02*
X35922206Y-29457293D01*
X35922206Y-29457293D02*
X35912682Y-29438246D01*
X35912682Y-29438246D02*
X35912682Y-29428722D01*
X35912682Y-29428722D02*
X35922206Y-29409674D01*
X35922206Y-29409674D02*
X35941253Y-29400150D01*
X35941253Y-29400150D02*
X35969825Y-29400150D01*
X35969825Y-29400150D02*
X35988873Y-29409674D01*
X36065063Y-29609674D02*
X36074587Y-29600150D01*
X36074587Y-29600150D02*
X36093634Y-29571579D01*
X36093634Y-29571579D02*
X36103158Y-29552531D01*
X36103158Y-29552531D02*
X36112682Y-29523960D01*
X36112682Y-29523960D02*
X36122206Y-29476341D01*
X36122206Y-29476341D02*
X36122206Y-29438246D01*
X36122206Y-29438246D02*
X36112682Y-29390627D01*
X36112682Y-29390627D02*
X36103158Y-29362055D01*
X36103158Y-29362055D02*
X36093634Y-29343008D01*
X36093634Y-29343008D02*
X36074587Y-29314436D01*
X36074587Y-29314436D02*
X36065063Y-29304912D01*
M02*
